<?xml version="1.0" encoding="UTF-8" standalone="no"?>
<!DOCTYPE svg PUBLIC "-//W3C//DTD SVG 1.1//EN"
 "http://www.w3.org/Graphics/SVG/1.1/DTD/svg11.dtd">
<!-- Generated by graphviz version 2.40.1 (20161225.0304)
 -->
<!-- Pages: 1 -->
<svg width="620pt" height="251pt"
 viewBox="0.00 0.00 620.45 250.78" xmlns="http://www.w3.org/2000/svg" xmlns:xlink="http://www.w3.org/1999/xlink">
<g id="graph0" class="graph" transform="scale(1 1) rotate(0) translate(4 246.7813)">
<polygon fill="#ffffff" stroke="transparent" points="-4,4 -4,-246.7813 616.4546,-246.7813 616.4546,4 -4,4"/>
<text text-anchor="middle" x="306.2273" y="-6.8" font-family="Times,serif" font-size="14.00" fill="#000000">nodes=11</text>
<!-- 140448404713344 -->
<g id="node1" class="node">
<title>140448404713344</title>
<path fill="none" stroke="#000000" d="M12,-22.5C12,-22.5 66.4546,-22.5 66.4546,-22.5 72.4546,-22.5 78.4546,-28.5 78.4546,-34.5 78.4546,-34.5 78.4546,-53.5 78.4546,-53.5 78.4546,-59.5 72.4546,-65.5 66.4546,-65.5 66.4546,-65.5 12,-65.5 12,-65.5 6,-65.5 0,-59.5 0,-53.5 0,-53.5 0,-34.5 0,-34.5 0,-28.5 6,-22.5 12,-22.5"/>
<text text-anchor="middle" x="39.2273" y="-51.1" font-family="Times,serif" font-size="13.00" fill="#000000">dfs(3,[1, 2])</text>
<polyline fill="none" stroke="#000000" points="0,-44.5 78.4546,-44.5 "/>
<text text-anchor="middle" x="39.2273" y="-29.6" font-family="Times,serif" font-size="13.00" fill="#000000">ret: None</text>
</g>
<!-- 140448404787616 -->
<g id="node2" class="node">
<title>140448404787616</title>
<path fill="none" stroke="#000000" d="M126,-22.5C126,-22.5 180.4546,-22.5 180.4546,-22.5 186.4546,-22.5 192.4546,-28.5 192.4546,-34.5 192.4546,-34.5 192.4546,-53.5 192.4546,-53.5 192.4546,-59.5 186.4546,-65.5 180.4546,-65.5 180.4546,-65.5 126,-65.5 126,-65.5 120,-65.5 114,-59.5 114,-53.5 114,-53.5 114,-34.5 114,-34.5 114,-28.5 120,-22.5 126,-22.5"/>
<text text-anchor="middle" x="153.2273" y="-51.1" font-family="Times,serif" font-size="13.00" fill="#000000">dfs(4,[1, 3])</text>
<polyline fill="none" stroke="#000000" points="114,-44.5 192.4546,-44.5 "/>
<text text-anchor="middle" x="153.2273" y="-29.6" font-family="Times,serif" font-size="13.00" fill="#000000">ret: None</text>
</g>
<!-- 140448404788928 -->
<g id="node3" class="node">
<title>140448404788928</title>
<path fill="none" stroke="#000000" d="M240,-22.5C240,-22.5 294.4546,-22.5 294.4546,-22.5 300.4546,-22.5 306.4546,-28.5 306.4546,-34.5 306.4546,-34.5 306.4546,-53.5 306.4546,-53.5 306.4546,-59.5 300.4546,-65.5 294.4546,-65.5 294.4546,-65.5 240,-65.5 240,-65.5 234,-65.5 228,-59.5 228,-53.5 228,-53.5 228,-34.5 228,-34.5 228,-28.5 234,-22.5 240,-22.5"/>
<text text-anchor="middle" x="267.2273" y="-51.1" font-family="Times,serif" font-size="13.00" fill="#000000">dfs(5,[1, 4])</text>
<polyline fill="none" stroke="#000000" points="228,-44.5 306.4546,-44.5 "/>
<text text-anchor="middle" x="267.2273" y="-29.6" font-family="Times,serif" font-size="13.00" fill="#000000">ret: None</text>
</g>
<!-- 140448404792320 -->
<g id="node4" class="node">
<title>140448404792320</title>
<path fill="none" stroke="#000000" d="M336,-22.5C336,-22.5 390.4546,-22.5 390.4546,-22.5 396.4546,-22.5 402.4546,-28.5 402.4546,-34.5 402.4546,-34.5 402.4546,-53.5 402.4546,-53.5 402.4546,-59.5 396.4546,-65.5 390.4546,-65.5 390.4546,-65.5 336,-65.5 336,-65.5 330,-65.5 324,-59.5 324,-53.5 324,-53.5 324,-34.5 324,-34.5 324,-28.5 330,-22.5 336,-22.5"/>
<text text-anchor="middle" x="363.2273" y="-51.1" font-family="Times,serif" font-size="13.00" fill="#000000">dfs(4,[2, 3])</text>
<polyline fill="none" stroke="#000000" points="324,-44.5 402.4546,-44.5 "/>
<text text-anchor="middle" x="363.2273" y="-29.6" font-family="Times,serif" font-size="13.00" fill="#000000">ret: None</text>
</g>
<!-- 140448404793632 -->
<g id="node5" class="node">
<title>140448404793632</title>
<path fill="none" stroke="#000000" d="M450,-22.5C450,-22.5 504.4546,-22.5 504.4546,-22.5 510.4546,-22.5 516.4546,-28.5 516.4546,-34.5 516.4546,-34.5 516.4546,-53.5 516.4546,-53.5 516.4546,-59.5 510.4546,-65.5 504.4546,-65.5 504.4546,-65.5 450,-65.5 450,-65.5 444,-65.5 438,-59.5 438,-53.5 438,-53.5 438,-34.5 438,-34.5 438,-28.5 444,-22.5 450,-22.5"/>
<text text-anchor="middle" x="477.2273" y="-51.1" font-family="Times,serif" font-size="13.00" fill="#000000">dfs(5,[2, 4])</text>
<polyline fill="none" stroke="#000000" points="438,-44.5 516.4546,-44.5 "/>
<text text-anchor="middle" x="477.2273" y="-29.6" font-family="Times,serif" font-size="13.00" fill="#000000">ret: None</text>
</g>
<!-- 140448404623280 -->
<g id="node6" class="node">
<title>140448404623280</title>
<path fill="none" stroke="#000000" d="M243.5,-110.8906C243.5,-110.8906 284.9546,-110.8906 284.9546,-110.8906 290.9546,-110.8906 296.9546,-116.8906 296.9546,-122.8906 296.9546,-122.8906 296.9546,-141.8906 296.9546,-141.8906 296.9546,-147.8906 290.9546,-153.8906 284.9546,-153.8906 284.9546,-153.8906 243.5,-153.8906 243.5,-153.8906 237.5,-153.8906 231.5,-147.8906 231.5,-141.8906 231.5,-141.8906 231.5,-122.8906 231.5,-122.8906 231.5,-116.8906 237.5,-110.8906 243.5,-110.8906"/>
<text text-anchor="middle" x="264.2273" y="-139.4906" font-family="Times,serif" font-size="13.00" fill="#000000">dfs(2,[1])</text>
<polyline fill="none" stroke="#000000" points="231.5,-132.8906 296.9546,-132.8906 "/>
<text text-anchor="middle" x="264.2273" y="-117.9906" font-family="Times,serif" font-size="13.00" fill="#000000">ret: None</text>
</g>
<!-- 140448404623280&#45;&gt;140448404713344 -->
<g id="edge7" class="edge">
<title>140448404623280&#45;&gt;140448404713344</title>
<path fill="none" stroke="#242424" d="M231.0278,-119.3483C193.2972,-104.526 131.3536,-80.1916 88.1024,-63.2005"/>
<polygon fill="#242424" stroke="#242424" points="89.2158,-59.8775 78.6285,-59.4786 86.6562,-66.3928 89.2158,-59.8775"/>
<text text-anchor="middle" x="169.3035" y="-85.9906" font-family="Times,serif" font-size="8.00" fill="#999999">2 (⇑1)</text>
</g>
<!-- 140448404623280&#45;&gt;140448404787616 -->
<g id="edge8" class="edge">
<title>140448404623280&#45;&gt;140448404787616</title>
<path fill="none" stroke="#363636" d="M237.0736,-110.7678C222.426,-99.1038 204.1775,-84.5723 188.4485,-72.0471"/>
<polygon fill="#363636" stroke="#363636" points="190.4884,-69.1973 180.4853,-65.7059 186.1278,-74.6732 190.4884,-69.1973"/>
<text text-anchor="middle" x="222.3035" y="-85.9906" font-family="Times,serif" font-size="8.00" fill="#999999">3 (⇑2)</text>
</g>
<!-- 140448404623280&#45;&gt;140448404788928 -->
<g id="edge9" class="edge">
<title>140448404623280&#45;&gt;140448404788928</title>
<path fill="none" stroke="#484848" d="M264.9689,-110.5413C265.3249,-100.0514 265.7583,-87.2824 266.1498,-75.7458"/>
<polygon fill="#484848" stroke="#484848" points="269.6529,-75.711 266.4943,-65.598 262.657,-75.4735 269.6529,-75.711"/>
<text text-anchor="middle" x="276.3035" y="-85.9906" font-family="Times,serif" font-size="8.00" fill="#999999">4 (⇑3)</text>
</g>
<!-- 140448404790240 -->
<g id="node7" class="node">
<title>140448404790240</title>
<path fill="none" stroke="#000000" d="M344.5,-110.8906C344.5,-110.8906 385.9546,-110.8906 385.9546,-110.8906 391.9546,-110.8906 397.9546,-116.8906 397.9546,-122.8906 397.9546,-122.8906 397.9546,-141.8906 397.9546,-141.8906 397.9546,-147.8906 391.9546,-153.8906 385.9546,-153.8906 385.9546,-153.8906 344.5,-153.8906 344.5,-153.8906 338.5,-153.8906 332.5,-147.8906 332.5,-141.8906 332.5,-141.8906 332.5,-122.8906 332.5,-122.8906 332.5,-116.8906 338.5,-110.8906 344.5,-110.8906"/>
<text text-anchor="middle" x="365.2273" y="-139.4906" font-family="Times,serif" font-size="13.00" fill="#000000">dfs(3,[2])</text>
<polyline fill="none" stroke="#000000" points="332.5,-132.8906 397.9546,-132.8906 "/>
<text text-anchor="middle" x="365.2273" y="-117.9906" font-family="Times,serif" font-size="13.00" fill="#000000">ret: None</text>
</g>
<!-- 140448404790240&#45;&gt;140448404792320 -->
<g id="edge10" class="edge">
<title>140448404790240&#45;&gt;140448404792320</title>
<path fill="none" stroke="#6c6c6c" d="M364.7329,-110.5413C364.4956,-100.0514 364.2066,-87.2824 363.9456,-75.7458"/>
<polygon fill="#6c6c6c" stroke="#6c6c6c" points="367.4414,-75.5163 363.716,-65.598 360.4432,-75.6747 367.4414,-75.5163"/>
<text text-anchor="middle" x="375.3035" y="-85.9906" font-family="Times,serif" font-size="8.00" fill="#999999">6 (⇑5)</text>
</g>
<!-- 140448404790240&#45;&gt;140448404793632 -->
<g id="edge11" class="edge">
<title>140448404790240&#45;&gt;140448404793632</title>
<path fill="none" stroke="#7e7e7e" d="M392.6256,-110.7678C407.4052,-99.1038 425.8181,-84.5723 441.6888,-72.0471"/>
<polygon fill="#7e7e7e" stroke="#7e7e7e" points="444.0421,-74.6485 449.7237,-65.7059 439.7055,-69.1536 444.0421,-74.6485"/>
<text text-anchor="middle" x="435.3035" y="-85.9906" font-family="Times,serif" font-size="8.00" fill="#999999">7 (⇑6)</text>
</g>
<!-- 140448404794944 -->
<g id="node8" class="node">
<title>140448404794944</title>
<path fill="none" stroke="#000000" d="M445.5,-110.8906C445.5,-110.8906 486.9546,-110.8906 486.9546,-110.8906 492.9546,-110.8906 498.9546,-116.8906 498.9546,-122.8906 498.9546,-122.8906 498.9546,-141.8906 498.9546,-141.8906 498.9546,-147.8906 492.9546,-153.8906 486.9546,-153.8906 486.9546,-153.8906 445.5,-153.8906 445.5,-153.8906 439.5,-153.8906 433.5,-147.8906 433.5,-141.8906 433.5,-141.8906 433.5,-122.8906 433.5,-122.8906 433.5,-116.8906 439.5,-110.8906 445.5,-110.8906"/>
<text text-anchor="middle" x="466.2273" y="-139.4906" font-family="Times,serif" font-size="13.00" fill="#000000">dfs(4,[3])</text>
<polyline fill="none" stroke="#000000" points="433.5,-132.8906 498.9546,-132.8906 "/>
<text text-anchor="middle" x="466.2273" y="-117.9906" font-family="Times,serif" font-size="13.00" fill="#000000">ret: None</text>
</g>
<!-- 140448404797568 -->
<g id="node9" class="node">
<title>140448404797568</title>
<path fill="none" stroke="#000000" d="M546.5,-110.8906C546.5,-110.8906 587.9546,-110.8906 587.9546,-110.8906 593.9546,-110.8906 599.9546,-116.8906 599.9546,-122.8906 599.9546,-122.8906 599.9546,-141.8906 599.9546,-141.8906 599.9546,-147.8906 593.9546,-153.8906 587.9546,-153.8906 587.9546,-153.8906 546.5,-153.8906 546.5,-153.8906 540.5,-153.8906 534.5,-147.8906 534.5,-141.8906 534.5,-141.8906 534.5,-122.8906 534.5,-122.8906 534.5,-116.8906 540.5,-110.8906 546.5,-110.8906"/>
<text text-anchor="middle" x="567.2273" y="-139.4906" font-family="Times,serif" font-size="13.00" fill="#000000">dfs(5,[4])</text>
<polyline fill="none" stroke="#000000" points="534.5,-132.8906 599.9546,-132.8906 "/>
<text text-anchor="middle" x="567.2273" y="-117.9906" font-family="Times,serif" font-size="13.00" fill="#000000">ret: None</text>
</g>
<!-- 140448404796256 -->
<g id="node10" class="node">
<title>140448404796256</title>
<path fill="none" stroke="#000000" d="M546,-22.5C546,-22.5 600.4546,-22.5 600.4546,-22.5 606.4546,-22.5 612.4546,-28.5 612.4546,-34.5 612.4546,-34.5 612.4546,-53.5 612.4546,-53.5 612.4546,-59.5 606.4546,-65.5 600.4546,-65.5 600.4546,-65.5 546,-65.5 546,-65.5 540,-65.5 534,-59.5 534,-53.5 534,-53.5 534,-34.5 534,-34.5 534,-28.5 540,-22.5 546,-22.5"/>
<text text-anchor="middle" x="573.2273" y="-51.1" font-family="Times,serif" font-size="13.00" fill="#000000">dfs(5,[3, 4])</text>
<polyline fill="none" stroke="#000000" points="534,-44.5 612.4546,-44.5 "/>
<text text-anchor="middle" x="573.2273" y="-29.6" font-family="Times,serif" font-size="13.00" fill="#000000">ret: None</text>
</g>
<!-- 140448404794944&#45;&gt;140448404796256 -->
<g id="edge12" class="edge">
<title>140448404794944&#45;&gt;140448404796256</title>
<path fill="none" stroke="#a2a2a2" d="M492.4024,-110.7678C506.3927,-99.2108 523.7906,-84.8387 538.8574,-72.3923"/>
<polygon fill="#a2a2a2" stroke="#a2a2a2" points="541.471,-74.7731 546.9515,-65.7059 537.0128,-69.3763 541.471,-74.7731"/>
<text text-anchor="middle" x="532.3035" y="-85.9906" font-family="Times,serif" font-size="8.00" fill="#999999">9 (⇑8)</text>
</g>
<!-- 140448404743952 -->
<g id="node11" class="node">
<title>140448404743952</title>
<path fill="none" stroke="#000000" d="M394.7273,-199.2813C394.7273,-199.2813 435.7273,-199.2813 435.7273,-199.2813 441.7273,-199.2813 447.7273,-205.2813 447.7273,-211.2813 447.7273,-211.2813 447.7273,-230.2813 447.7273,-230.2813 447.7273,-236.2813 441.7273,-242.2813 435.7273,-242.2813 435.7273,-242.2813 394.7273,-242.2813 394.7273,-242.2813 388.7273,-242.2813 382.7273,-236.2813 382.7273,-230.2813 382.7273,-230.2813 382.7273,-211.2813 382.7273,-211.2813 382.7273,-205.2813 388.7273,-199.2813 394.7273,-199.2813"/>
<text text-anchor="middle" x="415.0928" y="-227.8813" font-family="Times,serif" font-size="13.00" fill="#000000">dfs(1,[])</text>
<polyline fill="none" stroke="#000000" points="382.7273,-221.2813 447.4583,-221.2813 "/>
<text text-anchor="middle" x="415.0928" y="-206.3813" font-family="Times,serif" font-size="13.00" fill="#000000">ret: None</text>
</g>
<!-- 140448404743952&#45;&gt;140448404623280 -->
<g id="edge13" class="edge">
<title>140448404743952&#45;&gt;140448404623280</title>
<path fill="none" stroke="#121212" d="M382.4625,-201.6018C360.0809,-188.5003 330.2281,-171.0254 306.1195,-156.913"/>
<polygon fill="#121212" stroke="#121212" points="307.5868,-153.7164 297.1885,-151.6851 304.0505,-159.7575 307.5868,-153.7164"/>
<text text-anchor="middle" x="355.3035" y="-174.3813" font-family="Times,serif" font-size="8.00" fill="#999999">1 (⇑4)</text>
</g>
<!-- 140448404743952&#45;&gt;140448404790240 -->
<g id="edge14" class="edge">
<title>140448404743952&#45;&gt;140448404790240</title>
<path fill="none" stroke="#5a5a5a" d="M402.8677,-198.9319C396.6918,-188.0139 389.1191,-174.6269 382.3895,-162.7301"/>
<polygon fill="#5a5a5a" stroke="#5a5a5a" points="385.4147,-160.9693 377.4447,-153.9887 379.3219,-164.4159 385.4147,-160.9693"/>
<text text-anchor="middle" x="402.3035" y="-174.3813" font-family="Times,serif" font-size="8.00" fill="#999999">5 (⇑7)</text>
</g>
<!-- 140448404743952&#45;&gt;140448404794944 -->
<g id="edge15" class="edge">
<title>140448404743952&#45;&gt;140448404794944</title>
<path fill="none" stroke="#909090" d="M427.834,-198.9319C434.1335,-188.0139 441.8576,-174.6269 448.7219,-162.7301"/>
<polygon fill="#909090" stroke="#909090" points="451.7995,-164.3995 453.7656,-153.9887 445.7363,-160.9011 451.7995,-164.3995"/>
<text text-anchor="middle" x="453.3035" y="-174.3813" font-family="Times,serif" font-size="8.00" fill="#999999">8 (⇑9)</text>
</g>
<!-- 140448404743952&#45;&gt;140448404797568 -->
<g id="edge16" class="edge">
<title>140448404743952&#45;&gt;140448404797568</title>
<path fill="none" stroke="#b4b4b4" d="M447.8351,-201.8192C470.5985,-188.582 501.1723,-170.8028 525.6818,-156.5501"/>
<polygon fill="#b4b4b4" stroke="#b4b4b4" points="527.5263,-159.5262 534.4115,-151.4736 524.0074,-153.475 527.5263,-159.5262"/>
<text text-anchor="middle" x="509.3035" y="-174.3813" font-family="Times,serif" font-size="8.00" fill="#999999">10 (⇑10)</text>
</g>
</g>
</svg>
