<?xml version="1.0" encoding="UTF-8" standalone="no"?>
<!DOCTYPE svg PUBLIC "-//W3C//DTD SVG 1.1//EN"
 "http://www.w3.org/Graphics/SVG/1.1/DTD/svg11.dtd">
<!-- Generated by graphviz version 2.40.1 (20161225.0304)
 -->
<!-- Pages: 1 -->
<svg width="516pt" height="428pt"
 viewBox="0.00 0.00 516.00 427.56" xmlns="http://www.w3.org/2000/svg" xmlns:xlink="http://www.w3.org/1999/xlink">
<g id="graph0" class="graph" transform="scale(1 1) rotate(0) translate(4 423.5625)">
<polygon fill="#ffffff" stroke="transparent" points="-4,4 -4,-423.5625 512,-423.5625 512,4 -4,4"/>
<text text-anchor="middle" x="254" y="-6.8" font-family="Times,serif" font-size="14.00" fill="#000000">nodes=15</text>
<!-- 140650830123600 -->
<g id="node1" class="node">
<title>140650830123600</title>
<path fill="none" stroke="#000000" d="M124,-287.6719C124,-287.6719 154,-287.6719 154,-287.6719 160,-287.6719 166,-293.6719 166,-299.6719 166,-299.6719 166,-318.6719 166,-318.6719 166,-324.6719 160,-330.6719 154,-330.6719 154,-330.6719 124,-330.6719 124,-330.6719 118,-330.6719 112,-324.6719 112,-318.6719 112,-318.6719 112,-299.6719 112,-299.6719 112,-293.6719 118,-287.6719 124,-287.6719"/>
<text text-anchor="middle" x="138.9441" y="-316.2719" font-family="Times,serif" font-size="13.00" fill="#000000">fib(4)</text>
<polyline fill="none" stroke="#000000" points="112,-309.6719 165.8882,-309.6719 "/>
<text text-anchor="middle" x="138.9441" y="-294.7719" font-family="Times,serif" font-size="13.00" fill="#000000">ret: 2</text>
</g>
<!-- 140650831017312 -->
<g id="node2" class="node">
<title>140650831017312</title>
<path fill="none" stroke="#000000" d="M216,-287.6719C216,-287.6719 246,-287.6719 246,-287.6719 252,-287.6719 258,-293.6719 258,-299.6719 258,-299.6719 258,-318.6719 258,-318.6719 258,-324.6719 252,-330.6719 246,-330.6719 246,-330.6719 216,-330.6719 216,-330.6719 210,-330.6719 204,-324.6719 204,-318.6719 204,-318.6719 204,-299.6719 204,-299.6719 204,-293.6719 210,-287.6719 216,-287.6719"/>
<text text-anchor="middle" x="230.9441" y="-316.2719" font-family="Times,serif" font-size="13.00" fill="#000000">fib(5)</text>
<polyline fill="none" stroke="#000000" points="204,-309.6719 257.8882,-309.6719 "/>
<text text-anchor="middle" x="230.9441" y="-294.7719" font-family="Times,serif" font-size="13.00" fill="#000000">ret: 3</text>
</g>
<!-- 140650831009184 -->
<g id="node3" class="node">
<title>140650831009184</title>
<path fill="none" stroke="#000000" d="M25,-199.2813C25,-199.2813 55,-199.2813 55,-199.2813 61,-199.2813 67,-205.2813 67,-211.2813 67,-211.2813 67,-230.2813 67,-230.2813 67,-236.2813 61,-242.2813 55,-242.2813 55,-242.2813 25,-242.2813 25,-242.2813 19,-242.2813 13,-236.2813 13,-230.2813 13,-230.2813 13,-211.2813 13,-211.2813 13,-205.2813 19,-199.2813 25,-199.2813"/>
<text text-anchor="middle" x="39.9441" y="-227.8813" font-family="Times,serif" font-size="13.00" fill="#000000">fib(2)</text>
<polyline fill="none" stroke="#000000" points="13,-221.2813 66.8882,-221.2813 "/>
<text text-anchor="middle" x="39.9441" y="-206.3813" font-family="Times,serif" font-size="13.00" fill="#000000">ret: 1</text>
</g>
<!-- 140650830123600&#45;&gt;140650831009184 -->
<g id="edge8" class="edge">
<title>140650830123600&#45;&gt;140650831009184</title>
<path fill="none" stroke="#1a1a1a" d="M114.7819,-287.5491C101.8376,-275.992 85.7405,-261.6199 71.8002,-249.1736"/>
<polygon fill="#1a1a1a" stroke="#1a1a1a" points="74.1017,-246.5364 64.3112,-242.4871 69.4397,-251.7581 74.1017,-246.5364"/>
<text text-anchor="middle" x="103.0762" y="-262.7719" font-family="Times,serif" font-size="8.00" fill="#999999">2 (⇑1)</text>
</g>
<!-- 140650831012560 -->
<g id="node4" class="node">
<title>140650831012560</title>
<path fill="none" stroke="#000000" d="M115,-199.2813C115,-199.2813 145,-199.2813 145,-199.2813 151,-199.2813 157,-205.2813 157,-211.2813 157,-211.2813 157,-230.2813 157,-230.2813 157,-236.2813 151,-242.2813 145,-242.2813 145,-242.2813 115,-242.2813 115,-242.2813 109,-242.2813 103,-236.2813 103,-230.2813 103,-230.2813 103,-211.2813 103,-211.2813 103,-205.2813 109,-199.2813 115,-199.2813"/>
<text text-anchor="middle" x="129.9441" y="-227.8813" font-family="Times,serif" font-size="13.00" fill="#000000">fib(3)</text>
<polyline fill="none" stroke="#000000" points="103,-221.2813 156.8882,-221.2813 "/>
<text text-anchor="middle" x="129.9441" y="-206.3813" font-family="Times,serif" font-size="13.00" fill="#000000">ret: 1</text>
</g>
<!-- 140650830123600&#45;&gt;140650831012560 -->
<g id="edge9" class="edge">
<title>140650830123600&#45;&gt;140650831012560</title>
<path fill="none" stroke="#272727" d="M136.7753,-287.3225C135.7072,-276.8327 134.407,-264.0637 133.2324,-252.527"/>
<polygon fill="#272727" stroke="#272727" points="136.6942,-251.9733 132.1991,-242.3793 129.7302,-252.6824 136.6942,-251.9733"/>
<text text-anchor="middle" x="145.0762" y="-262.7719" font-family="Times,serif" font-size="8.00" fill="#999999">3 (⇑4)</text>
</g>
<!-- 140650831022928 -->
<g id="node5" class="node">
<title>140650831022928</title>
<path fill="none" stroke="#000000" d="M327,-199.2813C327,-199.2813 357,-199.2813 357,-199.2813 363,-199.2813 369,-205.2813 369,-211.2813 369,-211.2813 369,-230.2813 369,-230.2813 369,-236.2813 363,-242.2813 357,-242.2813 357,-242.2813 327,-242.2813 327,-242.2813 321,-242.2813 315,-236.2813 315,-230.2813 315,-230.2813 315,-211.2813 315,-211.2813 315,-205.2813 321,-199.2813 327,-199.2813"/>
<text text-anchor="middle" x="341.9441" y="-227.8813" font-family="Times,serif" font-size="13.00" fill="#000000">fib(4)</text>
<polyline fill="none" stroke="#000000" points="315,-221.2813 368.8882,-221.2813 "/>
<text text-anchor="middle" x="341.9441" y="-206.3813" font-family="Times,serif" font-size="13.00" fill="#000000">ret: 2</text>
</g>
<!-- 140650831017312&#45;&gt;140650831022928 -->
<g id="edge10" class="edge">
<title>140650831017312&#45;&gt;140650831022928</title>
<path fill="none" stroke="#828282" d="M258.1537,-287.5491C272.8013,-275.885 291.0498,-261.3535 306.7788,-248.8283"/>
<polygon fill="#828282" stroke="#828282" points="309.0995,-251.4545 314.742,-242.4871 304.7389,-245.9786 309.0995,-251.4545"/>
<text text-anchor="middle" x="304.0762" y="-262.7719" font-family="Times,serif" font-size="8.00" fill="#999999">10 (⇑13)</text>
</g>
<!-- 140650831018624 -->
<g id="node6" class="node">
<title>140650831018624</title>
<path fill="none" stroke="#000000" d="M231,-199.2813C231,-199.2813 261,-199.2813 261,-199.2813 267,-199.2813 273,-205.2813 273,-211.2813 273,-211.2813 273,-230.2813 273,-230.2813 273,-236.2813 267,-242.2813 261,-242.2813 261,-242.2813 231,-242.2813 231,-242.2813 225,-242.2813 219,-236.2813 219,-230.2813 219,-230.2813 219,-211.2813 219,-211.2813 219,-205.2813 225,-199.2813 231,-199.2813"/>
<text text-anchor="middle" x="245.9441" y="-227.8813" font-family="Times,serif" font-size="13.00" fill="#000000">fib(3)</text>
<polyline fill="none" stroke="#000000" points="219,-221.2813 272.8882,-221.2813 "/>
<text text-anchor="middle" x="245.9441" y="-206.3813" font-family="Times,serif" font-size="13.00" fill="#000000">ret: 1</text>
</g>
<!-- 140650831017312&#45;&gt;140650831018624 -->
<g id="edge11" class="edge">
<title>140650831017312&#45;&gt;140650831018624</title>
<path fill="none" stroke="#5b5b5b" d="M234.7079,-287.3225C236.488,-276.8327 238.6549,-264.0637 240.6127,-252.527"/>
<polygon fill="#5b5b5b" stroke="#5b5b5b" points="244.1123,-252.8239 242.3348,-242.3793 237.2109,-251.6527 244.1123,-252.8239"/>
<text text-anchor="middle" x="249.0762" y="-262.7719" font-family="Times,serif" font-size="8.00" fill="#999999">7 (⇑8)</text>
</g>
<!-- 140650831013920 -->
<g id="node13" class="node">
<title>140650831013920</title>
<path fill="none" stroke="#000000" d="M12,-110.8906C12,-110.8906 42,-110.8906 42,-110.8906 48,-110.8906 54,-116.8906 54,-122.8906 54,-122.8906 54,-141.8906 54,-141.8906 54,-147.8906 48,-153.8906 42,-153.8906 42,-153.8906 12,-153.8906 12,-153.8906 6,-153.8906 0,-147.8906 0,-141.8906 0,-141.8906 0,-122.8906 0,-122.8906 0,-116.8906 6,-110.8906 12,-110.8906"/>
<text text-anchor="middle" x="26.9441" y="-139.4906" font-family="Times,serif" font-size="13.00" fill="#000000">fib(1)</text>
<polyline fill="none" stroke="#000000" points="0,-132.8906 53.8882,-132.8906 "/>
<text text-anchor="middle" x="26.9441" y="-117.9906" font-family="Times,serif" font-size="13.00" fill="#000000">ret: 0</text>
</g>
<!-- 140650831012560&#45;&gt;140650831013920 -->
<g id="edge12" class="edge">
<title>140650831012560&#45;&gt;140650831013920</title>
<path fill="none" stroke="#343434" d="M104.8034,-199.1585C91.3361,-187.6014 74.5886,-173.2293 60.085,-160.7829"/>
<polygon fill="#343434" stroke="#343434" points="62.1616,-157.9529 52.2935,-154.0965 57.6029,-163.265 62.1616,-157.9529"/>
<text text-anchor="middle" x="92.0762" y="-174.3813" font-family="Times,serif" font-size="8.00" fill="#999999">4 (⇑2)</text>
</g>
<!-- 140650831015232 -->
<g id="node14" class="node">
<title>140650831015232</title>
<path fill="none" stroke="#000000" d="M102,-110.8906C102,-110.8906 132,-110.8906 132,-110.8906 138,-110.8906 144,-116.8906 144,-122.8906 144,-122.8906 144,-141.8906 144,-141.8906 144,-147.8906 138,-153.8906 132,-153.8906 132,-153.8906 102,-153.8906 102,-153.8906 96,-153.8906 90,-147.8906 90,-141.8906 90,-141.8906 90,-122.8906 90,-122.8906 90,-116.8906 96,-110.8906 102,-110.8906"/>
<text text-anchor="middle" x="116.9441" y="-139.4906" font-family="Times,serif" font-size="13.00" fill="#000000">fib(2)</text>
<polyline fill="none" stroke="#000000" points="90,-132.8906 143.8882,-132.8906 "/>
<text text-anchor="middle" x="116.9441" y="-117.9906" font-family="Times,serif" font-size="13.00" fill="#000000">ret: 1</text>
</g>
<!-- 140650831012560&#45;&gt;140650831015232 -->
<g id="edge13" class="edge">
<title>140650831012560&#45;&gt;140650831015232</title>
<path fill="none" stroke="#414141" d="M126.7865,-198.9319C125.2437,-188.4421 123.3657,-175.6731 121.669,-164.1364"/>
<polygon fill="#414141" stroke="#414141" points="125.0944,-163.3729 120.1765,-153.9887 118.1689,-164.3915 125.0944,-163.3729"/>
<text text-anchor="middle" x="134.0762" y="-174.3813" font-family="Times,serif" font-size="8.00" fill="#999999">5 (⇑3)</text>
</g>
<!-- 140650831026080 -->
<g id="node7" class="node">
<title>140650831026080</title>
<path fill="none" stroke="#000000" d="M426,-110.8906C426,-110.8906 456,-110.8906 456,-110.8906 462,-110.8906 468,-116.8906 468,-122.8906 468,-122.8906 468,-141.8906 468,-141.8906 468,-147.8906 462,-153.8906 456,-153.8906 456,-153.8906 426,-153.8906 426,-153.8906 420,-153.8906 414,-147.8906 414,-141.8906 414,-141.8906 414,-122.8906 414,-122.8906 414,-116.8906 420,-110.8906 426,-110.8906"/>
<text text-anchor="middle" x="440.9441" y="-139.4906" font-family="Times,serif" font-size="13.00" fill="#000000">fib(3)</text>
<polyline fill="none" stroke="#000000" points="414,-132.8906 467.8882,-132.8906 "/>
<text text-anchor="middle" x="440.9441" y="-117.9906" font-family="Times,serif" font-size="13.00" fill="#000000">ret: 1</text>
</g>
<!-- 140650831022928&#45;&gt;140650831026080 -->
<g id="edge14" class="edge">
<title>140650831022928&#45;&gt;140650831026080</title>
<path fill="none" stroke="#9c9c9c" d="M366.2181,-199.1585C379.1624,-187.6014 395.2595,-173.2293 409.1998,-160.7829"/>
<polygon fill="#9c9c9c" stroke="#9c9c9c" points="411.5603,-163.3674 416.6888,-154.0965 406.8983,-158.1458 411.5603,-163.3674"/>
<text text-anchor="middle" x="408.0762" y="-174.3813" font-family="Times,serif" font-size="8.00" fill="#999999">12 (⇑12)</text>
</g>
<!-- 140650831024480 -->
<g id="node8" class="node">
<title>140650831024480</title>
<path fill="none" stroke="#000000" d="M336,-110.8906C336,-110.8906 366,-110.8906 366,-110.8906 372,-110.8906 378,-116.8906 378,-122.8906 378,-122.8906 378,-141.8906 378,-141.8906 378,-147.8906 372,-153.8906 366,-153.8906 366,-153.8906 336,-153.8906 336,-153.8906 330,-153.8906 324,-147.8906 324,-141.8906 324,-141.8906 324,-122.8906 324,-122.8906 324,-116.8906 330,-110.8906 336,-110.8906"/>
<text text-anchor="middle" x="350.9441" y="-139.4906" font-family="Times,serif" font-size="13.00" fill="#000000">fib(2)</text>
<polyline fill="none" stroke="#000000" points="324,-132.8906 377.8882,-132.8906 "/>
<text text-anchor="middle" x="350.9441" y="-117.9906" font-family="Times,serif" font-size="13.00" fill="#000000">ret: 1</text>
</g>
<!-- 140650831022928&#45;&gt;140650831024480 -->
<g id="edge15" class="edge">
<title>140650831022928&#45;&gt;140650831024480</title>
<path fill="none" stroke="#8f8f8f" d="M344.2247,-198.9319C345.2928,-188.4421 346.593,-175.6731 347.7676,-164.1364"/>
<polygon fill="#8f8f8f" stroke="#8f8f8f" points="351.2698,-164.2918 348.8009,-153.9887 344.3058,-163.5827 351.2698,-164.2918"/>
<text text-anchor="middle" x="357.9297" y="-174.3813" font-family="Times,serif" font-size="8.00" fill="#999999">11 (⇑9)</text>
</g>
<!-- 140650831019936 -->
<g id="node11" class="node">
<title>140650831019936</title>
<path fill="none" stroke="#000000" d="M174,-110.8906C174,-110.8906 204,-110.8906 204,-110.8906 210,-110.8906 216,-116.8906 216,-122.8906 216,-122.8906 216,-141.8906 216,-141.8906 216,-147.8906 210,-153.8906 204,-153.8906 204,-153.8906 174,-153.8906 174,-153.8906 168,-153.8906 162,-147.8906 162,-141.8906 162,-141.8906 162,-122.8906 162,-122.8906 162,-116.8906 168,-110.8906 174,-110.8906"/>
<text text-anchor="middle" x="188.9441" y="-139.4906" font-family="Times,serif" font-size="13.00" fill="#000000">fib(1)</text>
<polyline fill="none" stroke="#000000" points="162,-132.8906 215.8882,-132.8906 "/>
<text text-anchor="middle" x="188.9441" y="-117.9906" font-family="Times,serif" font-size="13.00" fill="#000000">ret: 0</text>
</g>
<!-- 140650831018624&#45;&gt;140650831019936 -->
<g id="edge16" class="edge">
<title>140650831018624&#45;&gt;140650831019936</title>
<path fill="none" stroke="#686868" d="M231.9101,-198.9319C224.8695,-188.0139 216.2367,-174.6269 208.5649,-162.7301"/>
<polygon fill="#686868" stroke="#686868" points="211.2888,-160.4959 202.9278,-153.9887 205.4059,-164.2896 211.2888,-160.4959"/>
<text text-anchor="middle" x="230.0762" y="-174.3813" font-family="Times,serif" font-size="8.00" fill="#999999">8 (⇑6)</text>
</g>
<!-- 140650831021440 -->
<g id="node12" class="node">
<title>140650831021440</title>
<path fill="none" stroke="#000000" d="M264,-110.8906C264,-110.8906 294,-110.8906 294,-110.8906 300,-110.8906 306,-116.8906 306,-122.8906 306,-122.8906 306,-141.8906 306,-141.8906 306,-147.8906 300,-153.8906 294,-153.8906 294,-153.8906 264,-153.8906 264,-153.8906 258,-153.8906 252,-147.8906 252,-141.8906 252,-141.8906 252,-122.8906 252,-122.8906 252,-116.8906 258,-110.8906 264,-110.8906"/>
<text text-anchor="middle" x="278.9441" y="-139.4906" font-family="Times,serif" font-size="13.00" fill="#000000">fib(2)</text>
<polyline fill="none" stroke="#000000" points="252,-132.8906 305.8882,-132.8906 "/>
<text text-anchor="middle" x="278.9441" y="-117.9906" font-family="Times,serif" font-size="13.00" fill="#000000">ret: 1</text>
</g>
<!-- 140650831018624&#45;&gt;140650831021440 -->
<g id="edge17" class="edge">
<title>140650831018624&#45;&gt;140650831021440</title>
<path fill="none" stroke="#757575" d="M254.1573,-198.9319C258.1535,-188.228 263.0358,-175.1509 267.4111,-163.4316"/>
<polygon fill="#757575" stroke="#757575" points="270.7178,-164.5812 270.9365,-153.9887 264.1599,-162.1329 270.7178,-164.5812"/>
<text text-anchor="middle" x="274.0762" y="-174.3813" font-family="Times,serif" font-size="8.00" fill="#999999">9 (⇑7)</text>
</g>
<!-- 140650831029264 -->
<g id="node9" class="node">
<title>140650831029264</title>
<path fill="none" stroke="#000000" d="M466,-22.5C466,-22.5 496,-22.5 496,-22.5 502,-22.5 508,-28.5 508,-34.5 508,-34.5 508,-53.5 508,-53.5 508,-59.5 502,-65.5 496,-65.5 496,-65.5 466,-65.5 466,-65.5 460,-65.5 454,-59.5 454,-53.5 454,-53.5 454,-34.5 454,-34.5 454,-28.5 460,-22.5 466,-22.5"/>
<text text-anchor="middle" x="480.9441" y="-51.1" font-family="Times,serif" font-size="13.00" fill="#000000">fib(2)</text>
<polyline fill="none" stroke="#000000" points="454,-44.5 507.8882,-44.5 "/>
<text text-anchor="middle" x="480.9441" y="-29.6" font-family="Times,serif" font-size="13.00" fill="#000000">ret: 1</text>
</g>
<!-- 140650831026080&#45;&gt;140650831029264 -->
<g id="edge18" class="edge">
<title>140650831026080&#45;&gt;140650831029264</title>
<path fill="none" stroke="#b6b6b6" d="M450.8876,-110.5413C455.7315,-99.8374 461.6494,-86.7603 466.9528,-75.041"/>
<polygon fill="#b6b6b6" stroke="#b6b6b6" points="470.2919,-76.1516 471.2261,-65.598 463.9145,-73.2656 470.2919,-76.1516"/>
<text text-anchor="middle" x="475.9297" y="-85.9906" font-family="Times,serif" font-size="8.00" fill="#999999">14 (⇑11)</text>
</g>
<!-- 140650831027664 -->
<g id="node10" class="node">
<title>140650831027664</title>
<path fill="none" stroke="#000000" d="M376,-22.5C376,-22.5 406,-22.5 406,-22.5 412,-22.5 418,-28.5 418,-34.5 418,-34.5 418,-53.5 418,-53.5 418,-59.5 412,-65.5 406,-65.5 406,-65.5 376,-65.5 376,-65.5 370,-65.5 364,-59.5 364,-53.5 364,-53.5 364,-34.5 364,-34.5 364,-28.5 370,-22.5 376,-22.5"/>
<text text-anchor="middle" x="390.9441" y="-51.1" font-family="Times,serif" font-size="13.00" fill="#000000">fib(1)</text>
<polyline fill="none" stroke="#000000" points="364,-44.5 417.8882,-44.5 "/>
<text text-anchor="middle" x="390.9441" y="-29.6" font-family="Times,serif" font-size="13.00" fill="#000000">ret: 0</text>
</g>
<!-- 140650831026080&#45;&gt;140650831027664 -->
<g id="edge19" class="edge">
<title>140650831026080&#45;&gt;140650831027664</title>
<path fill="none" stroke="#a9a9a9" d="M428.6404,-110.5413C422.4645,-99.6233 414.8918,-86.2363 408.1622,-74.3395"/>
<polygon fill="#a9a9a9" stroke="#a9a9a9" points="411.1874,-72.5787 403.2174,-65.598 405.0946,-76.0253 411.1874,-72.5787"/>
<text text-anchor="middle" x="431.0762" y="-85.9906" font-family="Times,serif" font-size="8.00" fill="#999999">13 (⇑10)</text>
</g>
<!-- 140650830971104 -->
<g id="node15" class="node">
<title>140650830971104</title>
<path fill="none" stroke="#000000" d="M168,-376.0625C168,-376.0625 198,-376.0625 198,-376.0625 204,-376.0625 210,-382.0625 210,-388.0625 210,-388.0625 210,-407.0625 210,-407.0625 210,-413.0625 204,-419.0625 198,-419.0625 198,-419.0625 168,-419.0625 168,-419.0625 162,-419.0625 156,-413.0625 156,-407.0625 156,-407.0625 156,-388.0625 156,-388.0625 156,-382.0625 162,-376.0625 168,-376.0625"/>
<text text-anchor="middle" x="182.9441" y="-404.6625" font-family="Times,serif" font-size="13.00" fill="#000000">fib(6)</text>
<polyline fill="none" stroke="#000000" points="156,-398.0625 209.8882,-398.0625 "/>
<text text-anchor="middle" x="182.9441" y="-383.1625" font-family="Times,serif" font-size="13.00" fill="#000000">ret: 5</text>
</g>
<!-- 140650830971104&#45;&gt;140650830123600 -->
<g id="edge20" class="edge">
<title>140650830971104&#45;&gt;140650830123600</title>
<path fill="none" stroke="#0d0d0d" d="M172.1236,-375.7131C166.742,-364.9022 160.1554,-351.6704 154.2771,-339.8617"/>
<polygon fill="#0d0d0d" stroke="#0d0d0d" points="157.3409,-338.1624 149.7513,-330.7699 151.0744,-341.2818 157.3409,-338.1624"/>
<text text-anchor="middle" x="173.0762" y="-351.1625" font-family="Times,serif" font-size="8.00" fill="#999999">1 (⇑5)</text>
</g>
<!-- 140650830971104&#45;&gt;140650831017312 -->
<g id="edge21" class="edge">
<title>140650830971104&#45;&gt;140650831017312</title>
<path fill="none" stroke="#4e4e4e" d="M194.8652,-375.7131C200.736,-364.9022 207.9214,-351.6704 214.3341,-339.8617"/>
<polygon fill="#4e4e4e" stroke="#4e4e4e" points="217.5748,-341.2281 219.2713,-330.7699 211.4233,-337.8875 217.5748,-341.2281"/>
<text text-anchor="middle" x="221.0762" y="-351.1625" font-family="Times,serif" font-size="8.00" fill="#999999">6 (⇑14)</text>
</g>
</g>
</svg>
