<?xml version="1.0" encoding="UTF-8" standalone="no"?>
<!DOCTYPE svg PUBLIC "-//W3C//DTD SVG 1.1//EN"
 "http://www.w3.org/Graphics/SVG/1.1/DTD/svg11.dtd">
<!-- Generated by graphviz version 2.40.1 (20161225.0304)
 -->
<!-- Pages: 1 -->
<svg width="237pt" height="314pt"
 viewBox="0.00 0.00 237.00 313.78" xmlns="http://www.w3.org/2000/svg" xmlns:xlink="http://www.w3.org/1999/xlink">
<g id="graph0" class="graph" transform="scale(1 1) rotate(0) translate(4 309.7813)">
<polygon fill="#ffffff" stroke="transparent" points="-4,4 -4,-309.7813 233,-309.7813 233,4 -4,4"/>
<text text-anchor="middle" x="114.5" y="-6.8" font-family="Times,serif" font-size="14.00" fill="#000000">nodes=3</text>
<!-- 140332423841312 -->
<g id="node1" class="node">
<title>140332423841312</title>
<path fill="none" stroke="#000000" d="M12,-241.2813C12,-241.2813 217,-241.2813 217,-241.2813 223,-241.2813 229,-247.2813 229,-253.2813 229,-253.2813 229,-293.2813 229,-293.2813 229,-299.2813 223,-305.2813 217,-305.2813 217,-305.2813 12,-305.2813 12,-305.2813 6,-305.2813 0,-299.2813 0,-293.2813 0,-293.2813 0,-253.2813 0,-253.2813 0,-247.2813 6,-241.2813 12,-241.2813"/>
<text text-anchor="middle" x="114.3232" y="-290.8813" font-family="Times,serif" font-size="13.00" fill="#000000">flatten_in([1, [2, [3, 4]], 5],[1, 2, 3, 4, 5])</text>
<polyline fill="none" stroke="#000000" points="0,-284.2813 228.6465,-284.2813 "/>
<text text-anchor="middle" x="114.3232" y="-269.8813" font-family="Times,serif" font-size="13.00" fill="#000000">i: 5</text>
<polyline fill="none" stroke="#000000" points="0,-263.2813 228.6465,-263.2813 "/>
<text text-anchor="middle" x="114.3232" y="-248.3813" font-family="Times,serif" font-size="13.00" fill="#000000">ret: [1, 2, 3, 4, 5]</text>
</g>
<!-- 140332425550160 -->
<g id="node2" class="node">
<title>140332425550160</title>
<path fill="none" stroke="#000000" d="M29.5,-131.8906C29.5,-131.8906 199.5,-131.8906 199.5,-131.8906 205.5,-131.8906 211.5,-137.8906 211.5,-143.8906 211.5,-143.8906 211.5,-183.8906 211.5,-183.8906 211.5,-189.8906 205.5,-195.8906 199.5,-195.8906 199.5,-195.8906 29.5,-195.8906 29.5,-195.8906 23.5,-195.8906 17.5,-189.8906 17.5,-183.8906 17.5,-183.8906 17.5,-143.8906 17.5,-143.8906 17.5,-137.8906 23.5,-131.8906 29.5,-131.8906"/>
<text text-anchor="middle" x="114.4941" y="-181.4906" font-family="Times,serif" font-size="13.00" fill="#000000">flatten_in([2, [3, 4]],[1, 2, 3, 4, 5])</text>
<polyline fill="none" stroke="#000000" points="17.5,-174.8906 211.4883,-174.8906 "/>
<text text-anchor="middle" x="114.4941" y="-160.4906" font-family="Times,serif" font-size="13.00" fill="#000000">i: [3, 4]</text>
<polyline fill="none" stroke="#000000" points="17.5,-153.8906 211.4883,-153.8906 "/>
<text text-anchor="middle" x="114.4941" y="-138.9906" font-family="Times,serif" font-size="13.00" fill="#000000">ret: [1, 2, 3, 4]</text>
</g>
<!-- 140332423841312&#45;&gt;140332425550160 -->
<g id="edge1" class="edge">
<title>140332423841312&#45;&gt;140332425550160</title>
<path fill="none" stroke="#424242" d="M114.5,-241.0521C114.5,-230.2437 114.5,-218.0187 114.5,-206.5388"/>
<polygon fill="#424242" stroke="#424242" points="118.0001,-206.2674 114.5,-196.2674 111.0001,-206.2675 118.0001,-206.2674"/>
<text text-anchor="middle" x="124.5762" y="-216.3813" font-family="Times,serif" font-size="8.00" fill="#999999">1 (⇑2)</text>
</g>
<!-- 140332425553056 -->
<g id="node3" class="node">
<title>140332425553056</title>
<path fill="none" stroke="#000000" d="M40.335,-22.5C40.335,-22.5 188.665,-22.5 188.665,-22.5 194.665,-22.5 200.665,-28.5 200.665,-34.5 200.665,-34.5 200.665,-74.5 200.665,-74.5 200.665,-80.5 194.665,-86.5 188.665,-86.5 188.665,-86.5 40.335,-86.5 40.335,-86.5 34.335,-86.5 28.335,-80.5 28.335,-74.5 28.335,-74.5 28.335,-34.5 28.335,-34.5 28.335,-28.5 34.335,-22.5 40.335,-22.5"/>
<text text-anchor="middle" x="114.5" y="-72.1" font-family="Times,serif" font-size="13.00" fill="#000000">flatten_in([3, 4],[1, 2, 3, 4, 5])</text>
<polyline fill="none" stroke="#000000" points="28.335,-65.5 200.665,-65.5 "/>
<text text-anchor="middle" x="114.5" y="-51.1" font-family="Times,serif" font-size="13.00" fill="#000000">i: 4</text>
<polyline fill="none" stroke="#000000" points="28.335,-44.5 200.665,-44.5 "/>
<text text-anchor="middle" x="114.5" y="-29.6" font-family="Times,serif" font-size="13.00" fill="#000000">ret: [1, 2, 3, 4]</text>
</g>
<!-- 140332425550160&#45;&gt;140332425553056 -->
<g id="edge2" class="edge">
<title>140332425550160&#45;&gt;140332425553056</title>
<path fill="none" stroke="#848484" d="M114.5,-131.6615C114.5,-120.8531 114.5,-108.6281 114.5,-97.1481"/>
<polygon fill="#848484" stroke="#848484" points="118.0001,-96.8768 114.5,-86.8768 111.0001,-96.8768 118.0001,-96.8768"/>
<text text-anchor="middle" x="124.5762" y="-106.9906" font-family="Times,serif" font-size="8.00" fill="#999999">2 (⇑1)</text>
</g>
</g>
</svg>
