<?xml version="1.0" encoding="UTF-8" standalone="no"?>
<!DOCTYPE svg PUBLIC "-//W3C//DTD SVG 1.1//EN"
 "http://www.w3.org/Graphics/SVG/1.1/DTD/svg11.dtd">
<!-- Generated by graphviz version 2.40.1 (20161225.0304)
 -->
<!-- Pages: 1 -->
<svg width="1514pt" height="339pt"
 viewBox="0.00 0.00 1514.00 339.17" xmlns="http://www.w3.org/2000/svg" xmlns:xlink="http://www.w3.org/1999/xlink">
<g id="graph0" class="graph" transform="scale(1 1) rotate(0) translate(4 335.1719)">
<polygon fill="#ffffff" stroke="transparent" points="-4,4 -4,-335.1719 1510,-335.1719 1510,4 -4,4"/>
<text text-anchor="middle" x="753" y="-6.8" font-family="Times,serif" font-size="14.00" fill="#000000">nodes=22</text>
<!-- 140448153857344 -->
<g id="node1" class="node">
<title>140448153857344</title>
<path fill="none" stroke="#000000" d="M278,-22.5C278,-22.5 351,-22.5 351,-22.5 357,-22.5 363,-28.5 363,-34.5 363,-34.5 363,-53.5 363,-53.5 363,-59.5 357,-65.5 351,-65.5 351,-65.5 278,-65.5 278,-65.5 272,-65.5 266,-59.5 266,-53.5 266,-53.5 266,-34.5 266,-34.5 266,-28.5 272,-22.5 278,-22.5"/>
<text text-anchor="middle" x="314.26" y="-51.1" font-family="Times,serif" font-size="13.00" fill="#000000">hanoi(1,B,A,C)</text>
<polyline fill="none" stroke="#000000" points="266,-44.5 362.52,-44.5 "/>
<text text-anchor="middle" x="314.26" y="-29.6" font-family="Times,serif" font-size="13.00" fill="#000000">ret: None</text>
</g>
<!-- 140448153856032 -->
<g id="node2" class="node">
<title>140448153856032</title>
<path fill="none" stroke="#000000" d="M145,-22.5C145,-22.5 218,-22.5 218,-22.5 224,-22.5 230,-28.5 230,-34.5 230,-34.5 230,-53.5 230,-53.5 230,-59.5 224,-65.5 218,-65.5 218,-65.5 145,-65.5 145,-65.5 139,-65.5 133,-59.5 133,-53.5 133,-53.5 133,-34.5 133,-34.5 133,-28.5 139,-22.5 145,-22.5"/>
<text text-anchor="middle" x="181.26" y="-51.1" font-family="Times,serif" font-size="13.00" fill="#000000">hanoi(1,A,B,C)</text>
<polyline fill="none" stroke="#000000" points="133,-44.5 229.52,-44.5 "/>
<text text-anchor="middle" x="181.26" y="-29.6" font-family="Times,serif" font-size="13.00" fill="#000000">ret: None</text>
</g>
<!-- 140448153777920 -->
<g id="node3" class="node">
<title>140448153777920</title>
<path fill="none" stroke="#000000" d="M12,-22.5C12,-22.5 85,-22.5 85,-22.5 91,-22.5 97,-28.5 97,-34.5 97,-34.5 97,-53.5 97,-53.5 97,-59.5 91,-65.5 85,-65.5 85,-65.5 12,-65.5 12,-65.5 6,-65.5 0,-59.5 0,-53.5 0,-53.5 0,-34.5 0,-34.5 0,-28.5 6,-22.5 12,-22.5"/>
<text text-anchor="middle" x="48.26" y="-51.1" font-family="Times,serif" font-size="13.00" fill="#000000">hanoi(1,A,C,B)</text>
<polyline fill="none" stroke="#000000" points="0,-44.5 96.52,-44.5 "/>
<text text-anchor="middle" x="48.26" y="-29.6" font-family="Times,serif" font-size="13.00" fill="#000000">ret: None</text>
</g>
<!-- 140448153874320 -->
<g id="node4" class="node">
<title>140448153874320</title>
<path fill="none" stroke="#000000" d="M1040,-22.5C1040,-22.5 1113,-22.5 1113,-22.5 1119,-22.5 1125,-28.5 1125,-34.5 1125,-34.5 1125,-53.5 1125,-53.5 1125,-59.5 1119,-65.5 1113,-65.5 1113,-65.5 1040,-65.5 1040,-65.5 1034,-65.5 1028,-59.5 1028,-53.5 1028,-53.5 1028,-34.5 1028,-34.5 1028,-28.5 1034,-22.5 1040,-22.5"/>
<text text-anchor="middle" x="1076.26" y="-51.1" font-family="Times,serif" font-size="13.00" fill="#000000">hanoi(1,C,B,A)</text>
<polyline fill="none" stroke="#000000" points="1028,-44.5 1124.52,-44.5 "/>
<text text-anchor="middle" x="1076.26" y="-29.6" font-family="Times,serif" font-size="13.00" fill="#000000">ret: None</text>
</g>
<!-- 140448153872704 -->
<g id="node5" class="node">
<title>140448153872704</title>
<path fill="none" stroke="#000000" d="M907,-22.5C907,-22.5 980,-22.5 980,-22.5 986,-22.5 992,-28.5 992,-34.5 992,-34.5 992,-53.5 992,-53.5 992,-59.5 986,-65.5 980,-65.5 980,-65.5 907,-65.5 907,-65.5 901,-65.5 895,-59.5 895,-53.5 895,-53.5 895,-34.5 895,-34.5 895,-28.5 901,-22.5 907,-22.5"/>
<text text-anchor="middle" x="943.26" y="-51.1" font-family="Times,serif" font-size="13.00" fill="#000000">hanoi(1,B,C,A)</text>
<polyline fill="none" stroke="#000000" points="895,-44.5 991.52,-44.5 "/>
<text text-anchor="middle" x="943.26" y="-29.6" font-family="Times,serif" font-size="13.00" fill="#000000">ret: None</text>
</g>
<!-- 140448153871168 -->
<g id="node6" class="node">
<title>140448153871168</title>
<path fill="none" stroke="#000000" d="M774,-22.5C774,-22.5 847,-22.5 847,-22.5 853,-22.5 859,-28.5 859,-34.5 859,-34.5 859,-53.5 859,-53.5 859,-59.5 853,-65.5 847,-65.5 847,-65.5 774,-65.5 774,-65.5 768,-65.5 762,-59.5 762,-53.5 762,-53.5 762,-34.5 762,-34.5 762,-28.5 768,-22.5 774,-22.5"/>
<text text-anchor="middle" x="810.26" y="-51.1" font-family="Times,serif" font-size="13.00" fill="#000000">hanoi(1,B,A,C)</text>
<polyline fill="none" stroke="#000000" points="762,-44.5 858.52,-44.5 "/>
<text text-anchor="middle" x="810.26" y="-29.6" font-family="Times,serif" font-size="13.00" fill="#000000">ret: None</text>
</g>
<!-- 140448153869744 -->
<g id="node7" class="node">
<title>140448153869744</title>
<path fill="none" stroke="#000000" d="M900,-110.8906C900,-110.8906 973,-110.8906 973,-110.8906 979,-110.8906 985,-116.8906 985,-122.8906 985,-122.8906 985,-141.8906 985,-141.8906 985,-147.8906 979,-153.8906 973,-153.8906 973,-153.8906 900,-153.8906 900,-153.8906 894,-153.8906 888,-147.8906 888,-141.8906 888,-141.8906 888,-122.8906 888,-122.8906 888,-116.8906 894,-110.8906 900,-110.8906"/>
<text text-anchor="middle" x="936.26" y="-139.4906" font-family="Times,serif" font-size="13.00" fill="#000000">hanoi(2,B,C,A)</text>
<polyline fill="none" stroke="#000000" points="888,-132.8906 984.52,-132.8906 "/>
<text text-anchor="middle" x="936.26" y="-117.9906" font-family="Times,serif" font-size="13.00" fill="#000000">ret: None</text>
</g>
<!-- 140448153869744&#45;&gt;140448153874320 -->
<g id="edge15" class="edge">
<title>140448153869744&#45;&gt;140448153874320</title>
<path fill="none" stroke="#909090" d="M970.7479,-110.7678C989.6461,-98.8362 1013.2966,-83.9042 1033.4368,-71.1885"/>
<polygon fill="#909090" stroke="#909090" points="1035.5333,-74.0041 1042.1205,-65.7059 1031.7962,-68.0851 1035.5333,-74.0041"/>
<text text-anchor="middle" x="1024.5762" y="-85.9906" font-family="Times,serif" font-size="8.00" fill="#999999">16 (⇑14)</text>
</g>
<!-- 140448153869744&#45;&gt;140448153872704 -->
<g id="edge16" class="edge">
<title>140448153869744&#45;&gt;140448153872704</title>
<path fill="none" stroke="#878787" d="M938.2303,-110.5413C939.0611,-100.0514 940.0723,-87.2824 940.9859,-75.7458"/>
<polygon fill="#878787" stroke="#878787" points="944.4891,-75.8432 941.7896,-65.598 937.5109,-75.2905 944.4891,-75.8432"/>
<text text-anchor="middle" x="953.5762" y="-85.9906" font-family="Times,serif" font-size="8.00" fill="#999999">15 (⇑13)</text>
</g>
<!-- 140448153869744&#45;&gt;140448153871168 -->
<g id="edge17" class="edge">
<title>140448153869744&#45;&gt;140448153871168</title>
<path fill="none" stroke="#7e7e7e" d="M905.6769,-110.7678C888.8974,-98.9968 867.955,-84.3054 849.9902,-71.7029"/>
<polygon fill="#7e7e7e" stroke="#7e7e7e" points="851.6381,-68.5836 841.4416,-65.7059 847.618,-74.3142 851.6381,-68.5836"/>
<text text-anchor="middle" x="891.5762" y="-85.9906" font-family="Times,serif" font-size="8.00" fill="#999999">14 (⇑12)</text>
</g>
<!-- 140448153876064 -->
<g id="node8" class="node">
<title>140448153876064</title>
<path fill="none" stroke="#000000" d="M1033,-110.8906C1033,-110.8906 1106,-110.8906 1106,-110.8906 1112,-110.8906 1118,-116.8906 1118,-122.8906 1118,-122.8906 1118,-141.8906 1118,-141.8906 1118,-147.8906 1112,-153.8906 1106,-153.8906 1106,-153.8906 1033,-153.8906 1033,-153.8906 1027,-153.8906 1021,-147.8906 1021,-141.8906 1021,-141.8906 1021,-122.8906 1021,-122.8906 1021,-116.8906 1027,-110.8906 1033,-110.8906"/>
<text text-anchor="middle" x="1069.26" y="-139.4906" font-family="Times,serif" font-size="13.00" fill="#000000">hanoi(1,B,A,C)</text>
<polyline fill="none" stroke="#000000" points="1021,-132.8906 1117.52,-132.8906 "/>
<text text-anchor="middle" x="1069.26" y="-117.9906" font-family="Times,serif" font-size="13.00" fill="#000000">ret: None</text>
</g>
<!-- 140448153878624 -->
<g id="node9" class="node">
<title>140448153878624</title>
<path fill="none" stroke="#000000" d="M1166,-110.8906C1166,-110.8906 1239,-110.8906 1239,-110.8906 1245,-110.8906 1251,-116.8906 1251,-122.8906 1251,-122.8906 1251,-141.8906 1251,-141.8906 1251,-147.8906 1245,-153.8906 1239,-153.8906 1239,-153.8906 1166,-153.8906 1166,-153.8906 1160,-153.8906 1154,-147.8906 1154,-141.8906 1154,-141.8906 1154,-122.8906 1154,-122.8906 1154,-116.8906 1160,-110.8906 1166,-110.8906"/>
<text text-anchor="middle" x="1202.26" y="-139.4906" font-family="Times,serif" font-size="13.00" fill="#000000">hanoi(2,A,B,C)</text>
<polyline fill="none" stroke="#000000" points="1154,-132.8906 1250.52,-132.8906 "/>
<text text-anchor="middle" x="1202.26" y="-117.9906" font-family="Times,serif" font-size="13.00" fill="#000000">ret: None</text>
</g>
<!-- 140448153881728 -->
<g id="node10" class="node">
<title>140448153881728</title>
<path fill="none" stroke="#000000" d="M1288,-22.5C1288,-22.5 1361,-22.5 1361,-22.5 1367,-22.5 1373,-28.5 1373,-34.5 1373,-34.5 1373,-53.5 1373,-53.5 1373,-59.5 1367,-65.5 1361,-65.5 1361,-65.5 1288,-65.5 1288,-65.5 1282,-65.5 1276,-59.5 1276,-53.5 1276,-53.5 1276,-34.5 1276,-34.5 1276,-28.5 1282,-22.5 1288,-22.5"/>
<text text-anchor="middle" x="1324.26" y="-51.1" font-family="Times,serif" font-size="13.00" fill="#000000">hanoi(1,A,B,C)</text>
<polyline fill="none" stroke="#000000" points="1276,-44.5 1372.52,-44.5 "/>
<text text-anchor="middle" x="1324.26" y="-29.6" font-family="Times,serif" font-size="13.00" fill="#000000">ret: None</text>
</g>
<!-- 140448153878624&#45;&gt;140448153881728 -->
<g id="edge18" class="edge">
<title>140448153878624&#45;&gt;140448153881728</title>
<path fill="none" stroke="#b4b4b4" d="M1232.3446,-110.7678C1248.5915,-98.9968 1268.869,-84.3054 1286.2635,-71.7029"/>
<polygon fill="#b4b4b4" stroke="#b4b4b4" points="1288.4962,-74.4073 1294.5407,-65.7059 1284.3892,-68.7387 1288.4962,-74.4073"/>
<text text-anchor="middle" x="1280.5762" y="-85.9906" font-family="Times,serif" font-size="8.00" fill="#999999">20 (⇑18)</text>
</g>
<!-- 140448153883264 -->
<g id="node11" class="node">
<title>140448153883264</title>
<path fill="none" stroke="#000000" d="M1421,-22.5C1421,-22.5 1494,-22.5 1494,-22.5 1500,-22.5 1506,-28.5 1506,-34.5 1506,-34.5 1506,-53.5 1506,-53.5 1506,-59.5 1500,-65.5 1494,-65.5 1494,-65.5 1421,-65.5 1421,-65.5 1415,-65.5 1409,-59.5 1409,-53.5 1409,-53.5 1409,-34.5 1409,-34.5 1409,-28.5 1415,-22.5 1421,-22.5"/>
<text text-anchor="middle" x="1457.26" y="-51.1" font-family="Times,serif" font-size="13.00" fill="#000000">hanoi(1,B,A,C)</text>
<polyline fill="none" stroke="#000000" points="1409,-44.5 1505.52,-44.5 "/>
<text text-anchor="middle" x="1457.26" y="-29.6" font-family="Times,serif" font-size="13.00" fill="#000000">ret: None</text>
</g>
<!-- 140448153878624&#45;&gt;140448153883264 -->
<g id="edge19" class="edge">
<title>140448153878624&#45;&gt;140448153883264</title>
<path fill="none" stroke="#bdbdbd" d="M1251.0638,-115.557C1293.2016,-100.9507 1354.3037,-79.7709 1399.0999,-64.2432"/>
<polygon fill="#bdbdbd" stroke="#bdbdbd" points="1400.3813,-67.5034 1408.6834,-60.9213 1398.0886,-60.8895 1400.3813,-67.5034"/>
<text text-anchor="middle" x="1351.5762" y="-85.9906" font-family="Times,serif" font-size="8.00" fill="#999999">21 (⇑19)</text>
</g>
<!-- 140448153880144 -->
<g id="node12" class="node">
<title>140448153880144</title>
<path fill="none" stroke="#000000" d="M1155,-22.5C1155,-22.5 1228,-22.5 1228,-22.5 1234,-22.5 1240,-28.5 1240,-34.5 1240,-34.5 1240,-53.5 1240,-53.5 1240,-59.5 1234,-65.5 1228,-65.5 1228,-65.5 1155,-65.5 1155,-65.5 1149,-65.5 1143,-59.5 1143,-53.5 1143,-53.5 1143,-34.5 1143,-34.5 1143,-28.5 1149,-22.5 1155,-22.5"/>
<text text-anchor="middle" x="1191.26" y="-51.1" font-family="Times,serif" font-size="13.00" fill="#000000">hanoi(1,A,C,B)</text>
<polyline fill="none" stroke="#000000" points="1143,-44.5 1239.52,-44.5 "/>
<text text-anchor="middle" x="1191.26" y="-29.6" font-family="Times,serif" font-size="13.00" fill="#000000">ret: None</text>
</g>
<!-- 140448153878624&#45;&gt;140448153880144 -->
<g id="edge20" class="edge">
<title>140448153878624&#45;&gt;140448153880144</title>
<path fill="none" stroke="#ababab" d="M1199.7809,-110.5413C1198.4755,-100.0514 1196.8864,-87.2824 1195.4507,-75.7458"/>
<polygon fill="#ababab" stroke="#ababab" points="1198.8961,-75.0892 1194.1878,-65.598 1191.9497,-75.9538 1198.8961,-75.0892"/>
<text text-anchor="middle" x="1210.5762" y="-85.9906" font-family="Times,serif" font-size="8.00" fill="#999999">19 (⇑17)</text>
</g>
<!-- 140448153863616 -->
<g id="node13" class="node">
<title>140448153863616</title>
<path fill="none" stroke="#000000" d="M526,-22.5C526,-22.5 599,-22.5 599,-22.5 605,-22.5 611,-28.5 611,-34.5 611,-34.5 611,-53.5 611,-53.5 611,-59.5 605,-65.5 599,-65.5 599,-65.5 526,-65.5 526,-65.5 520,-65.5 514,-59.5 514,-53.5 514,-53.5 514,-34.5 514,-34.5 514,-28.5 520,-22.5 526,-22.5"/>
<text text-anchor="middle" x="562.26" y="-51.1" font-family="Times,serif" font-size="13.00" fill="#000000">hanoi(1,C,A,B)</text>
<polyline fill="none" stroke="#000000" points="514,-44.5 610.52,-44.5 "/>
<text text-anchor="middle" x="562.26" y="-29.6" font-family="Times,serif" font-size="13.00" fill="#000000">ret: None</text>
</g>
<!-- 140448153865168 -->
<g id="node14" class="node">
<title>140448153865168</title>
<path fill="none" stroke="#000000" d="M659,-22.5C659,-22.5 732,-22.5 732,-22.5 738,-22.5 744,-28.5 744,-34.5 744,-34.5 744,-53.5 744,-53.5 744,-59.5 738,-65.5 732,-65.5 732,-65.5 659,-65.5 659,-65.5 653,-65.5 647,-59.5 647,-53.5 647,-53.5 647,-34.5 647,-34.5 647,-28.5 653,-22.5 659,-22.5"/>
<text text-anchor="middle" x="695.26" y="-51.1" font-family="Times,serif" font-size="13.00" fill="#000000">hanoi(1,A,C,B)</text>
<polyline fill="none" stroke="#000000" points="647,-44.5 743.52,-44.5 "/>
<text text-anchor="middle" x="695.26" y="-29.6" font-family="Times,serif" font-size="13.00" fill="#000000">ret: None</text>
</g>
<!-- 140448153862048 -->
<g id="node15" class="node">
<title>140448153862048</title>
<path fill="none" stroke="#000000" d="M393,-22.5C393,-22.5 466,-22.5 466,-22.5 472,-22.5 478,-28.5 478,-34.5 478,-34.5 478,-53.5 478,-53.5 478,-59.5 472,-65.5 466,-65.5 466,-65.5 393,-65.5 393,-65.5 387,-65.5 381,-59.5 381,-53.5 381,-53.5 381,-34.5 381,-34.5 381,-28.5 387,-22.5 393,-22.5"/>
<text text-anchor="middle" x="429.26" y="-51.1" font-family="Times,serif" font-size="13.00" fill="#000000">hanoi(1,C,B,A)</text>
<polyline fill="none" stroke="#000000" points="381,-44.5 477.52,-44.5 "/>
<text text-anchor="middle" x="429.26" y="-29.6" font-family="Times,serif" font-size="13.00" fill="#000000">ret: None</text>
</g>
<!-- 140448153868208 -->
<g id="node16" class="node">
<title>140448153868208</title>
<path fill="none" stroke="#000000" d="M900,-199.2813C900,-199.2813 973,-199.2813 973,-199.2813 979,-199.2813 985,-205.2813 985,-211.2813 985,-211.2813 985,-230.2813 985,-230.2813 985,-236.2813 979,-242.2813 973,-242.2813 973,-242.2813 900,-242.2813 900,-242.2813 894,-242.2813 888,-236.2813 888,-230.2813 888,-230.2813 888,-211.2813 888,-211.2813 888,-205.2813 894,-199.2813 900,-199.2813"/>
<text text-anchor="middle" x="936.26" y="-227.8813" font-family="Times,serif" font-size="13.00" fill="#000000">hanoi(3,B,A,C)</text>
<polyline fill="none" stroke="#000000" points="888,-221.2813 984.52,-221.2813 "/>
<text text-anchor="middle" x="936.26" y="-206.3813" font-family="Times,serif" font-size="13.00" fill="#000000">ret: None</text>
</g>
<!-- 140448153868208&#45;&gt;140448153869744 -->
<g id="edge21" class="edge">
<title>140448153868208&#45;&gt;140448153869744</title>
<path fill="none" stroke="#757575" d="M936.5,-198.9319C936.5,-188.4421 936.5,-175.6731 936.5,-164.1364"/>
<polygon fill="#757575" stroke="#757575" points="940.0001,-163.9886 936.5,-153.9887 933.0001,-163.9887 940.0001,-163.9886"/>
<text text-anchor="middle" x="950.5762" y="-174.3813" font-family="Times,serif" font-size="8.00" fill="#999999">13 (⇑15)</text>
</g>
<!-- 140448153868208&#45;&gt;140448153876064 -->
<g id="edge22" class="edge">
<title>140448153868208&#45;&gt;140448153876064</title>
<path fill="none" stroke="#999999" d="M969.0355,-199.1585C986.9083,-187.2804 1009.2554,-172.4287 1028.3323,-159.7503"/>
<polygon fill="#999999" stroke="#999999" points="1030.4483,-162.5466 1036.8395,-154.0965 1026.5737,-156.7166 1030.4483,-162.5466"/>
<text text-anchor="middle" x="1020.5762" y="-174.3813" font-family="Times,serif" font-size="8.00" fill="#999999">17 (⇑16)</text>
</g>
<!-- 140448153868208&#45;&gt;140448153878624 -->
<g id="edge23" class="edge">
<title>140448153868208&#45;&gt;140448153878624</title>
<path fill="none" stroke="#a2a2a2" d="M985.2885,-204.569C1030.0497,-189.6951 1096.4291,-167.6375 1144.0165,-151.8244"/>
<polygon fill="#a2a2a2" stroke="#a2a2a2" points="1145.1851,-155.1244 1153.5711,-148.6495 1142.9776,-148.4815 1145.1851,-155.1244"/>
<text text-anchor="middle" x="1090.5762" y="-174.3813" font-family="Times,serif" font-size="8.00" fill="#999999">18 (⇑20)</text>
</g>
<!-- 140448153866720 -->
<g id="node17" class="node">
<title>140448153866720</title>
<path fill="none" stroke="#000000" d="M717,-199.2813C717,-199.2813 790,-199.2813 790,-199.2813 796,-199.2813 802,-205.2813 802,-211.2813 802,-211.2813 802,-230.2813 802,-230.2813 802,-236.2813 796,-242.2813 790,-242.2813 790,-242.2813 717,-242.2813 717,-242.2813 711,-242.2813 705,-236.2813 705,-230.2813 705,-230.2813 705,-211.2813 705,-211.2813 705,-205.2813 711,-199.2813 717,-199.2813"/>
<text text-anchor="middle" x="753.26" y="-227.8813" font-family="Times,serif" font-size="13.00" fill="#000000">hanoi(1,A,B,C)</text>
<polyline fill="none" stroke="#000000" points="705,-221.2813 801.52,-221.2813 "/>
<text text-anchor="middle" x="753.26" y="-206.3813" font-family="Times,serif" font-size="13.00" fill="#000000">ret: None</text>
</g>
<!-- 140448152964336 -->
<g id="node18" class="node">
<title>140448152964336</title>
<path fill="none" stroke="#000000" d="M531,-199.2813C531,-199.2813 604,-199.2813 604,-199.2813 610,-199.2813 616,-205.2813 616,-211.2813 616,-211.2813 616,-230.2813 616,-230.2813 616,-236.2813 610,-242.2813 604,-242.2813 604,-242.2813 531,-242.2813 531,-242.2813 525,-242.2813 519,-236.2813 519,-230.2813 519,-230.2813 519,-211.2813 519,-211.2813 519,-205.2813 525,-199.2813 531,-199.2813"/>
<text text-anchor="middle" x="567.26" y="-227.8813" font-family="Times,serif" font-size="13.00" fill="#000000">hanoi(3,A,C,B)</text>
<polyline fill="none" stroke="#000000" points="519,-221.2813 615.52,-221.2813 "/>
<text text-anchor="middle" x="567.26" y="-206.3813" font-family="Times,serif" font-size="13.00" fill="#000000">ret: None</text>
</g>
<!-- 140448153851296 -->
<g id="node19" class="node">
<title>140448153851296</title>
<path fill="none" stroke="#000000" d="M265,-110.8906C265,-110.8906 338,-110.8906 338,-110.8906 344,-110.8906 350,-116.8906 350,-122.8906 350,-122.8906 350,-141.8906 350,-141.8906 350,-147.8906 344,-153.8906 338,-153.8906 338,-153.8906 265,-153.8906 265,-153.8906 259,-153.8906 253,-147.8906 253,-141.8906 253,-141.8906 253,-122.8906 253,-122.8906 253,-116.8906 259,-110.8906 265,-110.8906"/>
<text text-anchor="middle" x="301.26" y="-139.4906" font-family="Times,serif" font-size="13.00" fill="#000000">hanoi(2,A,B,C)</text>
<polyline fill="none" stroke="#000000" points="253,-132.8906 349.52,-132.8906 "/>
<text text-anchor="middle" x="301.26" y="-117.9906" font-family="Times,serif" font-size="13.00" fill="#000000">ret: None</text>
</g>
<!-- 140448152964336&#45;&gt;140448153851296 -->
<g id="edge24" class="edge">
<title>140448152964336&#45;&gt;140448153851296</title>
<path fill="none" stroke="#121212" d="M518.7115,-204.569C473.9503,-189.6951 407.5709,-167.6375 359.9835,-151.8244"/>
<polygon fill="#121212" stroke="#121212" points="361.0224,-148.4815 350.4289,-148.6495 358.8149,-155.1244 361.0224,-148.4815"/>
<text text-anchor="middle" x="452.5762" y="-174.3813" font-family="Times,serif" font-size="8.00" fill="#999999">2 (⇑4)</text>
</g>
<!-- 140448153859424 -->
<g id="node20" class="node">
<title>140448153859424</title>
<path fill="none" stroke="#000000" d="M398,-110.8906C398,-110.8906 471,-110.8906 471,-110.8906 477,-110.8906 483,-116.8906 483,-122.8906 483,-122.8906 483,-141.8906 483,-141.8906 483,-147.8906 477,-153.8906 471,-153.8906 471,-153.8906 398,-153.8906 398,-153.8906 392,-153.8906 386,-147.8906 386,-141.8906 386,-141.8906 386,-122.8906 386,-122.8906 386,-116.8906 392,-110.8906 398,-110.8906"/>
<text text-anchor="middle" x="434.26" y="-139.4906" font-family="Times,serif" font-size="13.00" fill="#000000">hanoi(1,A,C,B)</text>
<polyline fill="none" stroke="#000000" points="386,-132.8906 482.52,-132.8906 "/>
<text text-anchor="middle" x="434.26" y="-117.9906" font-family="Times,serif" font-size="13.00" fill="#000000">ret: None</text>
</g>
<!-- 140448152964336&#45;&gt;140448153859424 -->
<g id="edge25" class="edge">
<title>140448152964336&#45;&gt;140448153859424</title>
<path fill="none" stroke="#363636" d="M534.9645,-199.1585C517.0917,-187.2804 494.7446,-172.4287 475.6677,-159.7503"/>
<polygon fill="#363636" stroke="#363636" points="477.4263,-156.7166 467.1605,-154.0965 473.5517,-162.5466 477.4263,-156.7166"/>
<text text-anchor="middle" x="515.5762" y="-174.3813" font-family="Times,serif" font-size="8.00" fill="#999999">6 (⇑5)</text>
</g>
<!-- 140448153860736 -->
<g id="node21" class="node">
<title>140448153860736</title>
<path fill="none" stroke="#000000" d="M531,-110.8906C531,-110.8906 604,-110.8906 604,-110.8906 610,-110.8906 616,-116.8906 616,-122.8906 616,-122.8906 616,-141.8906 616,-141.8906 616,-147.8906 610,-153.8906 604,-153.8906 604,-153.8906 531,-153.8906 531,-153.8906 525,-153.8906 519,-147.8906 519,-141.8906 519,-141.8906 519,-122.8906 519,-122.8906 519,-116.8906 525,-110.8906 531,-110.8906"/>
<text text-anchor="middle" x="567.26" y="-139.4906" font-family="Times,serif" font-size="13.00" fill="#000000">hanoi(2,C,A,B)</text>
<polyline fill="none" stroke="#000000" points="519,-132.8906 615.52,-132.8906 "/>
<text text-anchor="middle" x="567.26" y="-117.9906" font-family="Times,serif" font-size="13.00" fill="#000000">ret: None</text>
</g>
<!-- 140448152964336&#45;&gt;140448153860736 -->
<g id="edge26" class="edge">
<title>140448152964336&#45;&gt;140448153860736</title>
<path fill="none" stroke="#3f3f3f" d="M567.5,-198.9319C567.5,-188.4421 567.5,-175.6731 567.5,-164.1364"/>
<polygon fill="#3f3f3f" stroke="#3f3f3f" points="571.0001,-163.9886 567.5,-153.9887 564.0001,-163.9887 571.0001,-163.9886"/>
<text text-anchor="middle" x="577.5762" y="-174.3813" font-family="Times,serif" font-size="8.00" fill="#999999">7 (⇑9)</text>
</g>
<!-- 140448153851296&#45;&gt;140448153857344 -->
<g id="edge27" class="edge">
<title>140448153851296&#45;&gt;140448153857344</title>
<path fill="none" stroke="#2d2d2d" d="M304.7135,-110.5413C306.2563,-100.0514 308.1343,-87.2824 309.831,-75.7458"/>
<polygon fill="#2d2d2d" stroke="#2d2d2d" points="313.3311,-76.0009 311.3235,-65.598 306.4056,-74.9823 313.3311,-76.0009"/>
<text text-anchor="middle" x="318.5762" y="-85.9906" font-family="Times,serif" font-size="8.00" fill="#999999">5 (⇑3)</text>
</g>
<!-- 140448153851296&#45;&gt;140448153856032 -->
<g id="edge28" class="edge">
<title>140448153851296&#45;&gt;140448153856032</title>
<path fill="none" stroke="#242424" d="M272.1447,-110.7678C256.1641,-98.9968 236.219,-84.3054 219.1097,-71.7029"/>
<polygon fill="#242424" stroke="#242424" points="221.0954,-68.8186 210.9681,-65.7059 216.944,-74.4546 221.0954,-68.8186"/>
<text text-anchor="middle" x="255.5762" y="-85.9906" font-family="Times,serif" font-size="8.00" fill="#999999">4 (⇑2)</text>
</g>
<!-- 140448153851296&#45;&gt;140448153777920 -->
<g id="edge29" class="edge">
<title>140448153851296&#45;&gt;140448153777920</title>
<path fill="none" stroke="#1b1b1b" d="M252.7191,-115.348C210.981,-100.766 150.8132,-79.7452 106.5938,-64.2962"/>
<polygon fill="#1b1b1b" stroke="#1b1b1b" points="107.726,-60.9844 97.1312,-60.9903 105.4172,-67.5927 107.726,-60.9844"/>
<text text-anchor="middle" x="193.5762" y="-85.9906" font-family="Times,serif" font-size="8.00" fill="#999999">3 (⇑1)</text>
</g>
<!-- 140448153860736&#45;&gt;140448153863616 -->
<g id="edge30" class="edge">
<title>140448153860736&#45;&gt;140448153863616</title>
<path fill="none" stroke="#515151" d="M566.264,-110.5413C565.6707,-100.0514 564.9484,-87.2824 564.2958,-75.7458"/>
<polygon fill="#515151" stroke="#515151" points="567.781,-75.3844 563.7217,-65.598 560.7922,-75.7798 567.781,-75.3844"/>
<text text-anchor="middle" x="575.5762" y="-85.9906" font-family="Times,serif" font-size="8.00" fill="#999999">9 (⇑7)</text>
</g>
<!-- 140448153860736&#45;&gt;140448153865168 -->
<g id="edge31" class="edge">
<title>140448153860736&#45;&gt;140448153865168</title>
<path fill="none" stroke="#5a5a5a" d="M598.8123,-110.7678C615.8582,-98.9968 637.1331,-84.3054 655.383,-71.7029"/>
<polygon fill="#5a5a5a" stroke="#5a5a5a" points="657.8274,-74.2683 664.0673,-65.7059 653.8498,-68.5082 657.8274,-74.2683"/>
<text text-anchor="middle" x="647.5762" y="-85.9906" font-family="Times,serif" font-size="8.00" fill="#999999">10 (⇑8)</text>
</g>
<!-- 140448153860736&#45;&gt;140448153862048 -->
<g id="edge32" class="edge">
<title>140448153860736&#45;&gt;140448153862048</title>
<path fill="none" stroke="#484848" d="M533.7414,-110.7678C515.1132,-98.8362 491.8005,-83.9042 471.9481,-71.1885"/>
<polygon fill="#484848" stroke="#484848" points="473.6969,-68.1523 463.3884,-65.7059 469.9214,-74.0468 473.6969,-68.1523"/>
<text text-anchor="middle" x="513.5762" y="-85.9906" font-family="Times,serif" font-size="8.00" fill="#999999">8 (⇑6)</text>
</g>
<!-- 140448153813216 -->
<g id="node22" class="node">
<title>140448153813216</title>
<path fill="none" stroke="#000000" d="M733,-287.6719C733,-287.6719 774,-287.6719 774,-287.6719 780,-287.6719 786,-293.6719 786,-299.6719 786,-299.6719 786,-318.6719 786,-318.6719 786,-324.6719 780,-330.6719 774,-330.6719 774,-330.6719 733,-330.6719 733,-330.6719 727,-330.6719 721,-324.6719 721,-318.6719 721,-318.6719 721,-299.6719 721,-299.6719 721,-293.6719 727,-287.6719 733,-287.6719"/>
<text text-anchor="middle" x="753.3655" y="-316.2719" font-family="Times,serif" font-size="13.00" fill="#000000">hanoi(4)</text>
<polyline fill="none" stroke="#000000" points="721,-309.6719 785.731,-309.6719 "/>
<text text-anchor="middle" x="753.3655" y="-294.7719" font-family="Times,serif" font-size="13.00" fill="#000000">ret: None</text>
</g>
<!-- 140448153813216&#45;&gt;140448153868208 -->
<g id="edge33" class="edge">
<title>140448153813216&#45;&gt;140448153868208</title>
<path fill="none" stroke="#6c6c6c" d="M786.2167,-293.3694C812.9779,-280.4435 851.3729,-261.8984 882.655,-246.7888"/>
<polygon fill="#6c6c6c" stroke="#6c6c6c" points="884.2105,-249.9245 891.6929,-242.4235 881.166,-243.6212 884.2105,-249.9245"/>
<text text-anchor="middle" x="864.5762" y="-262.7719" font-family="Times,serif" font-size="8.00" fill="#999999">12 (⇑21)</text>
</g>
<!-- 140448153813216&#45;&gt;140448153866720 -->
<g id="edge34" class="edge">
<title>140448153813216&#45;&gt;140448153866720</title>
<path fill="none" stroke="#636363" d="M753.5,-287.3225C753.5,-276.8327 753.5,-264.0637 753.5,-252.527"/>
<polygon fill="#636363" stroke="#636363" points="757.0001,-252.3793 753.5,-242.3793 750.0001,-252.3793 757.0001,-252.3793"/>
<text text-anchor="middle" x="767.2832" y="-262.7719" font-family="Times,serif" font-size="8.00" fill="#999999">11 (⇑11)</text>
</g>
<!-- 140448153813216&#45;&gt;140448152964336 -->
<g id="edge35" class="edge">
<title>140448153813216&#45;&gt;140448152964336</title>
<path fill="none" stroke="#090909" d="M720.6751,-293.5729C693.4328,-280.6268 654.1179,-261.9437 622.1399,-246.7471"/>
<polygon fill="#090909" stroke="#090909" points="623.4374,-243.4887 612.9031,-242.3576 620.4329,-249.8111 623.4374,-243.4887"/>
<text text-anchor="middle" x="678.5762" y="-262.7719" font-family="Times,serif" font-size="8.00" fill="#999999">1 (⇑10)</text>
</g>
</g>
</svg>
