<?xml version="1.0" encoding="UTF-8" standalone="no"?>
<!DOCTYPE svg PUBLIC "-//W3C//DTD SVG 1.1//EN"
 "http://www.w3.org/Graphics/SVG/1.1/DTD/svg11.dtd">
<!-- Generated by graphviz version 2.40.1 (20161225.0304)
 -->
<!-- Pages: 1 -->
<svg width="428pt" height="339pt"
 viewBox="0.00 0.00 428.22 339.17" xmlns="http://www.w3.org/2000/svg" xmlns:xlink="http://www.w3.org/1999/xlink">
<g id="graph0" class="graph" transform="scale(1 1) rotate(0) translate(4 335.1719)">
<polygon fill="#ffffff" stroke="transparent" points="-4,4 -4,-335.1719 424.2246,-335.1719 424.2246,4 -4,4"/>
<text text-anchor="middle" x="210.1123" y="-6.8" font-family="Times,serif" font-size="14.00" fill="#000000">nodes=9</text>
<!-- 140293819354848 -->
<g id="node1" class="node">
<title>140293819354848</title>
<path fill="none" stroke="#000000" d="M159.1123,-199.2813C159.1123,-199.2813 252.1123,-199.2813 252.1123,-199.2813 258.1123,-199.2813 264.1123,-205.2813 264.1123,-211.2813 264.1123,-211.2813 264.1123,-230.2813 264.1123,-230.2813 264.1123,-236.2813 258.1123,-242.2813 252.1123,-242.2813 252.1123,-242.2813 159.1123,-242.2813 159.1123,-242.2813 153.1123,-242.2813 147.1123,-236.2813 147.1123,-230.2813 147.1123,-230.2813 147.1123,-211.2813 147.1123,-211.2813 147.1123,-205.2813 153.1123,-199.2813 159.1123,-199.2813"/>
<text text-anchor="middle" x="205.4746" y="-227.8813" font-family="Times,serif" font-size="13.00" fill="#000000">dfs_uniq([1],[1, 2])</text>
<polyline fill="none" stroke="#000000" points="147.1123,-221.2813 263.8369,-221.2813 "/>
<text text-anchor="middle" x="205.4746" y="-206.3813" font-family="Times,serif" font-size="13.00" fill="#000000">ret: None</text>
</g>
<!-- 140293820249440 -->
<g id="node2" class="node">
<title>140293820249440</title>
<path fill="none" stroke="#000000" d="M312.1123,-199.2813C312.1123,-199.2813 405.1123,-199.2813 405.1123,-199.2813 411.1123,-199.2813 417.1123,-205.2813 417.1123,-211.2813 417.1123,-211.2813 417.1123,-230.2813 417.1123,-230.2813 417.1123,-236.2813 411.1123,-242.2813 405.1123,-242.2813 405.1123,-242.2813 312.1123,-242.2813 312.1123,-242.2813 306.1123,-242.2813 300.1123,-236.2813 300.1123,-230.2813 300.1123,-230.2813 300.1123,-211.2813 300.1123,-211.2813 300.1123,-205.2813 306.1123,-199.2813 312.1123,-199.2813"/>
<text text-anchor="middle" x="358.4746" y="-227.8813" font-family="Times,serif" font-size="13.00" fill="#000000">dfs_uniq([2],[1, 1])</text>
<polyline fill="none" stroke="#000000" points="300.1123,-221.2813 416.8369,-221.2813 "/>
<text text-anchor="middle" x="358.4746" y="-206.3813" font-family="Times,serif" font-size="13.00" fill="#000000">ret: None</text>
</g>
<!-- 140293820246048 -->
<g id="node3" class="node">
<title>140293820246048</title>
<path fill="none" stroke="#000000" d="M168.1123,-110.8906C168.1123,-110.8906 261.1123,-110.8906 261.1123,-110.8906 267.1123,-110.8906 273.1123,-116.8906 273.1123,-122.8906 273.1123,-122.8906 273.1123,-141.8906 273.1123,-141.8906 273.1123,-147.8906 267.1123,-153.8906 261.1123,-153.8906 261.1123,-153.8906 168.1123,-153.8906 168.1123,-153.8906 162.1123,-153.8906 156.1123,-147.8906 156.1123,-141.8906 156.1123,-141.8906 156.1123,-122.8906 156.1123,-122.8906 156.1123,-116.8906 162.1123,-110.8906 168.1123,-110.8906"/>
<text text-anchor="middle" x="214.4746" y="-139.4906" font-family="Times,serif" font-size="13.00" fill="#000000">dfs_uniq([1, 2],[1])</text>
<polyline fill="none" stroke="#000000" points="156.1123,-132.8906 272.8369,-132.8906 "/>
<text text-anchor="middle" x="214.4746" y="-117.9906" font-family="Times,serif" font-size="13.00" fill="#000000">ret: None</text>
</g>
<!-- 140293819354848&#45;&gt;140293820246048 -->
<g id="edge3" class="edge">
<title>140293819354848&#45;&gt;140293820246048</title>
<path fill="none" stroke="#585858" d="M207.837,-198.9319C208.9051,-188.4421 210.2053,-175.6731 211.3799,-164.1364"/>
<polygon fill="#585858" stroke="#585858" points="214.8821,-164.2918 212.4132,-153.9887 207.9181,-163.5827 214.8821,-164.2918"/>
<text text-anchor="middle" x="220.6885" y="-174.3813" font-family="Times,serif" font-size="8.00" fill="#999999">4 (⇑4)</text>
</g>
<!-- 140293820241312 -->
<g id="node4" class="node">
<title>140293820241312</title>
<path fill="none" stroke="#000000" d="M15.1123,-110.8906C15.1123,-110.8906 108.1123,-110.8906 108.1123,-110.8906 114.1123,-110.8906 120.1123,-116.8906 120.1123,-122.8906 120.1123,-122.8906 120.1123,-141.8906 120.1123,-141.8906 120.1123,-147.8906 114.1123,-153.8906 108.1123,-153.8906 108.1123,-153.8906 15.1123,-153.8906 15.1123,-153.8906 9.1123,-153.8906 3.1123,-147.8906 3.1123,-141.8906 3.1123,-141.8906 3.1123,-122.8906 3.1123,-122.8906 3.1123,-116.8906 9.1123,-110.8906 15.1123,-110.8906"/>
<text text-anchor="middle" x="61.4746" y="-139.4906" font-family="Times,serif" font-size="13.00" fill="#000000">dfs_uniq([1, 1],[2])</text>
<polyline fill="none" stroke="#000000" points="3.1123,-132.8906 119.8369,-132.8906 "/>
<text text-anchor="middle" x="61.4746" y="-117.9906" font-family="Times,serif" font-size="13.00" fill="#000000">ret: None</text>
</g>
<!-- 140293819354848&#45;&gt;140293820241312 -->
<g id="edge4" class="edge">
<title>140293819354848&#45;&gt;140293820241312</title>
<path fill="none" stroke="#2c2c2c" d="M170.3859,-199.1585C150.8606,-187.1734 126.4032,-172.1608 105.6275,-159.4082"/>
<polygon fill="#2c2c2c" stroke="#2c2c2c" points="107.3276,-156.345 96.9741,-154.0965 103.6656,-162.3108 107.3276,-156.345"/>
<text text-anchor="middle" x="148.6885" y="-174.3813" font-family="Times,serif" font-size="8.00" fill="#999999">2 (⇑2)</text>
</g>
<!-- 140293820250752 -->
<g id="node5" class="node">
<title>140293820250752</title>
<path fill="none" stroke="#000000" d="M312.1123,-110.8906C312.1123,-110.8906 405.1123,-110.8906 405.1123,-110.8906 411.1123,-110.8906 417.1123,-116.8906 417.1123,-122.8906 417.1123,-122.8906 417.1123,-141.8906 417.1123,-141.8906 417.1123,-147.8906 411.1123,-153.8906 405.1123,-153.8906 405.1123,-153.8906 312.1123,-153.8906 312.1123,-153.8906 306.1123,-153.8906 300.1123,-147.8906 300.1123,-141.8906 300.1123,-141.8906 300.1123,-122.8906 300.1123,-122.8906 300.1123,-116.8906 306.1123,-110.8906 312.1123,-110.8906"/>
<text text-anchor="middle" x="358.4746" y="-139.4906" font-family="Times,serif" font-size="13.00" fill="#000000">dfs_uniq([2, 1],[1])</text>
<polyline fill="none" stroke="#000000" points="300.1123,-132.8906 416.8369,-132.8906 "/>
<text text-anchor="middle" x="358.4746" y="-117.9906" font-family="Times,serif" font-size="13.00" fill="#000000">ret: None</text>
</g>
<!-- 140293820249440&#45;&gt;140293820250752 -->
<g id="edge5" class="edge">
<title>140293820249440&#45;&gt;140293820250752</title>
<path fill="none" stroke="#9a9a9a" d="M358.6123,-198.9319C358.6123,-188.4421 358.6123,-175.6731 358.6123,-164.1364"/>
<polygon fill="#9a9a9a" stroke="#9a9a9a" points="362.1124,-163.9886 358.6123,-153.9887 355.1124,-163.9887 362.1124,-163.9886"/>
<text text-anchor="middle" x="368.6885" y="-174.3813" font-family="Times,serif" font-size="8.00" fill="#999999">7 (⇑7)</text>
</g>
<!-- 140293820247360 -->
<g id="node6" class="node">
<title>140293820247360</title>
<path fill="none" stroke="#000000" d="M165,-22.5C165,-22.5 264.2246,-22.5 264.2246,-22.5 270.2246,-22.5 276.2246,-28.5 276.2246,-34.5 276.2246,-34.5 276.2246,-53.5 276.2246,-53.5 276.2246,-59.5 270.2246,-65.5 264.2246,-65.5 264.2246,-65.5 165,-65.5 165,-65.5 159,-65.5 153,-59.5 153,-53.5 153,-53.5 153,-34.5 153,-34.5 153,-28.5 159,-22.5 165,-22.5"/>
<text text-anchor="middle" x="214.6123" y="-51.1" font-family="Times,serif" font-size="13.00" fill="#000000">dfs_uniq([1, 2, 1],[])</text>
<polyline fill="none" stroke="#000000" points="153,-44.5 276.2246,-44.5 "/>
<text text-anchor="middle" x="214.6123" y="-29.6" font-family="Times,serif" font-size="13.00" fill="#000000">ret: None</text>
</g>
<!-- 140293820246048&#45;&gt;140293820247360 -->
<g id="edge6" class="edge">
<title>140293820246048&#45;&gt;140293820247360</title>
<path fill="none" stroke="#6e6e6e" d="M214.6123,-110.5413C214.6123,-100.0514 214.6123,-87.2824 214.6123,-75.7458"/>
<polygon fill="#6e6e6e" stroke="#6e6e6e" points="218.1124,-75.598 214.6123,-65.598 211.1124,-75.5981 218.1124,-75.598"/>
<text text-anchor="middle" x="224.6885" y="-85.9906" font-family="Times,serif" font-size="8.00" fill="#999999">5 (⇑3)</text>
</g>
<!-- 140293820167936 -->
<g id="node7" class="node">
<title>140293820167936</title>
<path fill="none" stroke="#000000" d="M12,-22.5C12,-22.5 111.2246,-22.5 111.2246,-22.5 117.2246,-22.5 123.2246,-28.5 123.2246,-34.5 123.2246,-34.5 123.2246,-53.5 123.2246,-53.5 123.2246,-59.5 117.2246,-65.5 111.2246,-65.5 111.2246,-65.5 12,-65.5 12,-65.5 6,-65.5 0,-59.5 0,-53.5 0,-53.5 0,-34.5 0,-34.5 0,-28.5 6,-22.5 12,-22.5"/>
<text text-anchor="middle" x="61.6123" y="-51.1" font-family="Times,serif" font-size="13.00" fill="#000000">dfs_uniq([1, 1, 2],[])</text>
<polyline fill="none" stroke="#000000" points="0,-44.5 123.2246,-44.5 "/>
<text text-anchor="middle" x="61.6123" y="-29.6" font-family="Times,serif" font-size="13.00" fill="#000000">ret: None</text>
</g>
<!-- 140293820241312&#45;&gt;140293820167936 -->
<g id="edge7" class="edge">
<title>140293820241312&#45;&gt;140293820167936</title>
<path fill="none" stroke="#424242" d="M61.6123,-110.5413C61.6123,-100.0514 61.6123,-87.2824 61.6123,-75.7458"/>
<polygon fill="#424242" stroke="#424242" points="65.1124,-75.598 61.6123,-65.598 58.1124,-75.5981 65.1124,-75.598"/>
<text text-anchor="middle" x="71.6885" y="-85.9906" font-family="Times,serif" font-size="8.00" fill="#999999">3 (⇑1)</text>
</g>
<!-- 140293820252064 -->
<g id="node8" class="node">
<title>140293820252064</title>
<path fill="none" stroke="#000000" d="M309,-22.5C309,-22.5 408.2246,-22.5 408.2246,-22.5 414.2246,-22.5 420.2246,-28.5 420.2246,-34.5 420.2246,-34.5 420.2246,-53.5 420.2246,-53.5 420.2246,-59.5 414.2246,-65.5 408.2246,-65.5 408.2246,-65.5 309,-65.5 309,-65.5 303,-65.5 297,-59.5 297,-53.5 297,-53.5 297,-34.5 297,-34.5 297,-28.5 303,-22.5 309,-22.5"/>
<text text-anchor="middle" x="358.6123" y="-51.1" font-family="Times,serif" font-size="13.00" fill="#000000">dfs_uniq([2, 1, 1],[])</text>
<polyline fill="none" stroke="#000000" points="297,-44.5 420.2246,-44.5 "/>
<text text-anchor="middle" x="358.6123" y="-29.6" font-family="Times,serif" font-size="13.00" fill="#000000">ret: None</text>
</g>
<!-- 140293820250752&#45;&gt;140293820252064 -->
<g id="edge8" class="edge">
<title>140293820250752&#45;&gt;140293820252064</title>
<path fill="none" stroke="#b0b0b0" d="M358.6123,-110.5413C358.6123,-100.0514 358.6123,-87.2824 358.6123,-75.7458"/>
<polygon fill="#b0b0b0" stroke="#b0b0b0" points="362.1124,-75.598 358.6123,-65.598 355.1124,-75.5981 362.1124,-75.598"/>
<text text-anchor="middle" x="368.6885" y="-85.9906" font-family="Times,serif" font-size="8.00" fill="#999999">8 (⇑6)</text>
</g>
<!-- 140293820203232 -->
<g id="node9" class="node">
<title>140293820203232</title>
<path fill="none" stroke="#000000" d="M232,-287.6719C232,-287.6719 331.2246,-287.6719 331.2246,-287.6719 337.2246,-287.6719 343.2246,-293.6719 343.2246,-299.6719 343.2246,-299.6719 343.2246,-318.6719 343.2246,-318.6719 343.2246,-324.6719 337.2246,-330.6719 331.2246,-330.6719 331.2246,-330.6719 232,-330.6719 232,-330.6719 226,-330.6719 220,-324.6719 220,-318.6719 220,-318.6719 220,-299.6719 220,-299.6719 220,-293.6719 226,-287.6719 232,-287.6719"/>
<text text-anchor="middle" x="281.6123" y="-316.2719" font-family="Times,serif" font-size="13.00" fill="#000000">dfs_uniq([],[1, 1, 2])</text>
<polyline fill="none" stroke="#000000" points="220,-309.6719 343.2246,-309.6719 "/>
<text text-anchor="middle" x="281.6123" y="-294.7719" font-family="Times,serif" font-size="13.00" fill="#000000">ret: None</text>
</g>
<!-- 140293820203232&#45;&gt;140293819354848 -->
<g id="edge9" class="edge">
<title>140293820203232&#45;&gt;140293819354848</title>
<path fill="none" stroke="#161616" d="M262.8258,-287.3225C253.1622,-276.0834 241.249,-262.2279 230.7997,-250.075"/>
<polygon fill="#161616" stroke="#161616" points="233.3563,-247.68 224.1827,-242.3793 228.0485,-252.2437 233.3563,-247.68"/>
<text text-anchor="middle" x="256.6885" y="-262.7719" font-family="Times,serif" font-size="8.00" fill="#999999">1 (⇑5)</text>
</g>
<!-- 140293820203232&#45;&gt;140293820249440 -->
<g id="edge10" class="edge">
<title>140293820203232&#45;&gt;140293820249440</title>
<path fill="none" stroke="#848484" d="M300.646,-287.3225C310.4368,-276.0834 322.5067,-262.2279 333.0935,-250.075"/>
<polygon fill="#848484" stroke="#848484" points="335.8681,-252.2185 339.7975,-242.3793 330.5899,-247.6205 335.8681,-252.2185"/>
<text text-anchor="middle" x="332.6885" y="-262.7719" font-family="Times,serif" font-size="8.00" fill="#999999">6 (⇑8)</text>
</g>
</g>
</svg>
