<?xml version="1.0" encoding="UTF-8" standalone="no"?>
<!DOCTYPE svg PUBLIC "-//W3C//DTD SVG 1.1//EN"
 "http://www.w3.org/Graphics/SVG/1.1/DTD/svg11.dtd">
<!-- Generated by graphviz version 2.40.1 (20161225.0304)
 -->
<!-- Pages: 1 -->
<svg width="681pt" height="339pt"
 viewBox="0.00 0.00 681.00 339.17" xmlns="http://www.w3.org/2000/svg" xmlns:xlink="http://www.w3.org/1999/xlink">
<g id="graph0" class="graph" transform="scale(1 1) rotate(0) translate(4 335.1719)">
<polygon fill="#ffffff" stroke="transparent" points="-4,4 -4,-335.1719 677,-335.1719 677,4 -4,4"/>
<text text-anchor="middle" x="336.5" y="-6.8" font-family="Times,serif" font-size="14.00" fill="#000000">nodes=16</text>
<!-- 140383485186016 -->
<g id="node1" class="node">
<title>140383485186016</title>
<path fill="none" stroke="#000000" d="M167.4436,-199.2813C167.4436,-199.2813 230.5564,-199.2813 230.5564,-199.2813 236.5564,-199.2813 242.5564,-205.2813 242.5564,-211.2813 242.5564,-211.2813 242.5564,-230.2813 242.5564,-230.2813 242.5564,-236.2813 236.5564,-242.2813 230.5564,-242.2813 230.5564,-242.2813 167.4436,-242.2813 167.4436,-242.2813 161.4436,-242.2813 155.4436,-236.2813 155.4436,-230.2813 155.4436,-230.2813 155.4436,-211.2813 155.4436,-211.2813 155.4436,-205.2813 161.4436,-199.2813 167.4436,-199.2813"/>
<text text-anchor="middle" x="199" y="-227.8813" font-family="Times,serif" font-size="13.00" fill="#000000">dfs([1],[2, 3])</text>
<polyline fill="none" stroke="#000000" points="155.4436,-221.2813 242.5564,-221.2813 "/>
<text text-anchor="middle" x="199" y="-206.3813" font-family="Times,serif" font-size="13.00" fill="#000000">ret: None</text>
</g>
<!-- 140383485354128 -->
<g id="node2" class="node">
<title>140383485354128</title>
<path fill="none" stroke="#000000" d="M303.4436,-199.2813C303.4436,-199.2813 366.5564,-199.2813 366.5564,-199.2813 372.5564,-199.2813 378.5564,-205.2813 378.5564,-211.2813 378.5564,-211.2813 378.5564,-230.2813 378.5564,-230.2813 378.5564,-236.2813 372.5564,-242.2813 366.5564,-242.2813 366.5564,-242.2813 303.4436,-242.2813 303.4436,-242.2813 297.4436,-242.2813 291.4436,-236.2813 291.4436,-230.2813 291.4436,-230.2813 291.4436,-211.2813 291.4436,-211.2813 291.4436,-205.2813 297.4436,-199.2813 303.4436,-199.2813"/>
<text text-anchor="middle" x="335" y="-227.8813" font-family="Times,serif" font-size="13.00" fill="#000000">dfs([2],[1, 3])</text>
<polyline fill="none" stroke="#000000" points="291.4436,-221.2813 378.5564,-221.2813 "/>
<text text-anchor="middle" x="335" y="-206.3813" font-family="Times,serif" font-size="13.00" fill="#000000">ret: None</text>
</g>
<!-- 140383485346000 -->
<g id="node4" class="node">
<title>140383485346000</title>
<path fill="none" stroke="#000000" d="M15.4436,-110.8906C15.4436,-110.8906 78.5564,-110.8906 78.5564,-110.8906 84.5564,-110.8906 90.5564,-116.8906 90.5564,-122.8906 90.5564,-122.8906 90.5564,-141.8906 90.5564,-141.8906 90.5564,-147.8906 84.5564,-153.8906 78.5564,-153.8906 78.5564,-153.8906 15.4436,-153.8906 15.4436,-153.8906 9.4436,-153.8906 3.4436,-147.8906 3.4436,-141.8906 3.4436,-141.8906 3.4436,-122.8906 3.4436,-122.8906 3.4436,-116.8906 9.4436,-110.8906 15.4436,-110.8906"/>
<text text-anchor="middle" x="47" y="-139.4906" font-family="Times,serif" font-size="13.00" fill="#000000">dfs([1, 2],[3])</text>
<polyline fill="none" stroke="#000000" points="3.4436,-132.8906 90.5564,-132.8906 "/>
<text text-anchor="middle" x="47" y="-117.9906" font-family="Times,serif" font-size="13.00" fill="#000000">ret: None</text>
</g>
<!-- 140383485186016&#45;&gt;140383485346000 -->
<g id="edge6" class="edge">
<title>140383485186016&#45;&gt;140383485346000</title>
<path fill="none" stroke="#181818" d="M161.8166,-199.1585C141.0373,-187.0749 114.966,-171.914 92.9209,-159.0944"/>
<polygon fill="#181818" stroke="#181818" points="94.4667,-155.9446 84.0626,-153.9432 90.9478,-161.9958 94.4667,-155.9446"/>
<text text-anchor="middle" x="138.0762" y="-174.3813" font-family="Times,serif" font-size="8.00" fill="#999999">2 (⇑2)</text>
</g>
<!-- 140383485350736 -->
<g id="node5" class="node">
<title>140383485350736</title>
<path fill="none" stroke="#000000" d="M138.4436,-110.8906C138.4436,-110.8906 201.5564,-110.8906 201.5564,-110.8906 207.5564,-110.8906 213.5564,-116.8906 213.5564,-122.8906 213.5564,-122.8906 213.5564,-141.8906 213.5564,-141.8906 213.5564,-147.8906 207.5564,-153.8906 201.5564,-153.8906 201.5564,-153.8906 138.4436,-153.8906 138.4436,-153.8906 132.4436,-153.8906 126.4436,-147.8906 126.4436,-141.8906 126.4436,-141.8906 126.4436,-122.8906 126.4436,-122.8906 126.4436,-116.8906 132.4436,-110.8906 138.4436,-110.8906"/>
<text text-anchor="middle" x="170" y="-139.4906" font-family="Times,serif" font-size="13.00" fill="#000000">dfs([1, 3],[2])</text>
<polyline fill="none" stroke="#000000" points="126.4436,-132.8906 213.5564,-132.8906 "/>
<text text-anchor="middle" x="170" y="-117.9906" font-family="Times,serif" font-size="13.00" fill="#000000">ret: None</text>
</g>
<!-- 140383485186016&#45;&gt;140383485350736 -->
<g id="edge7" class="edge">
<title>140383485186016&#45;&gt;140383485350736</title>
<path fill="none" stroke="#303030" d="M191.8315,-198.9319C188.3547,-188.335 184.1149,-175.4122 180.2997,-163.7836"/>
<polygon fill="#303030" stroke="#303030" points="183.5291,-162.3992 177.0861,-153.9887 176.878,-164.5815 183.5291,-162.3992"/>
<text text-anchor="middle" x="196.0762" y="-174.3813" font-family="Times,serif" font-size="8.00" fill="#999999">4 (⇑4)</text>
</g>
<!-- 140383485360880 -->
<g id="node3" class="node">
<title>140383485360880</title>
<path fill="none" stroke="#000000" d="M432.4436,-199.2813C432.4436,-199.2813 495.5564,-199.2813 495.5564,-199.2813 501.5564,-199.2813 507.5564,-205.2813 507.5564,-211.2813 507.5564,-211.2813 507.5564,-230.2813 507.5564,-230.2813 507.5564,-236.2813 501.5564,-242.2813 495.5564,-242.2813 495.5564,-242.2813 432.4436,-242.2813 432.4436,-242.2813 426.4436,-242.2813 420.4436,-236.2813 420.4436,-230.2813 420.4436,-230.2813 420.4436,-211.2813 420.4436,-211.2813 420.4436,-205.2813 426.4436,-199.2813 432.4436,-199.2813"/>
<text text-anchor="middle" x="464" y="-227.8813" font-family="Times,serif" font-size="13.00" fill="#000000">dfs([3],[1, 2])</text>
<polyline fill="none" stroke="#000000" points="420.4436,-221.2813 507.5564,-221.2813 "/>
<text text-anchor="middle" x="464" y="-206.3813" font-family="Times,serif" font-size="13.00" fill="#000000">ret: None</text>
</g>
<!-- 140383485358064 -->
<g id="node6" class="node">
<title>140383485358064</title>
<path fill="none" stroke="#000000" d="M366.4436,-110.8906C366.4436,-110.8906 429.5564,-110.8906 429.5564,-110.8906 435.5564,-110.8906 441.5564,-116.8906 441.5564,-122.8906 441.5564,-122.8906 441.5564,-141.8906 441.5564,-141.8906 441.5564,-147.8906 435.5564,-153.8906 429.5564,-153.8906 429.5564,-153.8906 366.4436,-153.8906 366.4436,-153.8906 360.4436,-153.8906 354.4436,-147.8906 354.4436,-141.8906 354.4436,-141.8906 354.4436,-122.8906 354.4436,-122.8906 354.4436,-116.8906 360.4436,-110.8906 366.4436,-110.8906"/>
<text text-anchor="middle" x="398" y="-139.4906" font-family="Times,serif" font-size="13.00" fill="#000000">dfs([2, 3],[1])</text>
<polyline fill="none" stroke="#000000" points="354.4436,-132.8906 441.5564,-132.8906 "/>
<text text-anchor="middle" x="398" y="-117.9906" font-family="Times,serif" font-size="13.00" fill="#000000">ret: None</text>
</g>
<!-- 140383485354128&#45;&gt;140383485358064 -->
<g id="edge8" class="edge">
<title>140383485354128&#45;&gt;140383485358064</title>
<path fill="none" stroke="#6c6c6c" d="M350.573,-198.9319C358.4311,-187.9069 368.0836,-174.3642 376.6247,-162.3807"/>
<polygon fill="#6c6c6c" stroke="#6c6c6c" points="379.6521,-164.1634 382.6061,-153.9887 373.9518,-160.1005 379.6521,-164.1634"/>
<text text-anchor="middle" x="379.0762" y="-174.3813" font-family="Times,serif" font-size="8.00" fill="#999999">9 (⇑9)</text>
</g>
<!-- 140383485355440 -->
<g id="node7" class="node">
<title>140383485355440</title>
<path fill="none" stroke="#000000" d="M243.4436,-110.8906C243.4436,-110.8906 306.5564,-110.8906 306.5564,-110.8906 312.5564,-110.8906 318.5564,-116.8906 318.5564,-122.8906 318.5564,-122.8906 318.5564,-141.8906 318.5564,-141.8906 318.5564,-147.8906 312.5564,-153.8906 306.5564,-153.8906 306.5564,-153.8906 243.4436,-153.8906 243.4436,-153.8906 237.4436,-153.8906 231.4436,-147.8906 231.4436,-141.8906 231.4436,-141.8906 231.4436,-122.8906 231.4436,-122.8906 231.4436,-116.8906 237.4436,-110.8906 243.4436,-110.8906"/>
<text text-anchor="middle" x="275" y="-139.4906" font-family="Times,serif" font-size="13.00" fill="#000000">dfs([2, 1],[3])</text>
<polyline fill="none" stroke="#000000" points="231.4436,-132.8906 318.5564,-132.8906 "/>
<text text-anchor="middle" x="275" y="-117.9906" font-family="Times,serif" font-size="13.00" fill="#000000">ret: None</text>
</g>
<!-- 140383485354128&#45;&gt;140383485355440 -->
<g id="edge9" class="edge">
<title>140383485354128&#45;&gt;140383485355440</title>
<path fill="none" stroke="#545454" d="M320.1685,-198.9319C312.6847,-187.9069 303.4918,-174.3642 295.3574,-162.3807"/>
<polygon fill="#545454" stroke="#545454" points="298.1731,-160.2968 289.6609,-153.9887 292.3814,-164.2283 298.1731,-160.2968"/>
<text text-anchor="middle" x="317.0762" y="-174.3813" font-family="Times,serif" font-size="8.00" fill="#999999">7 (⇑7)</text>
</g>
<!-- 140383485365680 -->
<g id="node8" class="node">
<title>140383485365680</title>
<path fill="none" stroke="#000000" d="M594.4436,-110.8906C594.4436,-110.8906 657.5564,-110.8906 657.5564,-110.8906 663.5564,-110.8906 669.5564,-116.8906 669.5564,-122.8906 669.5564,-122.8906 669.5564,-141.8906 669.5564,-141.8906 669.5564,-147.8906 663.5564,-153.8906 657.5564,-153.8906 657.5564,-153.8906 594.4436,-153.8906 594.4436,-153.8906 588.4436,-153.8906 582.4436,-147.8906 582.4436,-141.8906 582.4436,-141.8906 582.4436,-122.8906 582.4436,-122.8906 582.4436,-116.8906 588.4436,-110.8906 594.4436,-110.8906"/>
<text text-anchor="middle" x="626" y="-139.4906" font-family="Times,serif" font-size="13.00" fill="#000000">dfs([3, 2],[1])</text>
<polyline fill="none" stroke="#000000" points="582.4436,-132.8906 669.5564,-132.8906 "/>
<text text-anchor="middle" x="626" y="-117.9906" font-family="Times,serif" font-size="13.00" fill="#000000">ret: None</text>
</g>
<!-- 140383485360880&#45;&gt;140383485365680 -->
<g id="edge10" class="edge">
<title>140383485360880&#45;&gt;140383485365680</title>
<path fill="none" stroke="#a8a8a8" d="M503.6297,-199.1585C525.9729,-186.9675 554.0569,-171.6443 577.6835,-158.7532"/>
<polygon fill="#a8a8a8" stroke="#a8a8a8" points="579.3971,-161.8053 586.499,-153.9432 576.0443,-155.6605 579.3971,-161.8053"/>
<text text-anchor="middle" x="563.0762" y="-174.3813" font-family="Times,serif" font-size="8.00" fill="#999999">14 (⇑14)</text>
</g>
<!-- 140383485362400 -->
<g id="node9" class="node">
<title>140383485362400</title>
<path fill="none" stroke="#000000" d="M471.4436,-110.8906C471.4436,-110.8906 534.5564,-110.8906 534.5564,-110.8906 540.5564,-110.8906 546.5564,-116.8906 546.5564,-122.8906 546.5564,-122.8906 546.5564,-141.8906 546.5564,-141.8906 546.5564,-147.8906 540.5564,-153.8906 534.5564,-153.8906 534.5564,-153.8906 471.4436,-153.8906 471.4436,-153.8906 465.4436,-153.8906 459.4436,-147.8906 459.4436,-141.8906 459.4436,-141.8906 459.4436,-122.8906 459.4436,-122.8906 459.4436,-116.8906 465.4436,-110.8906 471.4436,-110.8906"/>
<text text-anchor="middle" x="503" y="-139.4906" font-family="Times,serif" font-size="13.00" fill="#000000">dfs([3, 1],[2])</text>
<polyline fill="none" stroke="#000000" points="459.4436,-132.8906 546.5564,-132.8906 "/>
<text text-anchor="middle" x="503" y="-117.9906" font-family="Times,serif" font-size="13.00" fill="#000000">ret: None</text>
</g>
<!-- 140383485360880&#45;&gt;140383485362400 -->
<g id="edge11" class="edge">
<title>140383485360880&#45;&gt;140383485362400</title>
<path fill="none" stroke="#909090" d="M473.6405,-198.9319C478.3633,-188.228 484.1332,-175.1509 489.304,-163.4316"/>
<polygon fill="#909090" stroke="#909090" points="492.6358,-164.5506 493.4704,-153.9887 486.2315,-161.7248 492.6358,-164.5506"/>
<text text-anchor="middle" x="499.0762" y="-174.3813" font-family="Times,serif" font-size="8.00" fill="#999999">12 (⇑12)</text>
</g>
<!-- 140383485275776 -->
<g id="node10" class="node">
<title>140383485275776</title>
<path fill="none" stroke="#000000" d="M12,-22.5C12,-22.5 82,-22.5 82,-22.5 88,-22.5 94,-28.5 94,-34.5 94,-34.5 94,-53.5 94,-53.5 94,-59.5 88,-65.5 82,-65.5 82,-65.5 12,-65.5 12,-65.5 6,-65.5 0,-59.5 0,-53.5 0,-53.5 0,-34.5 0,-34.5 0,-28.5 6,-22.5 12,-22.5"/>
<text text-anchor="middle" x="46.8064" y="-51.1" font-family="Times,serif" font-size="13.00" fill="#000000">dfs([1, 2, 3],[])</text>
<polyline fill="none" stroke="#000000" points="0,-44.5 93.6128,-44.5 "/>
<text text-anchor="middle" x="46.8064" y="-29.6" font-family="Times,serif" font-size="13.00" fill="#000000">ret: None</text>
</g>
<!-- 140383485346000&#45;&gt;140383485275776 -->
<g id="edge12" class="edge">
<title>140383485346000&#45;&gt;140383485275776</title>
<path fill="none" stroke="#242424" d="M47,-110.5413C47,-100.0514 47,-87.2824 47,-75.7458"/>
<polygon fill="#242424" stroke="#242424" points="50.5001,-75.598 47,-65.598 43.5001,-75.5981 50.5001,-75.598"/>
<text text-anchor="middle" x="57.0762" y="-85.9906" font-family="Times,serif" font-size="8.00" fill="#999999">3 (⇑1)</text>
</g>
<!-- 140383485352048 -->
<g id="node11" class="node">
<title>140383485352048</title>
<path fill="none" stroke="#000000" d="M130,-22.5C130,-22.5 200,-22.5 200,-22.5 206,-22.5 212,-28.5 212,-34.5 212,-34.5 212,-53.5 212,-53.5 212,-59.5 206,-65.5 200,-65.5 200,-65.5 130,-65.5 130,-65.5 124,-65.5 118,-59.5 118,-53.5 118,-53.5 118,-34.5 118,-34.5 118,-28.5 124,-22.5 130,-22.5"/>
<text text-anchor="middle" x="164.8064" y="-51.1" font-family="Times,serif" font-size="13.00" fill="#000000">dfs([1, 3, 2],[])</text>
<polyline fill="none" stroke="#000000" points="118,-44.5 211.6128,-44.5 "/>
<text text-anchor="middle" x="164.8064" y="-29.6" font-family="Times,serif" font-size="13.00" fill="#000000">ret: None</text>
</g>
<!-- 140383485350736&#45;&gt;140383485352048 -->
<g id="edge13" class="edge">
<title>140383485350736&#45;&gt;140383485352048</title>
<path fill="none" stroke="#3c3c3c" d="M168.764,-110.5413C168.1707,-100.0514 167.4484,-87.2824 166.7958,-75.7458"/>
<polygon fill="#3c3c3c" stroke="#3c3c3c" points="170.281,-75.3844 166.2217,-65.598 163.2922,-75.7798 170.281,-75.3844"/>
<text text-anchor="middle" x="178.0762" y="-85.9906" font-family="Times,serif" font-size="8.00" fill="#999999">5 (⇑3)</text>
</g>
<!-- 140383485359376 -->
<g id="node12" class="node">
<title>140383485359376</title>
<path fill="none" stroke="#000000" d="M359,-22.5C359,-22.5 429,-22.5 429,-22.5 435,-22.5 441,-28.5 441,-34.5 441,-34.5 441,-53.5 441,-53.5 441,-59.5 435,-65.5 429,-65.5 429,-65.5 359,-65.5 359,-65.5 353,-65.5 347,-59.5 347,-53.5 347,-53.5 347,-34.5 347,-34.5 347,-28.5 353,-22.5 359,-22.5"/>
<text text-anchor="middle" x="393.8064" y="-51.1" font-family="Times,serif" font-size="13.00" fill="#000000">dfs([2, 3, 1],[])</text>
<polyline fill="none" stroke="#000000" points="347,-44.5 440.6128,-44.5 "/>
<text text-anchor="middle" x="393.8064" y="-29.6" font-family="Times,serif" font-size="13.00" fill="#000000">ret: None</text>
</g>
<!-- 140383485358064&#45;&gt;140383485359376 -->
<g id="edge14" class="edge">
<title>140383485358064&#45;&gt;140383485359376</title>
<path fill="none" stroke="#787878" d="M397.0112,-110.5413C396.5365,-100.0514 395.9587,-87.2824 395.4366,-75.7458"/>
<polygon fill="#787878" stroke="#787878" points="398.926,-75.4296 394.9774,-65.598 391.9331,-75.7461 398.926,-75.4296"/>
<text text-anchor="middle" x="409.0762" y="-85.9906" font-family="Times,serif" font-size="8.00" fill="#999999">10 (⇑8)</text>
</g>
<!-- 140383485356752 -->
<g id="node13" class="node">
<title>140383485356752</title>
<path fill="none" stroke="#000000" d="M242,-22.5C242,-22.5 312,-22.5 312,-22.5 318,-22.5 324,-28.5 324,-34.5 324,-34.5 324,-53.5 324,-53.5 324,-59.5 318,-65.5 312,-65.5 312,-65.5 242,-65.5 242,-65.5 236,-65.5 230,-59.5 230,-53.5 230,-53.5 230,-34.5 230,-34.5 230,-28.5 236,-22.5 242,-22.5"/>
<text text-anchor="middle" x="276.8064" y="-51.1" font-family="Times,serif" font-size="13.00" fill="#000000">dfs([2, 1, 3],[])</text>
<polyline fill="none" stroke="#000000" points="230,-44.5 323.6128,-44.5 "/>
<text text-anchor="middle" x="276.8064" y="-29.6" font-family="Times,serif" font-size="13.00" fill="#000000">ret: None</text>
</g>
<!-- 140383485355440&#45;&gt;140383485356752 -->
<g id="edge15" class="edge">
<title>140383485355440&#45;&gt;140383485356752</title>
<path fill="none" stroke="#606060" d="M275.4944,-110.5413C275.7317,-100.0514 276.0207,-87.2824 276.2817,-75.7458"/>
<polygon fill="#606060" stroke="#606060" points="279.7841,-75.6747 276.5113,-65.598 272.7859,-75.5163 279.7841,-75.6747"/>
<text text-anchor="middle" x="287.0762" y="-85.9906" font-family="Times,serif" font-size="8.00" fill="#999999">8 (⇑6)</text>
</g>
<!-- 140383485367328 -->
<g id="node14" class="node">
<title>140383485367328</title>
<path fill="none" stroke="#000000" d="M591,-22.5C591,-22.5 661,-22.5 661,-22.5 667,-22.5 673,-28.5 673,-34.5 673,-34.5 673,-53.5 673,-53.5 673,-59.5 667,-65.5 661,-65.5 661,-65.5 591,-65.5 591,-65.5 585,-65.5 579,-59.5 579,-53.5 579,-53.5 579,-34.5 579,-34.5 579,-28.5 585,-22.5 591,-22.5"/>
<text text-anchor="middle" x="625.8064" y="-51.1" font-family="Times,serif" font-size="13.00" fill="#000000">dfs([3, 2, 1],[])</text>
<polyline fill="none" stroke="#000000" points="579,-44.5 672.6128,-44.5 "/>
<text text-anchor="middle" x="625.8064" y="-29.6" font-family="Times,serif" font-size="13.00" fill="#000000">ret: None</text>
</g>
<!-- 140383485365680&#45;&gt;140383485367328 -->
<g id="edge16" class="edge">
<title>140383485365680&#45;&gt;140383485367328</title>
<path fill="none" stroke="#b4b4b4" d="M626,-110.5413C626,-100.0514 626,-87.2824 626,-75.7458"/>
<polygon fill="#b4b4b4" stroke="#b4b4b4" points="629.5001,-75.598 626,-65.598 622.5001,-75.5981 629.5001,-75.598"/>
<text text-anchor="middle" x="640.0762" y="-85.9906" font-family="Times,serif" font-size="8.00" fill="#999999">15 (⇑13)</text>
</g>
<!-- 140383485364016 -->
<g id="node15" class="node">
<title>140383485364016</title>
<path fill="none" stroke="#000000" d="M471,-22.5C471,-22.5 541,-22.5 541,-22.5 547,-22.5 553,-28.5 553,-34.5 553,-34.5 553,-53.5 553,-53.5 553,-59.5 547,-65.5 541,-65.5 541,-65.5 471,-65.5 471,-65.5 465,-65.5 459,-59.5 459,-53.5 459,-53.5 459,-34.5 459,-34.5 459,-28.5 465,-22.5 471,-22.5"/>
<text text-anchor="middle" x="505.8064" y="-51.1" font-family="Times,serif" font-size="13.00" fill="#000000">dfs([3, 1, 2],[])</text>
<polyline fill="none" stroke="#000000" points="459,-44.5 552.6128,-44.5 "/>
<text text-anchor="middle" x="505.8064" y="-29.6" font-family="Times,serif" font-size="13.00" fill="#000000">ret: None</text>
</g>
<!-- 140383485362400&#45;&gt;140383485364016 -->
<g id="edge17" class="edge">
<title>140383485362400&#45;&gt;140383485364016</title>
<path fill="none" stroke="#9c9c9c" d="M503.7416,-110.5413C504.0976,-100.0514 504.531,-87.2824 504.9225,-75.7458"/>
<polygon fill="#9c9c9c" stroke="#9c9c9c" points="508.4256,-75.711 505.267,-65.598 501.4297,-75.4735 508.4256,-75.711"/>
<text text-anchor="middle" x="517.9297" y="-85.9906" font-family="Times,serif" font-size="8.00" fill="#999999">13 (⇑11)</text>
</g>
<!-- 140383485306304 -->
<g id="node16" class="node">
<title>140383485306304</title>
<path fill="none" stroke="#000000" d="M300,-287.6719C300,-287.6719 370,-287.6719 370,-287.6719 376,-287.6719 382,-293.6719 382,-299.6719 382,-299.6719 382,-318.6719 382,-318.6719 382,-324.6719 376,-330.6719 370,-330.6719 370,-330.6719 300,-330.6719 300,-330.6719 294,-330.6719 288,-324.6719 288,-318.6719 288,-318.6719 288,-299.6719 288,-299.6719 288,-293.6719 294,-287.6719 300,-287.6719"/>
<text text-anchor="middle" x="334.8064" y="-316.2719" font-family="Times,serif" font-size="13.00" fill="#000000">dfs([],[1, 2, 3])</text>
<polyline fill="none" stroke="#000000" points="288,-309.6719 381.6128,-309.6719 "/>
<text text-anchor="middle" x="334.8064" y="-294.7719" font-family="Times,serif" font-size="13.00" fill="#000000">ret: None</text>
</g>
<!-- 140383485306304&#45;&gt;140383485186016 -->
<g id="edge18" class="edge">
<title>140383485306304&#45;&gt;140383485186016</title>
<path fill="none" stroke="#0c0c0c" d="M301.7307,-287.5491C283.3724,-275.6175 260.3976,-260.6854 240.8329,-247.9697"/>
<polygon fill="#0c0c0c" stroke="#0c0c0c" points="242.6893,-245.002 232.3972,-242.4871 238.8746,-250.8713 242.6893,-245.002"/>
<text text-anchor="middle" x="282.0762" y="-262.7719" font-family="Times,serif" font-size="8.00" fill="#999999">1 (⇑5)</text>
</g>
<!-- 140383485306304&#45;&gt;140383485354128 -->
<g id="edge19" class="edge">
<title>140383485306304&#45;&gt;140383485354128</title>
<path fill="none" stroke="#484848" d="M335,-287.3225C335,-276.8327 335,-264.0637 335,-252.527"/>
<polygon fill="#484848" stroke="#484848" points="338.5001,-252.3793 335,-242.3793 331.5001,-252.3793 338.5001,-252.3793"/>
<text text-anchor="middle" x="347.0762" y="-262.7719" font-family="Times,serif" font-size="8.00" fill="#999999">6 (⇑10)</text>
</g>
<!-- 140383485306304&#45;&gt;140383485360880 -->
<g id="edge20" class="edge">
<title>140383485306304&#45;&gt;140383485360880</title>
<path fill="none" stroke="#848484" d="M366.557,-287.5491C383.8922,-275.671 405.5672,-260.8193 424.0704,-248.1409"/>
<polygon fill="#848484" stroke="#848484" points="426.0508,-251.0268 432.3217,-242.4871 422.0941,-245.2523 426.0508,-251.0268"/>
<text text-anchor="middle" x="417.9297" y="-262.7719" font-family="Times,serif" font-size="8.00" fill="#999999">11 (⇑15)</text>
</g>
</g>
</svg>
