<?xml version="1.0" encoding="UTF-8" standalone="no"?>
<!DOCTYPE svg PUBLIC "-//W3C//DTD SVG 1.1//EN"
 "http://www.w3.org/Graphics/SVG/1.1/DTD/svg11.dtd">
<!-- Generated by graphviz version 2.40.1 (20161225.0304)
 -->
<!-- Pages: 1 -->
<svg width="466pt" height="402pt"
 viewBox="0.00 0.00 466.10 402.17" xmlns="http://www.w3.org/2000/svg" xmlns:xlink="http://www.w3.org/1999/xlink">
<g id="graph0" class="graph" transform="scale(1 1) rotate(0) translate(4 398.1719)">
<polygon fill="#ffffff" stroke="transparent" points="-4,4 -4,-398.1719 462.0991,-398.1719 462.0991,4 -4,4"/>
<text text-anchor="middle" x="229.0496" y="-6.8" font-family="Times,serif" font-size="14.00" fill="#000000">nodes=9</text>
<!-- 140434734134336 -->
<g id="node1" class="node">
<title>140434734134336</title>
<path fill="none" stroke="#000000" d="M99.5,-220.2813C99.5,-220.2813 202.6982,-220.2813 202.6982,-220.2813 208.6982,-220.2813 214.6982,-226.2813 214.6982,-232.2813 214.6982,-232.2813 214.6982,-272.2813 214.6982,-272.2813 214.6982,-278.2813 208.6982,-284.2813 202.6982,-284.2813 202.6982,-284.2813 99.5,-284.2813 99.5,-284.2813 93.5,-284.2813 87.5,-278.2813 87.5,-272.2813 87.5,-272.2813 87.5,-232.2813 87.5,-232.2813 87.5,-226.2813 93.5,-220.2813 99.5,-220.2813"/>
<text text-anchor="middle" x="151.0991" y="-269.8813" font-family="Times,serif" font-size="13.00" fill="#000000">quicksort([1, 3, 0, 2])</text>
<polyline fill="none" stroke="#000000" points="87.5,-263.2813 214.6982,-263.2813 "/>
<text text-anchor="middle" x="151.0991" y="-248.8813" font-family="Times,serif" font-size="13.00" fill="#000000">pivot: 1</text>
<polyline fill="none" stroke="#000000" points="87.5,-242.2813 214.6982,-242.2813 "/>
<text text-anchor="middle" x="151.0991" y="-227.3813" font-family="Times,serif" font-size="13.00" fill="#000000">ret: [0, 1, 2, 3]</text>
</g>
<!-- 140434734144560 -->
<g id="node2" class="node">
<title>140434734144560</title>
<path fill="none" stroke="#000000" d="M262.5,-220.2813C262.5,-220.2813 339.6982,-220.2813 339.6982,-220.2813 345.6982,-220.2813 351.6982,-226.2813 351.6982,-232.2813 351.6982,-232.2813 351.6982,-272.2813 351.6982,-272.2813 351.6982,-278.2813 345.6982,-284.2813 339.6982,-284.2813 339.6982,-284.2813 262.5,-284.2813 262.5,-284.2813 256.5,-284.2813 250.5,-278.2813 250.5,-272.2813 250.5,-272.2813 250.5,-232.2813 250.5,-232.2813 250.5,-226.2813 256.5,-220.2813 262.5,-220.2813"/>
<text text-anchor="middle" x="301.0991" y="-269.8813" font-family="Times,serif" font-size="13.00" fill="#000000">quicksort([9, 7])</text>
<polyline fill="none" stroke="#000000" points="250.5,-263.2813 351.6982,-263.2813 "/>
<text text-anchor="middle" x="301.0991" y="-248.8813" font-family="Times,serif" font-size="13.00" fill="#000000">pivot: 9</text>
<polyline fill="none" stroke="#000000" points="250.5,-242.2813 351.6982,-242.2813 "/>
<text text-anchor="middle" x="301.0991" y="-227.3813" font-family="Times,serif" font-size="13.00" fill="#000000">ret: [7, 9]</text>
</g>
<!-- 140434734138304 -->
<g id="node3" class="node">
<title>140434734138304</title>
<path fill="none" stroke="#000000" d="M135.5,-110.8906C135.5,-110.8906 212.6982,-110.8906 212.6982,-110.8906 218.6982,-110.8906 224.6982,-116.8906 224.6982,-122.8906 224.6982,-122.8906 224.6982,-162.8906 224.6982,-162.8906 224.6982,-168.8906 218.6982,-174.8906 212.6982,-174.8906 212.6982,-174.8906 135.5,-174.8906 135.5,-174.8906 129.5,-174.8906 123.5,-168.8906 123.5,-162.8906 123.5,-162.8906 123.5,-122.8906 123.5,-122.8906 123.5,-116.8906 129.5,-110.8906 135.5,-110.8906"/>
<text text-anchor="middle" x="174.0991" y="-160.4906" font-family="Times,serif" font-size="13.00" fill="#000000">quicksort([3, 2])</text>
<polyline fill="none" stroke="#000000" points="123.5,-153.8906 224.6982,-153.8906 "/>
<text text-anchor="middle" x="174.0991" y="-139.4906" font-family="Times,serif" font-size="13.00" fill="#000000">pivot: 3</text>
<polyline fill="none" stroke="#000000" points="123.5,-132.8906 224.6982,-132.8906 "/>
<text text-anchor="middle" x="174.0991" y="-117.9906" font-family="Times,serif" font-size="13.00" fill="#000000">ret: [2, 3]</text>
</g>
<!-- 140434734134336&#45;&gt;140434734138304 -->
<g id="edge5" class="edge">
<title>140434734134336&#45;&gt;140434734138304</title>
<path fill="none" stroke="#424242" d="M157.8755,-220.0521C160.1712,-209.1335 162.7709,-196.7691 165.2059,-185.1876"/>
<polygon fill="#424242" stroke="#424242" points="168.6592,-185.7736 167.2917,-175.2674 161.809,-184.3333 168.6592,-185.7736"/>
<text text-anchor="middle" x="174.1753" y="-195.3813" font-family="Times,serif" font-size="8.00" fill="#999999">3 (⇑4)</text>
</g>
<!-- 140434734136944 -->
<g id="node4" class="node">
<title>140434734136944</title>
<path fill="none" stroke="#000000" d="M12,-121.3906C12,-121.3906 76.1982,-121.3906 76.1982,-121.3906 82.1982,-121.3906 88.1982,-127.3906 88.1982,-133.3906 88.1982,-133.3906 88.1982,-152.3906 88.1982,-152.3906 88.1982,-158.3906 82.1982,-164.3906 76.1982,-164.3906 76.1982,-164.3906 12,-164.3906 12,-164.3906 6,-164.3906 0,-158.3906 0,-152.3906 0,-152.3906 0,-133.3906 0,-133.3906 0,-127.3906 6,-121.3906 12,-121.3906"/>
<text text-anchor="middle" x="44.0991" y="-149.9906" font-family="Times,serif" font-size="13.00" fill="#000000">quicksort([0])</text>
<polyline fill="none" stroke="#000000" points="0,-143.3906 88.1982,-143.3906 "/>
<text text-anchor="middle" x="44.0991" y="-128.4906" font-family="Times,serif" font-size="13.00" fill="#000000">ret: [0]</text>
</g>
<!-- 140434734134336&#45;&gt;140434734136944 -->
<g id="edge6" class="edge">
<title>140434734134336&#45;&gt;140434734136944</title>
<path fill="none" stroke="#2c2c2c" d="M119.5743,-220.0521C104.6658,-204.8105 87.0017,-186.7518 72.5116,-171.9379"/>
<polygon fill="#2c2c2c" stroke="#2c2c2c" points="74.7495,-169.2204 65.2549,-164.519 69.7453,-174.1152 74.7495,-169.2204"/>
<text text-anchor="middle" x="111.1753" y="-195.3813" font-family="Times,serif" font-size="8.00" fill="#999999">2 (⇑1)</text>
</g>
<!-- 140434734145264 -->
<g id="node7" class="node">
<title>140434734145264</title>
<path fill="none" stroke="#000000" d="M388.0991,-121.3906C388.0991,-121.3906 446.0991,-121.3906 446.0991,-121.3906 452.0991,-121.3906 458.0991,-127.3906 458.0991,-133.3906 458.0991,-133.3906 458.0991,-152.3906 458.0991,-152.3906 458.0991,-158.3906 452.0991,-164.3906 446.0991,-164.3906 446.0991,-164.3906 388.0991,-164.3906 388.0991,-164.3906 382.0991,-164.3906 376.0991,-158.3906 376.0991,-152.3906 376.0991,-152.3906 376.0991,-133.3906 376.0991,-133.3906 376.0991,-127.3906 382.0991,-121.3906 388.0991,-121.3906"/>
<text text-anchor="middle" x="416.9482" y="-149.9906" font-family="Times,serif" font-size="13.00" fill="#000000">quicksort([])</text>
<polyline fill="none" stroke="#000000" points="376.0991,-143.3906 457.7974,-143.3906 "/>
<text text-anchor="middle" x="416.9482" y="-128.4906" font-family="Times,serif" font-size="13.00" fill="#000000">ret: []</text>
</g>
<!-- 140434734144560&#45;&gt;140434734145264 -->
<g id="edge7" class="edge">
<title>140434734144560&#45;&gt;140434734145264</title>
<path fill="none" stroke="#b0b0b0" d="M335.2755,-220.0521C351.5863,-204.6707 370.9395,-186.4202 386.7283,-171.531"/>
<polygon fill="#b0b0b0" stroke="#b0b0b0" points="389.2899,-173.9262 394.1639,-164.519 384.4873,-168.8335 389.2899,-173.9262"/>
<text text-anchor="middle" x="372.1753" y="-195.3813" font-family="Times,serif" font-size="8.00" fill="#999999">8 (⇑7)</text>
</g>
<!-- 140434734142240 -->
<g id="node8" class="node">
<title>140434734142240</title>
<path fill="none" stroke="#000000" d="M264,-121.3906C264,-121.3906 328.1982,-121.3906 328.1982,-121.3906 334.1982,-121.3906 340.1982,-127.3906 340.1982,-133.3906 340.1982,-133.3906 340.1982,-152.3906 340.1982,-152.3906 340.1982,-158.3906 334.1982,-164.3906 328.1982,-164.3906 328.1982,-164.3906 264,-164.3906 264,-164.3906 258,-164.3906 252,-158.3906 252,-152.3906 252,-152.3906 252,-133.3906 252,-133.3906 252,-127.3906 258,-121.3906 264,-121.3906"/>
<text text-anchor="middle" x="296.0991" y="-149.9906" font-family="Times,serif" font-size="13.00" fill="#000000">quicksort([7])</text>
<polyline fill="none" stroke="#000000" points="252,-143.3906 340.1982,-143.3906 "/>
<text text-anchor="middle" x="296.0991" y="-128.4906" font-family="Times,serif" font-size="13.00" fill="#000000">ret: [7]</text>
</g>
<!-- 140434734144560&#45;&gt;140434734142240 -->
<g id="edge8" class="edge">
<title>140434734144560&#45;&gt;140434734142240</title>
<path fill="none" stroke="#9a9a9a" d="M299.626,-220.0521C298.9741,-205.7893 298.2094,-189.0596 297.559,-174.8305"/>
<polygon fill="#9a9a9a" stroke="#9a9a9a" points="301.0407,-174.3488 297.0877,-164.519 294.0481,-174.6684 301.0407,-174.3488"/>
<text text-anchor="middle" x="309.1753" y="-195.3813" font-family="Times,serif" font-size="8.00" fill="#999999">7 (⇑6)</text>
</g>
<!-- 140434734139616 -->
<g id="node5" class="node">
<title>140434734139616</title>
<path fill="none" stroke="#000000" d="M72,-22.5C72,-22.5 136.1982,-22.5 136.1982,-22.5 142.1982,-22.5 148.1982,-28.5 148.1982,-34.5 148.1982,-34.5 148.1982,-53.5 148.1982,-53.5 148.1982,-59.5 142.1982,-65.5 136.1982,-65.5 136.1982,-65.5 72,-65.5 72,-65.5 66,-65.5 60,-59.5 60,-53.5 60,-53.5 60,-34.5 60,-34.5 60,-28.5 66,-22.5 72,-22.5"/>
<text text-anchor="middle" x="104.0991" y="-51.1" font-family="Times,serif" font-size="13.00" fill="#000000">quicksort([2])</text>
<polyline fill="none" stroke="#000000" points="60,-44.5 148.1982,-44.5 "/>
<text text-anchor="middle" x="104.0991" y="-29.6" font-family="Times,serif" font-size="13.00" fill="#000000">ret: [2]</text>
</g>
<!-- 140434734138304&#45;&gt;140434734139616 -->
<g id="edge9" class="edge">
<title>140434734138304&#45;&gt;140434734139616</title>
<path fill="none" stroke="#585858" d="M151.3721,-110.7837C143.0374,-99.009 133.6394,-85.7323 125.4313,-74.1365"/>
<polygon fill="#585858" stroke="#585858" points="128.0581,-71.7894 119.4237,-65.6494 122.3446,-75.8337 128.0581,-71.7894"/>
<text text-anchor="middle" x="147.1753" y="-85.9906" font-family="Times,serif" font-size="8.00" fill="#999999">4 (⇑2)</text>
</g>
<!-- 140434734140928 -->
<g id="node6" class="node">
<title>140434734140928</title>
<path fill="none" stroke="#000000" d="M196.0991,-22.5C196.0991,-22.5 254.0991,-22.5 254.0991,-22.5 260.0991,-22.5 266.0991,-28.5 266.0991,-34.5 266.0991,-34.5 266.0991,-53.5 266.0991,-53.5 266.0991,-59.5 260.0991,-65.5 254.0991,-65.5 254.0991,-65.5 196.0991,-65.5 196.0991,-65.5 190.0991,-65.5 184.0991,-59.5 184.0991,-53.5 184.0991,-53.5 184.0991,-34.5 184.0991,-34.5 184.0991,-28.5 190.0991,-22.5 196.0991,-22.5"/>
<text text-anchor="middle" x="224.9482" y="-51.1" font-family="Times,serif" font-size="13.00" fill="#000000">quicksort([])</text>
<polyline fill="none" stroke="#000000" points="184.0991,-44.5 265.7974,-44.5 "/>
<text text-anchor="middle" x="224.9482" y="-29.6" font-family="Times,serif" font-size="13.00" fill="#000000">ret: []</text>
</g>
<!-- 140434734138304&#45;&gt;140434734140928 -->
<g id="edge10" class="edge">
<title>140434734138304&#45;&gt;140434734140928</title>
<path fill="none" stroke="#6e6e6e" d="M190.6574,-110.7837C196.6108,-99.2398 203.3087,-86.2524 209.2043,-74.8205"/>
<polygon fill="#6e6e6e" stroke="#6e6e6e" points="212.4611,-76.1414 213.934,-65.6494 206.2397,-72.9329 212.4611,-76.1414"/>
<text text-anchor="middle" x="215.1753" y="-85.9906" font-family="Times,serif" font-size="8.00" fill="#999999">5 (⇑3)</text>
</g>
<!-- 140434734128256 -->
<g id="node9" class="node">
<title>140434734128256</title>
<path fill="none" stroke="#000000" d="M154,-329.6719C154,-329.6719 296.1982,-329.6719 296.1982,-329.6719 302.1982,-329.6719 308.1982,-335.6719 308.1982,-341.6719 308.1982,-341.6719 308.1982,-381.6719 308.1982,-381.6719 308.1982,-387.6719 302.1982,-393.6719 296.1982,-393.6719 296.1982,-393.6719 154,-393.6719 154,-393.6719 148,-393.6719 142,-387.6719 142,-381.6719 142,-381.6719 142,-341.6719 142,-341.6719 142,-335.6719 148,-329.6719 154,-329.6719"/>
<text text-anchor="middle" x="225.0991" y="-379.2719" font-family="Times,serif" font-size="13.00" fill="#000000">quicksort([5, 1, 9, 7, 3, 0, 2])</text>
<polyline fill="none" stroke="#000000" points="142,-372.6719 308.1982,-372.6719 "/>
<text text-anchor="middle" x="225.0991" y="-358.2719" font-family="Times,serif" font-size="13.00" fill="#000000">pivot: 5</text>
<polyline fill="none" stroke="#000000" points="142,-351.6719 308.1982,-351.6719 "/>
<text text-anchor="middle" x="225.0991" y="-336.7719" font-family="Times,serif" font-size="13.00" fill="#000000">ret: [0, 1, 2, 3, 5, 7, 9]</text>
</g>
<!-- 140434734128256&#45;&gt;140434734134336 -->
<g id="edge11" class="edge">
<title>140434734128256&#45;&gt;140434734134336</title>
<path fill="none" stroke="#161616" d="M203.2969,-329.4427C195.6123,-318.0829 186.869,-305.1582 178.765,-293.1784"/>
<polygon fill="#161616" stroke="#161616" points="181.5034,-290.9798 173.0012,-284.658 175.7054,-294.902 181.5034,-290.9798"/>
<text text-anchor="middle" x="201.1753" y="-304.7719" font-family="Times,serif" font-size="8.00" fill="#999999">1 (⇑5)</text>
</g>
<!-- 140434734128256&#45;&gt;140434734144560 -->
<g id="edge12" class="edge">
<title>140434734128256&#45;&gt;140434734144560</title>
<path fill="none" stroke="#848484" d="M247.4906,-329.4427C255.3829,-318.0829 264.3624,-305.1582 272.6855,-293.1784"/>
<polygon fill="#848484" stroke="#848484" points="275.7737,-294.8676 278.6051,-284.658 270.025,-290.8735 275.7737,-294.8676"/>
<text text-anchor="middle" x="276.1753" y="-304.7719" font-family="Times,serif" font-size="8.00" fill="#999999">6 (⇑8)</text>
</g>
</g>
</svg>
