<?xml version="1.0" encoding="UTF-8" standalone="no"?>
<!DOCTYPE svg PUBLIC "-//W3C//DTD SVG 1.1//EN"
 "http://www.w3.org/Graphics/SVG/1.1/DTD/svg11.dtd">
<!-- Generated by graphviz version 2.40.1 (20161225.0304)
 -->
<!-- Pages: 1 -->
<svg width="122pt" height="315pt"
 viewBox="0.00 0.00 122.00 315.17" xmlns="http://www.w3.org/2000/svg" xmlns:xlink="http://www.w3.org/1999/xlink">
<g id="graph0" class="graph" transform="scale(1 1) rotate(0) translate(4 311.1719)">
<polygon fill="#ffffff" stroke="transparent" points="-4,4 -4,-311.1719 118,-311.1719 118,4 -4,4"/>
<text text-anchor="middle" x="57" y="-6.8" font-family="Times,serif" font-size="14.00" fill="#000000">nodes=4</text>
<!-- 140493125174192 -->
<g id="node1" class="node">
<title>140493125174192</title>
<path fill="none" stroke="#000000" d="M12,-269.6719C12,-269.6719 102,-269.6719 102,-269.6719 108,-269.6719 114,-275.6719 114,-281.6719 114,-281.6719 114,-294.6719 114,-294.6719 114,-300.6719 108,-306.6719 102,-306.6719 102,-306.6719 12,-306.6719 12,-306.6719 6,-306.6719 0,-300.6719 0,-294.6719 0,-294.6719 0,-281.6719 0,-281.6719 0,-275.6719 6,-269.6719 12,-269.6719"/>
<text text-anchor="middle" x="56.75" y="-284.2719" font-family="Times,serif" font-size="13.00" fill="#000000">140493125174192</text>
</g>
<!-- 140493125181440 -->
<g id="node2" class="node">
<title>140493125181440</title>
<path fill="none" stroke="#000000" d="M12,-187.2813C12,-187.2813 102,-187.2813 102,-187.2813 108,-187.2813 114,-193.2813 114,-199.2813 114,-199.2813 114,-212.2813 114,-212.2813 114,-218.2813 108,-224.2813 102,-224.2813 102,-224.2813 12,-224.2813 12,-224.2813 6,-224.2813 0,-218.2813 0,-212.2813 0,-212.2813 0,-199.2813 0,-199.2813 0,-193.2813 6,-187.2813 12,-187.2813"/>
<text text-anchor="middle" x="56.75" y="-201.8813" font-family="Times,serif" font-size="13.00" fill="#000000">140493125181440</text>
</g>
<!-- 140493125174192&#45;&gt;140493125181440 -->
<g id="edge1" class="edge">
<title>140493125174192&#45;&gt;140493125181440</title>
<path fill="none" stroke="#323232" d="M57,-269.4762C57,-259.1527 57,-246.1099 57,-234.5194"/>
<polygon fill="#323232" stroke="#323232" points="60.5001,-234.4029 57,-224.403 53.5001,-234.403 60.5001,-234.4029"/>
<text text-anchor="middle" x="67.0762" y="-244.7719" font-family="Times,serif" font-size="8.00" fill="#999999">1 (⇑3)</text>
</g>
<!-- 140493125105408 -->
<g id="node3" class="node">
<title>140493125105408</title>
<path fill="none" stroke="#000000" d="M12,-104.8906C12,-104.8906 102,-104.8906 102,-104.8906 108,-104.8906 114,-110.8906 114,-116.8906 114,-116.8906 114,-129.8906 114,-129.8906 114,-135.8906 108,-141.8906 102,-141.8906 102,-141.8906 12,-141.8906 12,-141.8906 6,-141.8906 0,-135.8906 0,-129.8906 0,-129.8906 0,-116.8906 0,-116.8906 0,-110.8906 6,-104.8906 12,-104.8906"/>
<text text-anchor="middle" x="56.75" y="-119.4906" font-family="Times,serif" font-size="13.00" fill="#000000">140493125105408</text>
</g>
<!-- 140493125181440&#45;&gt;140493125105408 -->
<g id="edge2" class="edge">
<title>140493125181440&#45;&gt;140493125105408</title>
<path fill="none" stroke="#646464" d="M57,-187.0855C57,-176.7621 57,-163.7193 57,-152.1288"/>
<polygon fill="#646464" stroke="#646464" points="60.5001,-152.0123 57,-142.0123 53.5001,-152.0124 60.5001,-152.0123"/>
<text text-anchor="middle" x="67.0762" y="-162.3813" font-family="Times,serif" font-size="8.00" fill="#999999">2 (⇑2)</text>
</g>
<!-- 140493125185408 -->
<g id="node4" class="node">
<title>140493125185408</title>
<path fill="none" stroke="#000000" d="M42,-22.5C42,-22.5 72,-22.5 72,-22.5 78,-22.5 84,-28.5 84,-34.5 84,-34.5 84,-47.5 84,-47.5 84,-53.5 78,-59.5 72,-59.5 72,-59.5 42,-59.5 42,-59.5 36,-59.5 30,-53.5 30,-47.5 30,-47.5 30,-34.5 30,-34.5 30,-28.5 36,-22.5 42,-22.5"/>
<polyline fill="none" stroke="#000000" points="30,-41.5 84,-41.5 "/>
</g>
<!-- 140493125105408&#45;&gt;140493125185408 -->
<g id="edge3" class="edge">
<title>140493125105408&#45;&gt;140493125185408</title>
<path fill="none" stroke="#969696" d="M57,-104.6949C57,-94.3714 57,-81.3286 57,-69.7381"/>
<polygon fill="#969696" stroke="#969696" points="60.5001,-69.6217 57,-59.6217 53.5001,-69.6218 60.5001,-69.6217"/>
<text text-anchor="middle" x="67.0762" y="-79.9906" font-family="Times,serif" font-size="8.00" fill="#999999">3 (⇑1)</text>
</g>
</g>
</svg>
