<?xml version="1.0" encoding="UTF-8" standalone="no"?>
<!DOCTYPE svg PUBLIC "-//W3C//DTD SVG 1.1//EN"
 "http://www.w3.org/Graphics/SVG/1.1/DTD/svg11.dtd">
<!-- Generated by graphviz version 2.40.1 (20161225.0304)
 -->
<!-- Pages: 1 -->
<svg width="1024pt" height="465pt"
 viewBox="0.00 0.00 1024.00 465.17" xmlns="http://www.w3.org/2000/svg" xmlns:xlink="http://www.w3.org/1999/xlink">
<g id="graph0" class="graph" transform="scale(1 1) rotate(0) translate(4 461.1719)">
<polygon fill="#ffffff" stroke="transparent" points="-4,4 -4,-461.1719 1020,-461.1719 1020,4 -4,4"/>
<text text-anchor="middle" x="508" y="-6.8" font-family="Times,serif" font-size="14.00" fill="#000000">nodes=15</text>
<!-- 140592958000352 -->
<g id="node1" class="node">
<title>140592958000352</title>
<path fill="none" stroke="#000000" d="M323,-241.2813C323,-241.2813 456,-241.2813 456,-241.2813 462,-241.2813 468,-247.2813 468,-253.2813 468,-253.2813 468,-314.2813 468,-314.2813 468,-320.2813 462,-326.2813 456,-326.2813 456,-326.2813 323,-326.2813 323,-326.2813 317,-326.2813 311,-320.2813 311,-314.2813 311,-314.2813 311,-253.2813 311,-253.2813 311,-247.2813 317,-241.2813 323,-241.2813"/>
<text text-anchor="middle" x="389.2844" y="-311.8813" font-family="Times,serif" font-size="13.00" fill="#000000">merge_sort([3, 13, 17, 19])</text>
<polyline fill="none" stroke="#000000" points="311,-305.2813 467.5688,-305.2813 "/>
<text text-anchor="middle" x="389.2844" y="-290.8813" font-family="Times,serif" font-size="13.00" fill="#000000">right: [17, 3]</text>
<polyline fill="none" stroke="#000000" points="311,-284.2813 467.5688,-284.2813 "/>
<text text-anchor="middle" x="389.2844" y="-269.8813" font-family="Times,serif" font-size="13.00" fill="#000000">left: [19, 13]</text>
<polyline fill="none" stroke="#000000" points="311,-263.2813 467.5688,-263.2813 "/>
<text text-anchor="middle" x="389.2844" y="-248.3813" font-family="Times,serif" font-size="13.00" fill="#000000">ret: [3, 13, 17, 19]</text>
</g>
<!-- 140592958014592 -->
<g id="node2" class="node">
<title>140592958014592</title>
<path fill="none" stroke="#000000" d="M517.4656,-241.2813C517.4656,-241.2813 643.5344,-241.2813 643.5344,-241.2813 649.5344,-241.2813 655.5344,-247.2813 655.5344,-253.2813 655.5344,-253.2813 655.5344,-314.2813 655.5344,-314.2813 655.5344,-320.2813 649.5344,-326.2813 643.5344,-326.2813 643.5344,-326.2813 517.4656,-326.2813 517.4656,-326.2813 511.4656,-326.2813 505.4656,-320.2813 505.4656,-314.2813 505.4656,-314.2813 505.4656,-253.2813 505.4656,-253.2813 505.4656,-247.2813 511.4656,-241.2813 517.4656,-241.2813"/>
<text text-anchor="middle" x="580.5" y="-311.8813" font-family="Times,serif" font-size="13.00" fill="#000000">merge_sort([8, 9, 14, 16])</text>
<polyline fill="none" stroke="#000000" points="505.4656,-305.2813 655.5344,-305.2813 "/>
<text text-anchor="middle" x="580.5" y="-290.8813" font-family="Times,serif" font-size="13.00" fill="#000000">right: [8, 16]</text>
<polyline fill="none" stroke="#000000" points="505.4656,-284.2813 655.5344,-284.2813 "/>
<text text-anchor="middle" x="580.5" y="-269.8813" font-family="Times,serif" font-size="13.00" fill="#000000">left: [14, 9]</text>
<polyline fill="none" stroke="#000000" points="505.4656,-263.2813 655.5344,-263.2813 "/>
<text text-anchor="middle" x="580.5" y="-248.3813" font-family="Times,serif" font-size="13.00" fill="#000000">ret: [8, 9, 14, 16]</text>
</g>
<!-- 140592958006176 -->
<g id="node3" class="node">
<title>140592958006176</title>
<path fill="none" stroke="#000000" d="M324.5,-110.8906C324.5,-110.8906 418.5,-110.8906 418.5,-110.8906 424.5,-110.8906 430.5,-116.8906 430.5,-122.8906 430.5,-122.8906 430.5,-183.8906 430.5,-183.8906 430.5,-189.8906 424.5,-195.8906 418.5,-195.8906 418.5,-195.8906 324.5,-195.8906 324.5,-195.8906 318.5,-195.8906 312.5,-189.8906 312.5,-183.8906 312.5,-183.8906 312.5,-122.8906 312.5,-122.8906 312.5,-116.8906 318.5,-110.8906 324.5,-110.8906"/>
<text text-anchor="middle" x="371.2844" y="-181.4906" font-family="Times,serif" font-size="13.00" fill="#000000">merge_sort([3, 17])</text>
<polyline fill="none" stroke="#000000" points="312.5,-174.8906 430.0688,-174.8906 "/>
<text text-anchor="middle" x="371.2844" y="-160.4906" font-family="Times,serif" font-size="13.00" fill="#000000">right: [3]</text>
<polyline fill="none" stroke="#000000" points="312.5,-153.8906 430.0688,-153.8906 "/>
<text text-anchor="middle" x="371.2844" y="-139.4906" font-family="Times,serif" font-size="13.00" fill="#000000">left: [17]</text>
<polyline fill="none" stroke="#000000" points="312.5,-132.8906 430.0688,-132.8906 "/>
<text text-anchor="middle" x="371.2844" y="-117.9906" font-family="Times,serif" font-size="13.00" fill="#000000">ret: [3, 17]</text>
</g>
<!-- 140592958000352&#45;&gt;140592958006176 -->
<g id="edge8" class="edge">
<title>140592958000352&#45;&gt;140592958006176</title>
<path fill="none" stroke="#414141" d="M383.6061,-241.0865C382.0677,-229.9422 380.3912,-217.7981 378.7898,-206.1973"/>
<polygon fill="#414141" stroke="#414141" points="382.2418,-205.6087 377.4071,-196.1813 375.3076,-206.566 382.2418,-205.6087"/>
<text text-anchor="middle" x="391.5762" y="-216.3813" font-family="Times,serif" font-size="8.00" fill="#999999">5 (⇑6)</text>
</g>
<!-- 140592957929984 -->
<g id="node4" class="node">
<title>140592957929984</title>
<path fill="none" stroke="#000000" d="M156.4656,-110.8906C156.4656,-110.8906 256.5344,-110.8906 256.5344,-110.8906 262.5344,-110.8906 268.5344,-116.8906 268.5344,-122.8906 268.5344,-122.8906 268.5344,-183.8906 268.5344,-183.8906 268.5344,-189.8906 262.5344,-195.8906 256.5344,-195.8906 256.5344,-195.8906 156.4656,-195.8906 156.4656,-195.8906 150.4656,-195.8906 144.4656,-189.8906 144.4656,-183.8906 144.4656,-183.8906 144.4656,-122.8906 144.4656,-122.8906 144.4656,-116.8906 150.4656,-110.8906 156.4656,-110.8906"/>
<text text-anchor="middle" x="206.5" y="-181.4906" font-family="Times,serif" font-size="13.00" fill="#000000">merge_sort([13, 19])</text>
<polyline fill="none" stroke="#000000" points="144.4656,-174.8906 268.5344,-174.8906 "/>
<text text-anchor="middle" x="206.5" y="-160.4906" font-family="Times,serif" font-size="13.00" fill="#000000">right: [13]</text>
<polyline fill="none" stroke="#000000" points="144.4656,-153.8906 268.5344,-153.8906 "/>
<text text-anchor="middle" x="206.5" y="-139.4906" font-family="Times,serif" font-size="13.00" fill="#000000">left: [19]</text>
<polyline fill="none" stroke="#000000" points="144.4656,-132.8906 268.5344,-132.8906 "/>
<text text-anchor="middle" x="206.5" y="-117.9906" font-family="Times,serif" font-size="13.00" fill="#000000">ret: [13, 19]</text>
</g>
<!-- 140592958000352&#45;&gt;140592957929984 -->
<g id="edge9" class="edge">
<title>140592958000352&#45;&gt;140592957929984</title>
<path fill="none" stroke="#1a1a1a" d="M329.8322,-241.2669C312.1944,-228.6997 292.754,-214.848 274.6255,-201.9312"/>
<polygon fill="#1a1a1a" stroke="#1a1a1a" points="276.5749,-199.0227 266.3998,-196.0702 272.5129,-204.7236 276.5749,-199.0227"/>
<text text-anchor="middle" x="313.5762" y="-216.3813" font-family="Times,serif" font-size="8.00" fill="#999999">2 (⇑3)</text>
</g>
<!-- 140592958017424 -->
<g id="node11" class="node">
<title>140592958017424</title>
<path fill="none" stroke="#000000" d="M721.5,-110.8906C721.5,-110.8906 815.5,-110.8906 815.5,-110.8906 821.5,-110.8906 827.5,-116.8906 827.5,-122.8906 827.5,-122.8906 827.5,-183.8906 827.5,-183.8906 827.5,-189.8906 821.5,-195.8906 815.5,-195.8906 815.5,-195.8906 721.5,-195.8906 721.5,-195.8906 715.5,-195.8906 709.5,-189.8906 709.5,-183.8906 709.5,-183.8906 709.5,-122.8906 709.5,-122.8906 709.5,-116.8906 715.5,-110.8906 721.5,-110.8906"/>
<text text-anchor="middle" x="768.2844" y="-181.4906" font-family="Times,serif" font-size="13.00" fill="#000000">merge_sort([8, 16])</text>
<polyline fill="none" stroke="#000000" points="709.5,-174.8906 827.0688,-174.8906 "/>
<text text-anchor="middle" x="768.2844" y="-160.4906" font-family="Times,serif" font-size="13.00" fill="#000000">right: [16]</text>
<polyline fill="none" stroke="#000000" points="709.5,-153.8906 827.0688,-153.8906 "/>
<text text-anchor="middle" x="768.2844" y="-139.4906" font-family="Times,serif" font-size="13.00" fill="#000000">left: [8]</text>
<polyline fill="none" stroke="#000000" points="709.5,-132.8906 827.0688,-132.8906 "/>
<text text-anchor="middle" x="768.2844" y="-117.9906" font-family="Times,serif" font-size="13.00" fill="#000000">ret: [8, 16]</text>
</g>
<!-- 140592958014592&#45;&gt;140592958017424 -->
<g id="edge10" class="edge">
<title>140592958014592&#45;&gt;140592958017424</title>
<path fill="none" stroke="#9c9c9c" d="M641.7981,-241.2669C660.6527,-228.1899 681.5127,-213.7222 700.7726,-200.3641"/>
<polygon fill="#9c9c9c" stroke="#9c9c9c" points="702.9838,-203.09 709.2062,-194.5149 698.9944,-197.338 702.9838,-203.09"/>
<text text-anchor="middle" x="693.5762" y="-216.3813" font-family="Times,serif" font-size="8.00" fill="#999999">12 (⇑13)</text>
</g>
<!-- 140592958011424 -->
<g id="node12" class="node">
<title>140592958011424</title>
<path fill="none" stroke="#000000" d="M537.5,-110.8906C537.5,-110.8906 631.5,-110.8906 631.5,-110.8906 637.5,-110.8906 643.5,-116.8906 643.5,-122.8906 643.5,-122.8906 643.5,-183.8906 643.5,-183.8906 643.5,-189.8906 637.5,-195.8906 631.5,-195.8906 631.5,-195.8906 537.5,-195.8906 537.5,-195.8906 531.5,-195.8906 525.5,-189.8906 525.5,-183.8906 525.5,-183.8906 525.5,-122.8906 525.5,-122.8906 525.5,-116.8906 531.5,-110.8906 537.5,-110.8906"/>
<text text-anchor="middle" x="584.2844" y="-181.4906" font-family="Times,serif" font-size="13.00" fill="#000000">merge_sort([9, 14])</text>
<polyline fill="none" stroke="#000000" points="525.5,-174.8906 643.0688,-174.8906 "/>
<text text-anchor="middle" x="584.2844" y="-160.4906" font-family="Times,serif" font-size="13.00" fill="#000000">right: [9]</text>
<polyline fill="none" stroke="#000000" points="525.5,-153.8906 643.0688,-153.8906 "/>
<text text-anchor="middle" x="584.2844" y="-139.4906" font-family="Times,serif" font-size="13.00" fill="#000000">left: [14]</text>
<polyline fill="none" stroke="#000000" points="525.5,-132.8906 643.0688,-132.8906 "/>
<text text-anchor="middle" x="584.2844" y="-117.9906" font-family="Times,serif" font-size="13.00" fill="#000000">ret: [9, 14]</text>
</g>
<!-- 140592958014592&#45;&gt;140592958011424 -->
<g id="edge11" class="edge">
<title>140592958014592&#45;&gt;140592958011424</title>
<path fill="none" stroke="#757575" d="M581.8097,-241.0865C582.1516,-229.9422 582.5242,-217.7981 582.88,-206.1973"/>
<polygon fill="#757575" stroke="#757575" points="586.3789,-206.284 583.1873,-196.1813 579.3822,-206.0693 586.3789,-206.284"/>
<text text-anchor="middle" x="595.5762" y="-216.3813" font-family="Times,serif" font-size="8.00" fill="#999999">9 (⇑10)</text>
</g>
<!-- 140592958013280 -->
<g id="node7" class="node">
<title>140592958013280</title>
<path fill="none" stroke="#000000" d="M416.4656,-22.5C416.4656,-22.5 490.5344,-22.5 490.5344,-22.5 496.5344,-22.5 502.5344,-28.5 502.5344,-34.5 502.5344,-34.5 502.5344,-53.5 502.5344,-53.5 502.5344,-59.5 496.5344,-65.5 490.5344,-65.5 490.5344,-65.5 416.4656,-65.5 416.4656,-65.5 410.4656,-65.5 404.4656,-59.5 404.4656,-53.5 404.4656,-53.5 404.4656,-34.5 404.4656,-34.5 404.4656,-28.5 410.4656,-22.5 416.4656,-22.5"/>
<text text-anchor="middle" x="453.5" y="-51.1" font-family="Times,serif" font-size="13.00" fill="#000000">merge_sort([3])</text>
<polyline fill="none" stroke="#000000" points="404.4656,-44.5 502.5344,-44.5 "/>
<text text-anchor="middle" x="453.5" y="-29.6" font-family="Times,serif" font-size="13.00" fill="#000000">ret: None</text>
</g>
<!-- 140592958006176&#45;&gt;140592958013280 -->
<g id="edge12" class="edge">
<title>140592958006176&#45;&gt;140592958013280</title>
<path fill="none" stroke="#5b5b5b" d="M403.4381,-110.7841C412.6835,-98.4505 422.576,-85.2535 431.1052,-73.8753"/>
<polygon fill="#5b5b5b" stroke="#5b5b5b" points="434.131,-75.6741 437.3285,-65.5733 428.5299,-71.4755 434.131,-75.6741"/>
<text text-anchor="middle" x="432.5762" y="-85.9906" font-family="Times,serif" font-size="8.00" fill="#999999">7 (⇑5)</text>
</g>
<!-- 140592958009344 -->
<g id="node8" class="node">
<title>140592958009344</title>
<path fill="none" stroke="#000000" d="M276,-22.5C276,-22.5 357,-22.5 357,-22.5 363,-22.5 369,-28.5 369,-34.5 369,-34.5 369,-53.5 369,-53.5 369,-59.5 363,-65.5 357,-65.5 357,-65.5 276,-65.5 276,-65.5 270,-65.5 264,-59.5 264,-53.5 264,-53.5 264,-34.5 264,-34.5 264,-28.5 270,-22.5 276,-22.5"/>
<text text-anchor="middle" x="316.2844" y="-51.1" font-family="Times,serif" font-size="13.00" fill="#000000">merge_sort([17])</text>
<polyline fill="none" stroke="#000000" points="264,-44.5 368.5688,-44.5 "/>
<text text-anchor="middle" x="316.2844" y="-29.6" font-family="Times,serif" font-size="13.00" fill="#000000">ret: None</text>
</g>
<!-- 140592958006176&#45;&gt;140592958009344 -->
<g id="edge13" class="edge">
<title>140592958006176&#45;&gt;140592958009344</title>
<path fill="none" stroke="#4e4e4e" d="M350.0781,-110.7841C343.9985,-98.6923 337.5017,-85.7707 331.8584,-74.5467"/>
<polygon fill="#4e4e4e" stroke="#4e4e4e" points="334.9658,-72.9354 327.3467,-65.5733 328.7118,-76.0798 334.9658,-72.9354"/>
<text text-anchor="middle" x="351.5762" y="-85.9906" font-family="Times,serif" font-size="8.00" fill="#999999">6 (⇑4)</text>
</g>
<!-- 140592958004320 -->
<g id="node13" class="node">
<title>140592958004320</title>
<path fill="none" stroke="#000000" d="M12,-22.5C12,-22.5 93,-22.5 93,-22.5 99,-22.5 105,-28.5 105,-34.5 105,-34.5 105,-53.5 105,-53.5 105,-59.5 99,-65.5 93,-65.5 93,-65.5 12,-65.5 12,-65.5 6,-65.5 0,-59.5 0,-53.5 0,-53.5 0,-34.5 0,-34.5 0,-28.5 6,-22.5 12,-22.5"/>
<text text-anchor="middle" x="52.2844" y="-51.1" font-family="Times,serif" font-size="13.00" fill="#000000">merge_sort([19])</text>
<polyline fill="none" stroke="#000000" points="0,-44.5 104.5688,-44.5 "/>
<text text-anchor="middle" x="52.2844" y="-29.6" font-family="Times,serif" font-size="13.00" fill="#000000">ret: None</text>
</g>
<!-- 140592957929984&#45;&gt;140592958004320 -->
<g id="edge14" class="edge">
<title>140592957929984&#45;&gt;140592958004320</title>
<path fill="none" stroke="#272727" d="M146.5186,-110.7841C127.9637,-97.6041 108.021,-83.4381 91.298,-71.5593"/>
<polygon fill="#272727" stroke="#272727" points="93.0503,-68.5109 82.8709,-65.5733 88.9966,-74.2177 93.0503,-68.5109"/>
<text text-anchor="middle" x="130.5762" y="-85.9906" font-family="Times,serif" font-size="8.00" fill="#999999">3 (⇑1)</text>
</g>
<!-- 140592958008032 -->
<g id="node14" class="node">
<title>140592958008032</title>
<path fill="none" stroke="#000000" d="M153,-22.5C153,-22.5 234,-22.5 234,-22.5 240,-22.5 246,-28.5 246,-34.5 246,-34.5 246,-53.5 246,-53.5 246,-59.5 240,-65.5 234,-65.5 234,-65.5 153,-65.5 153,-65.5 147,-65.5 141,-59.5 141,-53.5 141,-53.5 141,-34.5 141,-34.5 141,-28.5 147,-22.5 153,-22.5"/>
<text text-anchor="middle" x="193.2844" y="-51.1" font-family="Times,serif" font-size="13.00" fill="#000000">merge_sort([13])</text>
<polyline fill="none" stroke="#000000" points="141,-44.5 245.5688,-44.5 "/>
<text text-anchor="middle" x="193.2844" y="-29.6" font-family="Times,serif" font-size="13.00" fill="#000000">ret: None</text>
</g>
<!-- 140592957929984&#45;&gt;140592958008032 -->
<g id="edge15" class="edge">
<title>140592957929984&#45;&gt;140592958008032</title>
<path fill="none" stroke="#343434" d="M201.4366,-110.7841C200.0428,-99.0551 198.5561,-86.5453 197.2508,-75.5614"/>
<polygon fill="#343434" stroke="#343434" points="200.7195,-75.0904 196.0638,-65.5733 193.7684,-75.9165 200.7195,-75.0904"/>
<text text-anchor="middle" x="209.5762" y="-85.9906" font-family="Times,serif" font-size="8.00" fill="#999999">4 (⇑2)</text>
</g>
<!-- 140592958022064 -->
<g id="node5" class="node">
<title>140592958022064</title>
<path fill="none" stroke="#000000" d="M789.4656,-22.5C789.4656,-22.5 863.5344,-22.5 863.5344,-22.5 869.5344,-22.5 875.5344,-28.5 875.5344,-34.5 875.5344,-34.5 875.5344,-53.5 875.5344,-53.5 875.5344,-59.5 869.5344,-65.5 863.5344,-65.5 863.5344,-65.5 789.4656,-65.5 789.4656,-65.5 783.4656,-65.5 777.4656,-59.5 777.4656,-53.5 777.4656,-53.5 777.4656,-34.5 777.4656,-34.5 777.4656,-28.5 783.4656,-22.5 789.4656,-22.5"/>
<text text-anchor="middle" x="826.5" y="-51.1" font-family="Times,serif" font-size="13.00" fill="#000000">merge_sort([8])</text>
<polyline fill="none" stroke="#000000" points="777.4656,-44.5 875.5344,-44.5 "/>
<text text-anchor="middle" x="826.5" y="-29.6" font-family="Times,serif" font-size="13.00" fill="#000000">ret: None</text>
</g>
<!-- 140592958025776 -->
<g id="node6" class="node">
<title>140592958025776</title>
<path fill="none" stroke="#000000" d="M923,-22.5C923,-22.5 1004,-22.5 1004,-22.5 1010,-22.5 1016,-28.5 1016,-34.5 1016,-34.5 1016,-53.5 1016,-53.5 1016,-59.5 1010,-65.5 1004,-65.5 1004,-65.5 923,-65.5 923,-65.5 917,-65.5 911,-59.5 911,-53.5 911,-53.5 911,-34.5 911,-34.5 911,-28.5 917,-22.5 923,-22.5"/>
<text text-anchor="middle" x="963.2844" y="-51.1" font-family="Times,serif" font-size="13.00" fill="#000000">merge_sort([16])</text>
<polyline fill="none" stroke="#000000" points="911,-44.5 1015.5688,-44.5 "/>
<text text-anchor="middle" x="963.2844" y="-29.6" font-family="Times,serif" font-size="13.00" fill="#000000">ret: None</text>
</g>
<!-- 140592958019632 -->
<g id="node9" class="node">
<title>140592958019632</title>
<path fill="none" stroke="#000000" d="M673.4656,-22.5C673.4656,-22.5 747.5344,-22.5 747.5344,-22.5 753.5344,-22.5 759.5344,-28.5 759.5344,-34.5 759.5344,-34.5 759.5344,-53.5 759.5344,-53.5 759.5344,-59.5 753.5344,-65.5 747.5344,-65.5 747.5344,-65.5 673.4656,-65.5 673.4656,-65.5 667.4656,-65.5 661.4656,-59.5 661.4656,-53.5 661.4656,-53.5 661.4656,-34.5 661.4656,-34.5 661.4656,-28.5 667.4656,-22.5 673.4656,-22.5"/>
<text text-anchor="middle" x="710.5" y="-51.1" font-family="Times,serif" font-size="13.00" fill="#000000">merge_sort([9])</text>
<polyline fill="none" stroke="#000000" points="661.4656,-44.5 759.5344,-44.5 "/>
<text text-anchor="middle" x="710.5" y="-29.6" font-family="Times,serif" font-size="13.00" fill="#000000">ret: None</text>
</g>
<!-- 140592958015264 -->
<g id="node10" class="node">
<title>140592958015264</title>
<path fill="none" stroke="#000000" d="M533,-22.5C533,-22.5 614,-22.5 614,-22.5 620,-22.5 626,-28.5 626,-34.5 626,-34.5 626,-53.5 626,-53.5 626,-59.5 620,-65.5 614,-65.5 614,-65.5 533,-65.5 533,-65.5 527,-65.5 521,-59.5 521,-53.5 521,-53.5 521,-34.5 521,-34.5 521,-28.5 527,-22.5 533,-22.5"/>
<text text-anchor="middle" x="573.2844" y="-51.1" font-family="Times,serif" font-size="13.00" fill="#000000">merge_sort([14])</text>
<polyline fill="none" stroke="#000000" points="521,-44.5 625.5688,-44.5 "/>
<text text-anchor="middle" x="573.2844" y="-29.6" font-family="Times,serif" font-size="13.00" fill="#000000">ret: None</text>
</g>
<!-- 140592958017424&#45;&gt;140592958022064 -->
<g id="edge16" class="edge">
<title>140592958017424&#45;&gt;140592958022064</title>
<path fill="none" stroke="#a9a9a9" d="M791.0904,-110.7841C797.5016,-98.6923 804.3527,-85.7707 810.3038,-74.5467"/>
<polygon fill="#a9a9a9" stroke="#a9a9a9" points="813.4694,-76.0478 815.0616,-65.5733 807.2849,-72.7687 813.4694,-76.0478"/>
<text text-anchor="middle" x="817.4297" y="-85.9906" font-family="Times,serif" font-size="8.00" fill="#999999">13 (⇑11)</text>
</g>
<!-- 140592958017424&#45;&gt;140592958025776 -->
<g id="edge17" class="edge">
<title>140592958017424&#45;&gt;140592958025776</title>
<path fill="none" stroke="#b6b6b6" d="M827.5356,-120.273C855.9364,-104.3408 889.5228,-85.4995 916.2083,-70.5296"/>
<polygon fill="#b6b6b6" stroke="#b6b6b6" points="917.9671,-73.5561 924.9761,-65.611 914.5423,-67.4511 917.9671,-73.5561"/>
<text text-anchor="middle" x="902.5762" y="-85.9906" font-family="Times,serif" font-size="8.00" fill="#999999">14 (⇑12)</text>
</g>
<!-- 140592958011424&#45;&gt;140592958019632 -->
<g id="edge18" class="edge">
<title>140592958011424&#45;&gt;140592958019632</title>
<path fill="none" stroke="#8f8f8f" d="M633.5757,-110.7841C648.4784,-97.8459 664.4754,-83.9577 678.0004,-72.2155"/>
<polygon fill="#8f8f8f" stroke="#8f8f8f" points="680.3944,-74.7721 685.6511,-65.5733 675.8053,-69.4862 680.3944,-74.7721"/>
<text text-anchor="middle" x="674.4297" y="-85.9906" font-family="Times,serif" font-size="8.00" fill="#999999">11 (⇑9)</text>
</g>
<!-- 140592958011424&#45;&gt;140592958015264 -->
<g id="edge19" class="edge">
<title>140592958011424&#45;&gt;140592958015264</title>
<path fill="none" stroke="#828282" d="M580.2156,-110.7841C579.0362,-99.0551 577.7782,-86.5453 576.6737,-75.5614"/>
<polygon fill="#828282" stroke="#828282" points="580.1524,-75.1729 575.6693,-65.5733 573.1875,-75.8733 580.1524,-75.1729"/>
<text text-anchor="middle" x="590.5762" y="-85.9906" font-family="Times,serif" font-size="8.00" fill="#999999">10 (⇑8)</text>
</g>
<!-- 140592957994240 -->
<g id="node15" class="node">
<title>140592957994240</title>
<path fill="none" stroke="#000000" d="M384.5,-371.6719C384.5,-371.6719 582.5,-371.6719 582.5,-371.6719 588.5,-371.6719 594.5,-377.6719 594.5,-383.6719 594.5,-383.6719 594.5,-444.6719 594.5,-444.6719 594.5,-450.6719 588.5,-456.6719 582.5,-456.6719 582.5,-456.6719 384.5,-456.6719 384.5,-456.6719 378.5,-456.6719 372.5,-450.6719 372.5,-444.6719 372.5,-444.6719 372.5,-383.6719 372.5,-383.6719 372.5,-377.6719 378.5,-371.6719 384.5,-371.6719"/>
<text text-anchor="middle" x="483.2844" y="-442.2719" font-family="Times,serif" font-size="13.00" fill="#000000">merge_sort([3, 8, 9, 13, 14, 16, 17, 19])</text>
<polyline fill="none" stroke="#000000" points="372.5,-435.6719 594.0688,-435.6719 "/>
<text text-anchor="middle" x="483.2844" y="-421.2719" font-family="Times,serif" font-size="13.00" fill="#000000">right: [14, 9, 8, 16]</text>
<polyline fill="none" stroke="#000000" points="372.5,-414.6719 594.0688,-414.6719 "/>
<text text-anchor="middle" x="483.2844" y="-400.2719" font-family="Times,serif" font-size="13.00" fill="#000000">left: [19, 13, 17, 3]</text>
<polyline fill="none" stroke="#000000" points="372.5,-393.6719 594.0688,-393.6719 "/>
<text text-anchor="middle" x="483.2844" y="-378.7719" font-family="Times,serif" font-size="13.00" fill="#000000">ret: [3, 8, 9, 13, 14, 16, 17, 19]</text>
</g>
<!-- 140592957994240&#45;&gt;140592958000352 -->
<g id="edge20" class="edge">
<title>140592957994240&#45;&gt;140592958000352</title>
<path fill="none" stroke="#0d0d0d" d="M452.7209,-371.4771C444.2811,-359.7699 435.0458,-346.9594 426.3049,-334.8346"/>
<polygon fill="#0d0d0d" stroke="#0d0d0d" points="429.0354,-332.637 420.3483,-326.5719 423.3571,-336.7306 429.0354,-332.637"/>
<text text-anchor="middle" x="449.5762" y="-346.7719" font-family="Times,serif" font-size="8.00" fill="#999999">1 (⇑7)</text>
</g>
<!-- 140592957994240&#45;&gt;140592958014592 -->
<g id="edge21" class="edge">
<title>140592957994240&#45;&gt;140592958014592</title>
<path fill="none" stroke="#686868" d="M515.2614,-371.4771C523.9706,-359.7699 533.5006,-346.9594 542.5205,-334.8346"/>
<polygon fill="#686868" stroke="#686868" points="545.5066,-336.6844 548.6672,-326.5719 539.8903,-332.5062 545.5066,-336.6844"/>
<text text-anchor="middle" x="547.5762" y="-346.7719" font-family="Times,serif" font-size="8.00" fill="#999999">8 (⇑14)</text>
</g>
</g>
</svg>
