<?xml version="1.0" encoding="UTF-8" standalone="no"?>
<!DOCTYPE svg PUBLIC "-//W3C//DTD SVG 1.1//EN"
 "http://www.w3.org/Graphics/SVG/1.1/DTD/svg11.dtd">
<!-- Generated by graphviz version 2.40.1 (20161225.0304)
 -->
<!-- Pages: 1 -->
<svg width="398pt" height="423pt"
 viewBox="0.00 0.00 398.45 423.17" xmlns="http://www.w3.org/2000/svg" xmlns:xlink="http://www.w3.org/1999/xlink">
<g id="graph0" class="graph" transform="scale(1 1) rotate(0) translate(4 419.1719)">
<polygon fill="#ffffff" stroke="transparent" points="-4,4 -4,-419.1719 394.4546,-419.1719 394.4546,4 -4,4"/>
<text text-anchor="middle" x="195.2273" y="-6.8" font-family="Times,serif" font-size="14.00" fill="#000000">nodes=8</text>
<!-- 140289206433536 -->
<g id="node1" class="node">
<title>140289206433536</title>
<path fill="none" stroke="#000000" d="M18.5,-131.8906C18.5,-131.8906 72.9546,-131.8906 72.9546,-131.8906 78.9546,-131.8906 84.9546,-137.8906 84.9546,-143.8906 84.9546,-143.8906 84.9546,-183.8906 84.9546,-183.8906 84.9546,-189.8906 78.9546,-195.8906 72.9546,-195.8906 72.9546,-195.8906 18.5,-195.8906 18.5,-195.8906 12.5,-195.8906 6.5,-189.8906 6.5,-183.8906 6.5,-183.8906 6.5,-143.8906 6.5,-143.8906 6.5,-137.8906 12.5,-131.8906 18.5,-131.8906"/>
<text text-anchor="middle" x="45.7273" y="-181.4906" font-family="Times,serif" font-size="13.00" fill="#000000">dfs(2,[1, 2])</text>
<polyline fill="none" stroke="#000000" points="6.5,-174.8906 84.9546,-174.8906 "/>
<text text-anchor="middle" x="45.7273" y="-160.4906" font-family="Times,serif" font-size="13.00" fill="#000000">start: 2</text>
<polyline fill="none" stroke="#000000" points="6.5,-153.8906 84.9546,-153.8906 "/>
<text text-anchor="middle" x="45.7273" y="-138.9906" font-family="Times,serif" font-size="13.00" fill="#000000">ret: None</text>
</g>
<!-- 140289206513840 -->
<g id="node2" class="node">
<title>140289206513840</title>
<path fill="none" stroke="#000000" d="M132.5,-131.8906C132.5,-131.8906 186.9546,-131.8906 186.9546,-131.8906 192.9546,-131.8906 198.9546,-137.8906 198.9546,-143.8906 198.9546,-143.8906 198.9546,-183.8906 198.9546,-183.8906 198.9546,-189.8906 192.9546,-195.8906 186.9546,-195.8906 186.9546,-195.8906 132.5,-195.8906 132.5,-195.8906 126.5,-195.8906 120.5,-189.8906 120.5,-183.8906 120.5,-183.8906 120.5,-143.8906 120.5,-143.8906 120.5,-137.8906 126.5,-131.8906 132.5,-131.8906"/>
<text text-anchor="middle" x="159.7273" y="-181.4906" font-family="Times,serif" font-size="13.00" fill="#000000">dfs(3,[1, 3])</text>
<polyline fill="none" stroke="#000000" points="120.5,-174.8906 198.9546,-174.8906 "/>
<text text-anchor="middle" x="159.7273" y="-160.4906" font-family="Times,serif" font-size="13.00" fill="#000000">start: 3</text>
<polyline fill="none" stroke="#000000" points="120.5,-153.8906 198.9546,-153.8906 "/>
<text text-anchor="middle" x="159.7273" y="-138.9906" font-family="Times,serif" font-size="13.00" fill="#000000">ret: None</text>
</g>
<!-- 140289206510672 -->
<g id="node6" class="node">
<title>140289206510672</title>
<path fill="none" stroke="#000000" d="M12,-22.5C12,-22.5 79.4546,-22.5 79.4546,-22.5 85.4546,-22.5 91.4546,-28.5 91.4546,-34.5 91.4546,-34.5 91.4546,-74.5 91.4546,-74.5 91.4546,-80.5 85.4546,-86.5 79.4546,-86.5 79.4546,-86.5 12,-86.5 12,-86.5 6,-86.5 0,-80.5 0,-74.5 0,-74.5 0,-34.5 0,-34.5 0,-28.5 6,-22.5 12,-22.5"/>
<text text-anchor="middle" x="45.7273" y="-72.1" font-family="Times,serif" font-size="13.00" fill="#000000">dfs(3,[1, 2, 3])</text>
<polyline fill="none" stroke="#000000" points="0,-65.5 91.4546,-65.5 "/>
<text text-anchor="middle" x="45.7273" y="-51.1" font-family="Times,serif" font-size="13.00" fill="#000000">start: 3</text>
<polyline fill="none" stroke="#000000" points="0,-44.5 91.4546,-44.5 "/>
<text text-anchor="middle" x="45.7273" y="-29.6" font-family="Times,serif" font-size="13.00" fill="#000000">ret: None</text>
</g>
<!-- 140289206433536&#45;&gt;140289206510672 -->
<g id="edge4" class="edge">
<title>140289206433536&#45;&gt;140289206510672</title>
<path fill="none" stroke="#4b4b4b" d="M45.7273,-131.6615C45.7273,-120.8531 45.7273,-108.6281 45.7273,-97.1481"/>
<polygon fill="#4b4b4b" stroke="#4b4b4b" points="49.2274,-96.8768 45.7273,-86.8768 42.2274,-96.8768 49.2274,-96.8768"/>
<text text-anchor="middle" x="55.8035" y="-106.9906" font-family="Times,serif" font-size="8.00" fill="#999999">3 (⇑1)</text>
</g>
<!-- 140289206506704 -->
<g id="node3" class="node">
<title>140289206506704</title>
<path fill="none" stroke="#000000" d="M135,-241.2813C135,-241.2813 176.4546,-241.2813 176.4546,-241.2813 182.4546,-241.2813 188.4546,-247.2813 188.4546,-253.2813 188.4546,-253.2813 188.4546,-293.2813 188.4546,-293.2813 188.4546,-299.2813 182.4546,-305.2813 176.4546,-305.2813 176.4546,-305.2813 135,-305.2813 135,-305.2813 129,-305.2813 123,-299.2813 123,-293.2813 123,-293.2813 123,-253.2813 123,-253.2813 123,-247.2813 129,-241.2813 135,-241.2813"/>
<text text-anchor="middle" x="155.7273" y="-290.8813" font-family="Times,serif" font-size="13.00" fill="#000000">dfs(1,[1])</text>
<polyline fill="none" stroke="#000000" points="123,-284.2813 188.4546,-284.2813 "/>
<text text-anchor="middle" x="155.7273" y="-269.8813" font-family="Times,serif" font-size="13.00" fill="#000000">start: 1</text>
<polyline fill="none" stroke="#000000" points="123,-263.2813 188.4546,-263.2813 "/>
<text text-anchor="middle" x="155.7273" y="-248.3813" font-family="Times,serif" font-size="13.00" fill="#000000">ret: None</text>
</g>
<!-- 140289206506704&#45;&gt;140289206433536 -->
<g id="edge5" class="edge">
<title>140289206506704&#45;&gt;140289206433536</title>
<path fill="none" stroke="#323232" d="M123.3186,-241.0521C111.4519,-229.2511 97.887,-215.7614 85.4532,-203.3964"/>
<polygon fill="#323232" stroke="#323232" points="87.8432,-200.8371 78.2844,-196.2674 82.9072,-205.8006 87.8432,-200.8371"/>
<text text-anchor="middle" x="114.8035" y="-216.3813" font-family="Times,serif" font-size="8.00" fill="#999999">2 (⇑2)</text>
</g>
<!-- 140289206506704&#45;&gt;140289206513840 -->
<g id="edge6" class="edge">
<title>140289206506704&#45;&gt;140289206513840</title>
<path fill="none" stroke="#646464" d="M156.9058,-241.0521C157.301,-230.2437 157.748,-218.0187 158.1678,-206.5388"/>
<polygon fill="#646464" stroke="#646464" points="161.6755,-206.3887 158.5434,-196.2674 154.6802,-206.1328 161.6755,-206.3887"/>
<text text-anchor="middle" x="168.8035" y="-216.3813" font-family="Times,serif" font-size="8.00" fill="#999999">4 (⇑3)</text>
</g>
<!-- 140289206513296 -->
<g id="node4" class="node">
<title>140289206513296</title>
<path fill="none" stroke="#000000" d="M236,-241.2813C236,-241.2813 277.4546,-241.2813 277.4546,-241.2813 283.4546,-241.2813 289.4546,-247.2813 289.4546,-253.2813 289.4546,-253.2813 289.4546,-293.2813 289.4546,-293.2813 289.4546,-299.2813 283.4546,-305.2813 277.4546,-305.2813 277.4546,-305.2813 236,-305.2813 236,-305.2813 230,-305.2813 224,-299.2813 224,-293.2813 224,-293.2813 224,-253.2813 224,-253.2813 224,-247.2813 230,-241.2813 236,-241.2813"/>
<text text-anchor="middle" x="256.7273" y="-290.8813" font-family="Times,serif" font-size="13.00" fill="#000000">dfs(2,[2])</text>
<polyline fill="none" stroke="#000000" points="224,-284.2813 289.4546,-284.2813 "/>
<text text-anchor="middle" x="256.7273" y="-269.8813" font-family="Times,serif" font-size="13.00" fill="#000000">start: 2</text>
<polyline fill="none" stroke="#000000" points="224,-263.2813 289.4546,-263.2813 "/>
<text text-anchor="middle" x="256.7273" y="-248.3813" font-family="Times,serif" font-size="13.00" fill="#000000">ret: None</text>
</g>
<!-- 140289206517232 -->
<g id="node5" class="node">
<title>140289206517232</title>
<path fill="none" stroke="#000000" d="M337,-241.2813C337,-241.2813 378.4546,-241.2813 378.4546,-241.2813 384.4546,-241.2813 390.4546,-247.2813 390.4546,-253.2813 390.4546,-253.2813 390.4546,-293.2813 390.4546,-293.2813 390.4546,-299.2813 384.4546,-305.2813 378.4546,-305.2813 378.4546,-305.2813 337,-305.2813 337,-305.2813 331,-305.2813 325,-299.2813 325,-293.2813 325,-293.2813 325,-253.2813 325,-253.2813 325,-247.2813 331,-241.2813 337,-241.2813"/>
<text text-anchor="middle" x="357.7273" y="-290.8813" font-family="Times,serif" font-size="13.00" fill="#000000">dfs(3,[3])</text>
<polyline fill="none" stroke="#000000" points="325,-284.2813 390.4546,-284.2813 "/>
<text text-anchor="middle" x="357.7273" y="-269.8813" font-family="Times,serif" font-size="13.00" fill="#000000">start: 3</text>
<polyline fill="none" stroke="#000000" points="325,-263.2813 390.4546,-263.2813 "/>
<text text-anchor="middle" x="357.7273" y="-248.3813" font-family="Times,serif" font-size="13.00" fill="#000000">ret: None</text>
</g>
<!-- 140289206515152 -->
<g id="node7" class="node">
<title>140289206515152</title>
<path fill="none" stroke="#000000" d="M229.5,-131.8906C229.5,-131.8906 283.9546,-131.8906 283.9546,-131.8906 289.9546,-131.8906 295.9546,-137.8906 295.9546,-143.8906 295.9546,-143.8906 295.9546,-183.8906 295.9546,-183.8906 295.9546,-189.8906 289.9546,-195.8906 283.9546,-195.8906 283.9546,-195.8906 229.5,-195.8906 229.5,-195.8906 223.5,-195.8906 217.5,-189.8906 217.5,-183.8906 217.5,-183.8906 217.5,-143.8906 217.5,-143.8906 217.5,-137.8906 223.5,-131.8906 229.5,-131.8906"/>
<text text-anchor="middle" x="256.7273" y="-181.4906" font-family="Times,serif" font-size="13.00" fill="#000000">dfs(3,[2, 3])</text>
<polyline fill="none" stroke="#000000" points="217.5,-174.8906 295.9546,-174.8906 "/>
<text text-anchor="middle" x="256.7273" y="-160.4906" font-family="Times,serif" font-size="13.00" fill="#000000">start: 3</text>
<polyline fill="none" stroke="#000000" points="217.5,-153.8906 295.9546,-153.8906 "/>
<text text-anchor="middle" x="256.7273" y="-138.9906" font-family="Times,serif" font-size="13.00" fill="#000000">ret: None</text>
</g>
<!-- 140289206513296&#45;&gt;140289206515152 -->
<g id="edge7" class="edge">
<title>140289206513296&#45;&gt;140289206515152</title>
<path fill="none" stroke="#969696" d="M256.7273,-241.0521C256.7273,-230.2437 256.7273,-218.0187 256.7273,-206.5388"/>
<polygon fill="#969696" stroke="#969696" points="260.2274,-206.2674 256.7273,-196.2674 253.2274,-206.2675 260.2274,-206.2674"/>
<text text-anchor="middle" x="266.8035" y="-216.3813" font-family="Times,serif" font-size="8.00" fill="#999999">6 (⇑5)</text>
</g>
<!-- 140289206468624 -->
<g id="node8" class="node">
<title>140289206468624</title>
<path fill="none" stroke="#000000" d="M236.2273,-350.6719C236.2273,-350.6719 277.2273,-350.6719 277.2273,-350.6719 283.2273,-350.6719 289.2273,-356.6719 289.2273,-362.6719 289.2273,-362.6719 289.2273,-402.6719 289.2273,-402.6719 289.2273,-408.6719 283.2273,-414.6719 277.2273,-414.6719 277.2273,-414.6719 236.2273,-414.6719 236.2273,-414.6719 230.2273,-414.6719 224.2273,-408.6719 224.2273,-402.6719 224.2273,-402.6719 224.2273,-362.6719 224.2273,-362.6719 224.2273,-356.6719 230.2273,-350.6719 236.2273,-350.6719"/>
<text text-anchor="middle" x="256.5928" y="-400.2719" font-family="Times,serif" font-size="13.00" fill="#000000">dfs(0,[])</text>
<polyline fill="none" stroke="#000000" points="224.2273,-393.6719 288.9583,-393.6719 "/>
<text text-anchor="middle" x="256.5928" y="-379.2719" font-family="Times,serif" font-size="13.00" fill="#000000">start: 0</text>
<polyline fill="none" stroke="#000000" points="224.2273,-372.6719 288.9583,-372.6719 "/>
<text text-anchor="middle" x="256.5928" y="-357.7719" font-family="Times,serif" font-size="13.00" fill="#000000">ret: None</text>
</g>
<!-- 140289206468624&#45;&gt;140289206506704 -->
<g id="edge8" class="edge">
<title>140289206468624&#45;&gt;140289206506704</title>
<path fill="none" stroke="#191919" d="M226.9702,-350.4427C216.1763,-338.7521 203.852,-325.404 192.5232,-313.134"/>
<polygon fill="#191919" stroke="#191919" points="194.9759,-310.631 185.6207,-305.658 189.8328,-315.3796 194.9759,-310.631"/>
<text text-anchor="middle" x="219.8035" y="-325.7719" font-family="Times,serif" font-size="8.00" fill="#999999">1 (⇑4)</text>
</g>
<!-- 140289206468624&#45;&gt;140289206513296 -->
<g id="edge9" class="edge">
<title>140289206468624&#45;&gt;140289206513296</title>
<path fill="none" stroke="#7d7d7d" d="M256.7273,-350.4427C256.7273,-339.6344 256.7273,-327.4093 256.7273,-315.9294"/>
<polygon fill="#7d7d7d" stroke="#7d7d7d" points="260.2274,-315.658 256.7273,-305.658 253.2274,-315.6581 260.2274,-315.658"/>
<text text-anchor="middle" x="266.8035" y="-325.7719" font-family="Times,serif" font-size="8.00" fill="#999999">5 (⇑6)</text>
</g>
<!-- 140289206468624&#45;&gt;140289206517232 -->
<g id="edge10" class="edge">
<title>140289206468624&#45;&gt;140289206517232</title>
<path fill="none" stroke="#afafaf" d="M286.4844,-350.4427C297.2783,-338.7521 309.6026,-325.404 320.9314,-313.134"/>
<polygon fill="#afafaf" stroke="#afafaf" points="323.6217,-315.3796 327.8339,-305.658 318.4787,-310.631 323.6217,-315.3796"/>
<text text-anchor="middle" x="320.8035" y="-325.7719" font-family="Times,serif" font-size="8.00" fill="#999999">7 (⇑7)</text>
</g>
</g>
</svg>
